<svg xmlns="http://www.w3.org/2000/svg" xmlns:xlink="http://www.w3.org/1999/xlink" width="1366" zoomAndPan="magnify" viewBox="0 0 1024.5 576" height="768" preserveAspectRatio="xMidYMid meet" version="1.0"><defs><clipPath id="d0f8db76c5"><path d="M 0 0.140625 L 1024 0.140625 L 1024 575.859375 L 0 575.859375 Z M 0 0.140625 " clip-rule="nonzero"/></clipPath><clipPath id="feaa06bd62"><path d="M 294.328125 160 L 730.078125 160 L 730.078125 314 L 294.328125 314 Z M 294.328125 160 " clip-rule="nonzero"/></clipPath></defs><g clip-path="url(#d0f8db76c5)"><path fill="#ffffff" d="M 0 0.140625 L 1024.5 0.140625 L 1024.5 576.140625 L 0 576.140625 Z M 0 0.140625 " fill-opacity="1" fill-rule="nonzero"/><path fill="#ffffff" d="M 0 0.140625 L 1024.5 0.140625 L 1024.5 576.140625 L 0 576.140625 Z M 0 0.140625 " fill-opacity="1" fill-rule="nonzero"/></g><g clip-path="url(#feaa06bd62)"><path fill="#d18e62" d="M 719.207031 160.375 L 304.292969 160.375 C 298.855469 160.375 294.328125 164.90625 294.328125 170.339844 L 294.328125 303.511719 C 294.328125 308.949219 298.855469 313.476562 304.292969 313.476562 L 720.113281 313.476562 C 725.546875 313.476562 730.078125 308.949219 730.078125 303.511719 L 730.078125 170.339844 C 729.171875 164.90625 724.640625 160.375 719.207031 160.375 Z M 719.207031 160.375 " fill-opacity="1" fill-rule="nonzero"/></g><path fill="#a46e49" d="M 463.734375 174.871094 L 560.667969 174.871094 C 560.667969 183.023438 567.011719 189.367188 575.164062 189.367188 L 575.164062 284.488281 C 567.011719 284.488281 560.667969 290.828125 560.667969 298.980469 L 463.734375 298.980469 C 463.734375 290.828125 457.394531 284.488281 449.238281 284.488281 L 449.238281 189.367188 C 456.488281 189.367188 463.734375 183.023438 463.734375 174.871094 Z M 463.734375 174.871094 " fill-opacity="1" fill-rule="nonzero"/><path fill="#000000" d="M 559.761719 174.871094 L 507.21875 174.871094 L 507.21875 298.078125 L 559.761719 298.078125 C 559.761719 289.921875 566.105469 283.582031 574.257812 283.582031 L 574.257812 189.367188 C 567.011719 189.367188 559.761719 183.023438 559.761719 174.871094 Z M 559.761719 174.871094 " fill-opacity="0.0588" fill-rule="nonzero"/><path fill="#a46e49" d="M 323.316406 174.871094 L 420.25 174.871094 C 420.25 183.023438 426.59375 189.367188 434.746094 189.367188 L 434.746094 284.488281 C 426.59375 284.488281 420.25 290.828125 420.25 298.980469 L 323.316406 298.980469 C 323.316406 290.828125 316.976562 284.488281 308.820312 284.488281 L 308.820312 189.367188 C 316.976562 189.367188 323.316406 183.023438 323.316406 174.871094 Z M 323.316406 174.871094 " fill-opacity="1" fill-rule="nonzero"/><path fill="#000000" d="M 420.25 174.871094 L 366.800781 174.871094 L 366.800781 298.078125 L 419.34375 298.078125 C 419.34375 289.921875 425.6875 283.582031 433.839844 283.582031 L 433.839844 189.367188 C 426.59375 189.367188 420.25 183.023438 420.25 174.871094 Z M 420.25 174.871094 " fill-opacity="0.0588" fill-rule="nonzero"/><path fill="#ffcb67" d="M 424.78125 236.472656 C 424.78125 236.832031 424.746094 237.183594 424.675781 237.535156 C 424.605469 237.882812 424.503906 238.222656 424.367188 238.554688 C 424.230469 238.882812 424.0625 239.195312 423.863281 239.492188 C 423.664062 239.789062 423.441406 240.066406 423.1875 240.316406 C 422.9375 240.570312 422.660156 240.792969 422.363281 240.992188 C 422.066406 241.191406 421.753906 241.359375 421.425781 241.496094 C 421.09375 241.632812 420.753906 241.734375 420.40625 241.804688 C 420.054688 241.875 419.703125 241.910156 419.34375 241.910156 C 418.988281 241.910156 418.632812 241.875 418.285156 241.804688 C 417.933594 241.734375 417.59375 241.632812 417.265625 241.496094 C 416.933594 241.359375 416.621094 241.191406 416.324219 240.992188 C 416.027344 240.792969 415.753906 240.570312 415.5 240.316406 C 415.25 240.066406 415.023438 239.789062 414.824219 239.492188 C 414.625 239.195312 414.460938 238.882812 414.324219 238.554688 C 414.1875 238.222656 414.082031 237.882812 414.011719 237.535156 C 413.945312 237.183594 413.910156 236.832031 413.910156 236.472656 C 413.910156 236.117188 413.945312 235.761719 414.011719 235.414062 C 414.082031 235.0625 414.1875 234.722656 414.324219 234.394531 C 414.460938 234.0625 414.625 233.75 414.824219 233.453125 C 415.023438 233.15625 415.25 232.882812 415.5 232.628906 C 415.753906 232.378906 416.027344 232.152344 416.324219 231.953125 C 416.621094 231.753906 416.933594 231.589844 417.265625 231.453125 C 417.59375 231.316406 417.933594 231.210938 418.285156 231.140625 C 418.632812 231.074219 418.988281 231.039062 419.34375 231.039062 C 419.703125 231.039062 420.054688 231.074219 420.40625 231.140625 C 420.753906 231.210938 421.09375 231.316406 421.425781 231.453125 C 421.753906 231.589844 422.066406 231.753906 422.363281 231.953125 C 422.660156 232.152344 422.9375 232.378906 423.1875 232.628906 C 423.441406 232.882812 423.664062 233.15625 423.863281 233.453125 C 424.0625 233.75 424.230469 234.0625 424.367188 234.394531 C 424.503906 234.722656 424.605469 235.0625 424.675781 235.414062 C 424.746094 235.761719 424.78125 236.117188 424.78125 236.472656 Z M 424.78125 236.472656 " fill-opacity="1" fill-rule="nonzero"/><path fill="#ffcb67" d="M 470.078125 236.472656 C 470.078125 236.832031 470.042969 237.183594 469.972656 237.535156 C 469.902344 237.882812 469.800781 238.222656 469.664062 238.554688 C 469.527344 238.882812 469.359375 239.195312 469.160156 239.492188 C 468.960938 239.789062 468.738281 240.066406 468.484375 240.316406 C 468.230469 240.570312 467.957031 240.792969 467.660156 240.992188 C 467.363281 241.191406 467.050781 241.359375 466.722656 241.496094 C 466.390625 241.632812 466.050781 241.734375 465.703125 241.804688 C 465.351562 241.875 464.996094 241.910156 464.640625 241.910156 C 464.285156 241.910156 463.929688 241.875 463.582031 241.804688 C 463.230469 241.734375 462.890625 241.632812 462.5625 241.496094 C 462.230469 241.359375 461.917969 241.191406 461.621094 240.992188 C 461.324219 240.792969 461.050781 240.570312 460.796875 240.316406 C 460.542969 240.066406 460.320312 239.789062 460.121094 239.492188 C 459.921875 239.195312 459.753906 238.882812 459.617188 238.554688 C 459.484375 238.222656 459.378906 237.882812 459.308594 237.535156 C 459.238281 237.183594 459.207031 236.832031 459.207031 236.472656 C 459.207031 236.117188 459.238281 235.761719 459.308594 235.414062 C 459.378906 235.0625 459.484375 234.722656 459.617188 234.394531 C 459.753906 234.0625 459.921875 233.75 460.121094 233.453125 C 460.320312 233.15625 460.542969 232.882812 460.796875 232.628906 C 461.050781 232.378906 461.324219 232.152344 461.621094 231.953125 C 461.917969 231.753906 462.230469 231.589844 462.5625 231.453125 C 462.890625 231.316406 463.230469 231.210938 463.582031 231.140625 C 463.929688 231.074219 464.285156 231.039062 464.640625 231.039062 C 464.996094 231.039062 465.351562 231.074219 465.703125 231.140625 C 466.050781 231.210938 466.390625 231.316406 466.722656 231.453125 C 467.050781 231.589844 467.363281 231.753906 467.660156 231.953125 C 467.957031 232.152344 468.230469 232.378906 468.484375 232.628906 C 468.738281 232.882812 468.960938 233.15625 469.160156 233.453125 C 469.359375 233.75 469.527344 234.0625 469.664062 234.394531 C 469.800781 234.722656 469.902344 235.0625 469.972656 235.414062 C 470.042969 235.761719 470.078125 236.117188 470.078125 236.472656 Z M 470.078125 236.472656 " fill-opacity="1" fill-rule="nonzero"/><path fill="#a46e49" d="M 603.246094 174.871094 L 700.179688 174.871094 C 700.179688 183.023438 706.523438 189.367188 714.675781 189.367188 L 714.675781 284.488281 C 706.523438 284.488281 700.179688 290.828125 700.179688 298.980469 L 603.246094 298.980469 C 603.246094 290.828125 596.90625 284.488281 588.753906 284.488281 L 588.753906 189.367188 C 596.90625 189.367188 603.246094 183.023438 603.246094 174.871094 Z M 603.246094 174.871094 " fill-opacity="1" fill-rule="nonzero"/><path fill="#000000" d="M 700.179688 174.871094 L 647.636719 174.871094 L 647.636719 298.078125 L 700.179688 298.078125 C 700.179688 289.921875 706.523438 283.582031 714.675781 283.582031 L 714.675781 189.367188 C 706.523438 189.367188 700.179688 183.023438 700.179688 174.871094 Z M 700.179688 174.871094 " fill-opacity="0.0588" fill-rule="nonzero"/><path fill="#ffcb67" d="M 609.589844 236.472656 C 609.589844 236.832031 609.554688 237.183594 609.484375 237.535156 C 609.414062 237.882812 609.3125 238.222656 609.175781 238.554688 C 609.039062 238.882812 608.871094 239.195312 608.671875 239.492188 C 608.472656 239.789062 608.25 240.066406 607.996094 240.316406 C 607.746094 240.570312 607.46875 240.792969 607.171875 240.992188 C 606.875 241.191406 606.5625 241.359375 606.234375 241.496094 C 605.902344 241.632812 605.5625 241.734375 605.214844 241.804688 C 604.863281 241.875 604.511719 241.910156 604.152344 241.910156 C 603.796875 241.910156 603.441406 241.875 603.09375 241.804688 C 602.742188 241.734375 602.402344 241.632812 602.074219 241.496094 C 601.742188 241.359375 601.429688 241.191406 601.132812 240.992188 C 600.835938 240.792969 600.5625 240.570312 600.308594 240.316406 C 600.058594 240.066406 599.832031 239.789062 599.632812 239.492188 C 599.433594 239.195312 599.269531 238.882812 599.132812 238.554688 C 598.996094 238.222656 598.890625 237.882812 598.820312 237.535156 C 598.753906 237.183594 598.71875 236.832031 598.71875 236.472656 C 598.71875 236.117188 598.753906 235.761719 598.820312 235.414062 C 598.890625 235.0625 598.996094 234.722656 599.132812 234.394531 C 599.269531 234.0625 599.433594 233.75 599.632812 233.453125 C 599.832031 233.15625 600.058594 232.882812 600.308594 232.628906 C 600.5625 232.378906 600.835938 232.152344 601.132812 231.953125 C 601.429688 231.753906 601.742188 231.589844 602.074219 231.453125 C 602.402344 231.316406 602.742188 231.210938 603.09375 231.140625 C 603.441406 231.074219 603.796875 231.039062 604.152344 231.039062 C 604.511719 231.039062 604.863281 231.074219 605.214844 231.140625 C 605.5625 231.210938 605.902344 231.316406 606.234375 231.453125 C 606.5625 231.589844 606.875 231.753906 607.171875 231.953125 C 607.46875 232.152344 607.746094 232.378906 607.996094 232.628906 C 608.25 232.882812 608.472656 233.15625 608.671875 233.453125 C 608.871094 233.75 609.039062 234.0625 609.175781 234.394531 C 609.3125 234.722656 609.414062 235.0625 609.484375 235.414062 C 609.554688 235.761719 609.589844 236.117188 609.589844 236.472656 Z M 609.589844 236.472656 " fill-opacity="1" fill-rule="nonzero"/></svg>