<svg xmlns="http://www.w3.org/2000/svg" xmlns:xlink="http://www.w3.org/1999/xlink" width="1366" zoomAndPan="magnify" viewBox="0 0 1024.5 576" height="768" preserveAspectRatio="xMidYMid meet" version="1.0"><defs><clipPath id="79ce7853dc"><path d="M 0 0.140625 L 1024 0.140625 L 1024 575.859375 L 0 575.859375 Z M 0 0.140625 " clip-rule="nonzero"/></clipPath><clipPath id="f3e42a0c75"><path d="M 258.089844 374 L 436 374 L 436 374.992188 L 258.089844 374.992188 Z M 258.089844 374 " clip-rule="nonzero"/></clipPath><clipPath id="326f6500a1"><path d="M 446 369 L 595 369 L 595 374.992188 L 446 374.992188 Z M 446 369 " clip-rule="nonzero"/></clipPath><clipPath id="44105d51c2"><path d="M 435 374 L 607 374 L 607 374.992188 L 435 374.992188 Z M 435 374 " clip-rule="nonzero"/></clipPath><clipPath id="43c54a94cd"><path d="M 606 374 L 706 374 L 706 374.992188 L 606 374.992188 Z M 606 374 " clip-rule="nonzero"/></clipPath><clipPath id="e2679f2322"><path d="M 685 317 L 707.339844 317 L 707.339844 343 L 685 343 Z M 685 317 " clip-rule="nonzero"/></clipPath><clipPath id="9ca4b08bfd"><path d="M 681 343 L 701 343 L 701 374.992188 L 681 374.992188 Z M 681 343 " clip-rule="nonzero"/></clipPath><clipPath id="b35768c5d4"><path d="M 635 342 L 678 342 L 678 374.992188 L 635 374.992188 Z M 635 342 " clip-rule="nonzero"/></clipPath><clipPath id="98bf83bb88"><path d="M 630 366 L 683 366 L 683 374.992188 L 630 374.992188 Z M 630 366 " clip-rule="nonzero"/></clipPath></defs><g clip-path="url(#79ce7853dc)"><path fill="#ffffff" d="M 0 0.140625 L 1024.5 0.140625 L 1024.5 576.140625 L 0 576.140625 Z M 0 0.140625 " fill-opacity="1" fill-rule="nonzero"/><path fill="#ffffff" d="M 0 0.140625 L 1024.5 0.140625 L 1024.5 576.140625 L 0 576.140625 Z M 0 0.140625 " fill-opacity="1" fill-rule="nonzero"/></g><path fill="#767687" d="M 305.800781 288.441406 L 300.410156 288.441406 C 298.527344 288.441406 297 286.917969 297 285.035156 L 297 238.632812 C 297 236.753906 298.527344 235.230469 300.410156 235.230469 L 305.800781 235.230469 C 307.683594 235.230469 309.207031 236.753906 309.207031 238.632812 L 309.207031 285.035156 C 309.207031 286.917969 307.683594 288.441406 305.800781 288.441406 " fill-opacity="1" fill-rule="nonzero"/><path fill="#767687" d="M 671.414062 288.441406 L 666.023438 288.441406 C 664.144531 288.441406 662.617188 286.917969 662.617188 285.035156 L 662.617188 238.632812 C 662.617188 236.753906 664.144531 235.226562 666.023438 235.226562 L 671.414062 235.226562 C 673.296875 235.226562 674.824219 236.753906 674.824219 238.632812 L 674.824219 285.035156 C 674.824219 286.917969 673.296875 288.441406 671.414062 288.441406 " fill-opacity="1" fill-rule="nonzero"/><path fill="#bf8673" d="M 690.96875 247.898438 L 280.855469 247.898438 C 279.4375 247.898438 278.289062 246.75 278.289062 245.335938 L 278.289062 237.789062 C 278.289062 236.375 279.4375 235.230469 280.855469 235.230469 L 690.96875 235.230469 C 692.386719 235.230469 693.535156 236.375 693.535156 237.789062 L 693.535156 245.335938 C 693.535156 246.75 692.386719 247.898438 690.96875 247.898438 " fill-opacity="1" fill-rule="nonzero"/><path fill="#eae8e8" d="M 326.753906 212.003906 C 319.144531 209.363281 319.355469 205.050781 319.355469 205.050781 C 319.355469 205.050781 403.070312 205.050781 403.070312 205.050781 C 403.070312 205.050781 403.28125 209.363281 395.671875 212.003906 L 326.753906 212.003906 " fill-opacity="1" fill-rule="nonzero"/><path fill="#ffd393" d="M 326.753906 216.648438 C 319.144531 214.007812 319.355469 209.699219 319.355469 209.699219 C 319.355469 209.699219 403.070312 209.699219 403.070312 209.699219 C 403.070312 209.699219 403.28125 214.007812 395.671875 216.648438 L 326.753906 216.648438 " fill-opacity="1" fill-rule="nonzero"/><path fill="#eae8e8" d="M 326.753906 221.292969 C 319.144531 218.65625 319.355469 214.34375 319.355469 214.34375 C 319.355469 214.34375 403.070312 214.34375 403.070312 214.34375 C 403.070312 214.34375 403.28125 218.65625 395.671875 221.292969 L 326.753906 221.292969 " fill-opacity="1" fill-rule="nonzero"/><path fill="#ffd393" d="M 326.753906 225.9375 C 319.144531 223.300781 319.355469 218.988281 319.355469 218.988281 C 319.355469 218.988281 403.070312 218.988281 403.070312 218.988281 C 403.070312 218.988281 403.28125 223.300781 395.671875 225.9375 L 326.753906 225.9375 " fill-opacity="1" fill-rule="nonzero"/><path fill="#eae8e8" d="M 326.753906 230.585938 C 319.144531 227.945312 319.355469 223.632812 319.355469 223.632812 C 319.355469 223.632812 403.070312 223.632812 403.070312 223.632812 C 403.070312 223.632812 403.28125 227.945312 395.671875 230.585938 L 326.753906 230.585938 " fill-opacity="1" fill-rule="nonzero"/><path fill="#ffd393" d="M 326.753906 235.226562 C 319.144531 232.589844 319.355469 228.277344 319.355469 228.277344 C 319.355469 228.277344 403.070312 228.277344 403.070312 228.277344 C 403.070312 228.277344 403.28125 232.589844 395.671875 235.226562 L 326.753906 235.226562 " fill-opacity="1" fill-rule="nonzero"/><path fill="#ffc280" d="M 674.34375 228.84375 C 674.078125 228.84375 673.867188 228.628906 673.867188 228.367188 C 673.867188 228.105469 674.078125 227.890625 674.34375 227.890625 C 678.335938 227.890625 681.871094 225.207031 682.9375 221.359375 L 683.597656 218.96875 C 683.835938 218.109375 683.664062 217.210938 683.125 216.5 C 682.582031 215.792969 681.761719 215.386719 680.871094 215.386719 L 677.761719 215.386719 C 677.5 215.386719 677.285156 215.171875 677.285156 214.910156 C 677.285156 214.648438 677.5 214.4375 677.761719 214.4375 L 680.871094 214.4375 C 682.0625 214.4375 683.160156 214.976562 683.882812 215.925781 C 684.605469 216.871094 684.835938 218.074219 684.519531 219.222656 L 683.855469 221.613281 C 682.675781 225.871094 678.761719 228.84375 674.34375 228.84375 " fill-opacity="1" fill-rule="nonzero"/><path fill="#ffd393" d="M 671.847656 235.226562 L 647.148438 235.226562 C 645.914062 235.226562 644.910156 234.230469 644.910156 232.996094 L 644.910156 232 C 644.910156 228.367188 643.832031 224.820312 641.8125 221.800781 L 636.03125 213.164062 L 678.3125 213.164062 L 676.007812 220.480469 C 674.734375 224.53125 674.082031 228.75 674.082031 232.996094 C 674.082031 234.230469 673.082031 235.226562 671.847656 235.226562 " fill-opacity="1" fill-rule="nonzero"/><path fill="#ffc280" d="M 642.796875 213.164062 L 636.03125 213.164062 L 641.8125 221.800781 C 643.832031 224.816406 644.914062 228.367188 644.914062 231.996094 L 644.914062 232.992188 C 644.914062 234.230469 645.910156 235.226562 647.148438 235.226562 L 651.675781 235.226562 C 651.675781 218.863281 642.796875 213.164062 642.796875 213.164062 " fill-opacity="1" fill-rule="nonzero"/><path fill="#cee3f5" d="M 464.785156 235.230469 L 431.199219 235.230469 C 430.257812 235.230469 429.496094 234.46875 429.496094 233.527344 L 429.496094 187.980469 C 429.496094 187.039062 430.257812 186.277344 431.199219 186.277344 L 464.785156 186.277344 C 465.726562 186.277344 466.488281 187.039062 466.488281 187.980469 L 466.488281 233.527344 C 466.488281 234.46875 465.726562 235.230469 464.785156 235.230469 " fill-opacity="1" fill-rule="nonzero"/><path fill="#ce9482" d="M 464.785156 186.277344 L 431.199219 186.277344 C 430.257812 186.277344 429.496094 187.039062 429.496094 187.980469 L 429.496094 193.128906 L 466.488281 193.128906 L 466.488281 187.980469 C 466.488281 187.039062 465.726562 186.277344 464.785156 186.277344 " fill-opacity="1" fill-rule="nonzero"/><path fill="#cee3f5" d="M 515.097656 235.230469 L 481.507812 235.230469 C 480.570312 235.230469 479.808594 234.46875 479.808594 233.527344 L 479.808594 187.980469 C 479.808594 187.039062 480.570312 186.277344 481.507812 186.277344 L 515.097656 186.277344 C 516.039062 186.277344 516.800781 187.039062 516.800781 187.980469 L 516.800781 233.527344 C 516.800781 234.46875 516.039062 235.230469 515.097656 235.230469 " fill-opacity="1" fill-rule="nonzero"/><path fill="#ce9482" d="M 515.097656 186.277344 L 481.507812 186.277344 C 480.570312 186.277344 479.808594 187.039062 479.808594 187.980469 L 479.808594 193.128906 L 516.800781 193.128906 L 516.800781 187.980469 C 516.800781 187.039062 516.039062 186.277344 515.097656 186.277344 " fill-opacity="1" fill-rule="nonzero"/><path fill="#ffd393" d="M 438.019531 230.585938 L 438.019531 228.367188 C 426.605469 224.566406 425.335938 216.683594 425.335938 216.683594 L 513.84375 216.683594 C 513.84375 216.683594 512.574219 224.566406 501.160156 228.367188 L 501.160156 230.585938 L 438.019531 230.585938 " fill-opacity="1" fill-rule="nonzero"/><path fill="#eae8e8" d="M 438.019531 235.230469 L 438.019531 233.011719 C 426.605469 229.210938 425.335938 221.328125 425.335938 221.328125 L 513.84375 221.328125 C 513.84375 221.328125 512.574219 229.210938 501.160156 233.011719 L 501.160156 235.230469 L 438.019531 235.230469 " fill-opacity="1" fill-rule="nonzero"/><path fill="#bdd1f5" d="M 574.28125 191.082031 L 574.28125 179.921875 L 565.570312 179.921875 L 565.570312 191.082031 C 565.570312 193.425781 564.167969 195.539062 562.007812 196.453125 L 561.554688 196.644531 C 557.664062 198.289062 555.136719 202.101562 555.136719 206.320312 L 555.136719 231.902344 C 555.136719 233.738281 556.628906 235.230469 558.46875 235.230469 L 581.386719 235.230469 C 583.226562 235.230469 584.71875 233.738281 584.71875 231.902344 L 584.71875 206.320312 C 584.71875 202.101562 582.191406 198.289062 578.300781 196.644531 L 577.84375 196.453125 C 575.6875 195.539062 574.28125 193.425781 574.28125 191.082031 " fill-opacity="1" fill-rule="nonzero"/><path fill="#ce9482" d="M 574.585938 182.320312 L 565.269531 182.320312 C 564.375 182.320312 563.65625 181.597656 563.65625 180.707031 L 563.65625 179.160156 C 563.65625 178.269531 564.375 177.550781 565.269531 177.550781 L 574.585938 177.550781 C 575.476562 177.550781 576.199219 178.269531 576.199219 179.160156 L 576.199219 180.707031 C 576.199219 181.597656 575.476562 182.320312 574.585938 182.320312 " fill-opacity="1" fill-rule="nonzero"/><path fill="#aec7f5" d="M 558.46875 235.230469 L 581.386719 235.230469 C 583.226562 235.230469 584.71875 233.742188 584.71875 231.898438 L 584.71875 207.574219 L 555.136719 207.574219 L 555.136719 231.898438 C 555.136719 233.742188 556.628906 235.230469 558.46875 235.230469 " fill-opacity="1" fill-rule="nonzero"/><path fill="#cee3f5" d="M 616.335938 235.230469 L 581.902344 235.230469 C 580.984375 235.230469 580.238281 234.484375 580.238281 233.566406 L 580.238281 198.363281 C 580.238281 193.582031 584.117188 189.707031 588.902344 189.707031 L 609.335938 189.707031 C 614.125 189.707031 618.003906 193.582031 618.003906 198.363281 L 618.003906 233.566406 C 618.003906 234.484375 617.257812 235.230469 616.335938 235.230469 " fill-opacity="1" fill-rule="nonzero"/><path fill="#cee3f5" d="M 595.109375 184.605469 L 608.757812 184.605469 C 609.3125 184.605469 609.761719 185.050781 609.761719 185.601562 L 609.761719 192.808594 C 609.761719 193.359375 609.3125 193.808594 608.757812 193.808594 L 589.484375 193.808594 C 588.929688 193.808594 588.480469 193.359375 588.480469 192.808594 L 588.480469 185.601562 C 588.480469 185.050781 588.929688 184.605469 589.484375 184.605469 L 595.109375 184.605469 " fill-opacity="1" fill-rule="nonzero"/><path fill="#ce9482" d="M 594.53125 183.558594 L 610.292969 183.558594 C 610.847656 183.558594 611.296875 184.003906 611.296875 184.558594 L 611.296875 185.847656 C 611.296875 186.402344 610.847656 186.851562 610.292969 186.851562 L 587.945312 186.851562 C 587.390625 186.851562 586.945312 186.402344 586.945312 185.847656 L 586.945312 184.558594 C 586.945312 184.003906 587.390625 183.558594 587.945312 183.558594 L 594.53125 183.558594 " fill-opacity="1" fill-rule="nonzero"/><path fill="#bdd1f5" d="M 580.238281 215.976562 L 580.238281 233.566406 C 580.238281 234.484375 580.980469 235.230469 581.902344 235.230469 L 616.335938 235.230469 C 617.257812 235.230469 618 234.484375 618 233.566406 L 618 215.976562 L 580.238281 215.976562 " fill-opacity="1" fill-rule="nonzero"/><path fill="#cee3f5" d="M 552.328125 194.386719 L 552.328125 184.0625 L 541.335938 184.0625 L 541.335938 194.386719 C 541.335938 196.550781 540.035156 198.511719 538.039062 199.355469 L 537.621094 199.53125 C 534.023438 201.054688 531.679688 204.582031 531.679688 208.484375 L 531.679688 232.148438 C 531.679688 233.851562 533.0625 235.230469 534.765625 235.230469 L 558.898438 235.230469 C 560.601562 235.230469 561.984375 233.851562 561.984375 232.148438 L 561.984375 208.484375 C 561.984375 204.582031 559.644531 201.054688 556.042969 199.53125 L 555.625 199.355469 C 553.628906 198.511719 552.328125 196.550781 552.328125 194.386719 " fill-opacity="1" fill-rule="nonzero"/><path fill="#ce9482" d="M 552.613281 186.277344 L 541.054688 186.277344 C 540.230469 186.277344 539.5625 185.609375 539.5625 184.785156 L 539.5625 183.355469 C 539.5625 182.53125 540.230469 181.867188 541.054688 181.867188 L 552.613281 181.867188 C 553.4375 181.867188 554.101562 182.53125 554.101562 183.355469 L 554.101562 184.785156 C 554.101562 185.609375 553.4375 186.277344 552.613281 186.277344 " fill-opacity="1" fill-rule="nonzero"/><path fill="#bdd1f5" d="M 534.765625 235.230469 L 558.898438 235.230469 C 560.601562 235.230469 561.984375 233.851562 561.984375 232.152344 L 561.984375 209.644531 L 531.683594 209.644531 L 531.683594 232.152344 C 531.683594 233.851562 533.0625 235.230469 534.765625 235.230469 " fill-opacity="1" fill-rule="nonzero"/><path fill="#767687" d="M 305.800781 208.46875 L 300.410156 208.46875 C 298.527344 208.46875 297 206.941406 297 205.0625 L 297 158.660156 C 297 156.78125 298.527344 155.257812 300.410156 155.257812 L 305.800781 155.257812 C 307.683594 155.257812 309.207031 156.78125 309.207031 158.660156 L 309.207031 205.0625 C 309.207031 206.941406 307.683594 208.46875 305.800781 208.46875 " fill-opacity="1" fill-rule="nonzero"/><path fill="#767687" d="M 671.414062 208.464844 L 666.023438 208.464844 C 664.144531 208.464844 662.617188 206.941406 662.617188 205.0625 L 662.617188 158.660156 C 662.617188 156.777344 664.144531 155.253906 666.023438 155.253906 L 671.414062 155.253906 C 673.296875 155.253906 674.824219 156.777344 674.824219 158.660156 L 674.824219 205.0625 C 674.824219 206.941406 673.296875 208.464844 671.414062 208.464844 " fill-opacity="1" fill-rule="nonzero"/><path fill="#bf8673" d="M 690.96875 167.921875 L 280.855469 167.921875 C 279.4375 167.921875 278.289062 166.777344 278.289062 165.363281 L 278.289062 157.816406 C 278.289062 156.402344 279.4375 155.253906 280.855469 155.253906 L 690.96875 155.253906 C 692.386719 155.253906 693.535156 156.402344 693.535156 157.816406 L 693.535156 165.363281 C 693.535156 166.777344 692.386719 167.921875 690.96875 167.921875 " fill-opacity="1" fill-rule="nonzero"/><path fill="#cee3f5" d="M 438.929688 155.257812 L 414.140625 155.257812 C 413.046875 155.257812 412.160156 154.367188 412.160156 153.273438 L 412.160156 123.636719 L 440.910156 123.636719 L 440.910156 153.273438 C 440.910156 154.367188 440.023438 155.257812 438.929688 155.257812 " fill-opacity="1" fill-rule="nonzero"/><path fill="#d7eaf5" d="M 414.140625 155.253906 L 438.929688 155.253906 C 440.023438 155.253906 440.910156 154.367188 440.910156 153.277344 L 440.910156 142.734375 C 440.910156 142.734375 432.710938 142.921875 427.261719 142.265625 C 421.8125 141.609375 412.160156 142.734375 412.160156 142.734375 L 412.160156 153.277344 C 412.160156 154.367188 413.046875 155.253906 414.140625 155.253906 " fill-opacity="1" fill-rule="nonzero"/><path fill="#cee3f5" d="M 440.910156 122.089844 L 412.160156 122.089844 C 415.257812 119.949219 418.933594 118.804688 422.699219 118.804688 L 430.371094 118.804688 C 434.136719 118.804688 437.8125 119.949219 440.910156 122.089844 " fill-opacity="1" fill-rule="nonzero"/><path fill="#bdd1f5" d="M 429.496094 115.847656 C 429.496094 117.480469 428.167969 118.804688 426.535156 118.804688 C 424.902344 118.804688 423.574219 117.480469 423.574219 115.847656 C 423.574219 114.214844 424.902344 112.890625 426.535156 112.890625 C 428.167969 112.890625 429.496094 114.214844 429.496094 115.847656 " fill-opacity="1" fill-rule="nonzero"/><path fill="#bdd1f5" d="M 441.777344 123.636719 L 411.289062 123.636719 C 410.863281 123.636719 410.515625 123.289062 410.515625 122.863281 C 410.515625 122.433594 410.863281 122.089844 411.289062 122.089844 L 441.777344 122.089844 C 442.207031 122.089844 442.554688 122.433594 442.554688 122.863281 C 442.554688 123.289062 442.207031 123.636719 441.777344 123.636719 " fill-opacity="1" fill-rule="nonzero"/><path fill="#cee3f5" d="M 475.921875 155.257812 L 451.136719 155.257812 C 450.042969 155.257812 449.15625 154.367188 449.15625 153.273438 L 449.15625 123.636719 L 477.90625 123.636719 L 477.90625 153.273438 C 477.90625 154.367188 477.019531 155.257812 475.921875 155.257812 " fill-opacity="1" fill-rule="nonzero"/><path fill="#d7eaf5" d="M 451.136719 155.257812 L 475.921875 155.257812 C 477.015625 155.257812 477.902344 154.371094 477.902344 153.277344 L 477.902344 133.488281 C 477.902344 133.488281 473.371094 139.808594 462.683594 140.597656 C 455.074219 141.160156 449.15625 142.734375 449.15625 142.734375 L 449.15625 153.277344 C 449.15625 154.371094 450.042969 155.257812 451.136719 155.257812 " fill-opacity="1" fill-rule="nonzero"/><path fill="#cee3f5" d="M 477.902344 122.089844 L 449.15625 122.089844 C 452.253906 119.949219 455.929688 118.804688 459.695312 118.804688 L 467.367188 118.804688 C 471.132812 118.804688 474.808594 119.949219 477.902344 122.089844 " fill-opacity="1" fill-rule="nonzero"/><path fill="#bdd1f5" d="M 466.488281 115.847656 C 466.488281 117.480469 465.164062 118.804688 463.53125 118.804688 C 461.894531 118.804688 460.570312 117.480469 460.570312 115.847656 C 460.570312 114.214844 461.894531 112.890625 463.53125 112.890625 C 465.164062 112.890625 466.488281 114.214844 466.488281 115.847656 " fill-opacity="1" fill-rule="nonzero"/><path fill="#bdd1f5" d="M 478.773438 123.636719 L 448.285156 123.636719 C 447.855469 123.636719 447.511719 123.289062 447.511719 122.863281 C 447.511719 122.433594 447.855469 122.089844 448.285156 122.089844 L 478.773438 122.089844 C 479.203125 122.089844 479.546875 122.433594 479.546875 122.863281 C 479.546875 123.289062 479.203125 123.636719 478.773438 123.636719 " fill-opacity="1" fill-rule="nonzero"/><path fill="#e2cfcf" d="M 519.828125 155.257812 L 494.050781 155.257812 C 492.957031 155.257812 492.070312 154.367188 492.070312 153.277344 L 492.070312 101.113281 L 521.808594 101.113281 L 521.808594 153.277344 C 521.808594 154.367188 520.921875 155.257812 519.828125 155.257812 " fill-opacity="1" fill-rule="nonzero"/><path fill="#ce9482" d="M 521.808594 105.617188 L 492.070312 105.617188 L 492.070312 101.113281 L 521.808594 101.113281 L 521.808594 105.617188 " fill-opacity="1" fill-rule="nonzero"/><path fill="#d8bcbc" d="M 506.328125 126.640625 C 506.328125 129.414062 503.132812 131.660156 499.199219 131.660156 C 495.261719 131.660156 492.066406 129.414062 492.066406 126.640625 C 492.066406 123.867188 495.261719 121.617188 499.199219 121.617188 C 503.132812 121.617188 506.328125 123.867188 506.328125 126.640625 " fill-opacity="1" fill-rule="nonzero"/><path fill="#d8bcbc" d="M 519.128906 145.421875 C 519.128906 148.195312 515.9375 150.441406 512 150.441406 C 508.0625 150.441406 504.871094 148.195312 504.871094 145.421875 C 504.871094 142.648438 508.0625 140.398438 512 140.398438 C 515.9375 140.398438 519.128906 142.648438 519.128906 145.421875 " fill-opacity="1" fill-rule="nonzero"/><path fill="#d8bcbc" d="M 521.191406 130.566406 C 519.660156 132.882812 515.757812 133 512.472656 130.828125 C 509.1875 128.660156 507.769531 125.023438 509.300781 122.710938 C 510.832031 120.398438 514.738281 120.28125 518.019531 122.453125 C 521.304688 124.621094 522.722656 128.253906 521.191406 130.566406 " fill-opacity="1" fill-rule="nonzero"/><path fill="#ceaeae" d="M 516 138.40625 C 514.46875 140.71875 510.566406 140.835938 507.28125 138.664062 C 503.996094 136.496094 502.578125 132.863281 504.109375 130.546875 C 505.640625 128.234375 509.546875 128.117188 512.828125 130.289062 C 516.113281 132.460938 517.535156 136.089844 516 138.40625 " fill-opacity="1" fill-rule="nonzero"/><path fill="#ceaeae" d="M 506.734375 151.960938 C 505.203125 154.273438 501.300781 154.390625 498.015625 152.222656 C 494.730469 150.050781 493.3125 146.417969 494.84375 144.105469 C 496.375 141.792969 500.277344 141.675781 503.5625 143.84375 C 506.847656 146.011719 508.265625 149.648438 506.734375 151.960938 " fill-opacity="1" fill-rule="nonzero"/><path fill="#d8bcbc" d="M 505.835938 134.296875 C 506.847656 136.878906 504.699219 140.136719 501.035156 141.570312 C 497.367188 143.007812 493.574219 142.078125 492.5625 139.496094 C 491.546875 136.914062 493.695312 133.65625 497.363281 132.21875 C 501.027344 130.785156 504.820312 131.714844 505.835938 134.296875 " fill-opacity="1" fill-rule="nonzero"/><path fill="#e2cfcf" d="M 618.160156 155.257812 L 592.382812 155.257812 C 591.289062 155.257812 590.402344 154.367188 590.402344 153.277344 L 590.402344 101.113281 L 620.144531 101.113281 L 620.144531 153.277344 C 620.144531 154.367188 619.253906 155.257812 618.160156 155.257812 " fill-opacity="1" fill-rule="nonzero"/><path fill="#ce9482" d="M 620.144531 105.617188 L 590.402344 105.617188 L 590.402344 101.113281 L 620.144531 101.113281 L 620.144531 105.617188 " fill-opacity="1" fill-rule="nonzero"/><path fill="#d8bcbc" d="M 604.65625 126.640625 C 604.65625 129.414062 601.464844 131.660156 597.527344 131.660156 C 593.589844 131.660156 590.398438 129.414062 590.398438 126.640625 C 590.398438 123.867188 593.589844 121.617188 597.527344 121.617188 C 601.464844 121.617188 604.65625 123.867188 604.65625 126.640625 " fill-opacity="1" fill-rule="nonzero"/><path fill="#d8bcbc" d="M 617.460938 145.421875 C 617.460938 148.195312 614.265625 150.441406 610.328125 150.441406 C 606.394531 150.441406 603.199219 148.195312 603.199219 145.421875 C 603.199219 142.648438 606.394531 140.398438 610.328125 140.398438 C 614.265625 140.398438 617.460938 142.648438 617.460938 145.421875 " fill-opacity="1" fill-rule="nonzero"/><path fill="#d8bcbc" d="M 619.523438 130.566406 C 617.992188 132.882812 614.085938 133 610.804688 130.828125 C 607.519531 128.660156 606.101562 125.023438 607.632812 122.710938 C 609.164062 120.398438 613.070312 120.28125 616.351562 122.453125 C 619.632812 124.621094 621.054688 128.253906 619.523438 130.566406 " fill-opacity="1" fill-rule="nonzero"/><path fill="#ceaeae" d="M 614.332031 138.40625 C 612.800781 140.71875 608.894531 140.835938 605.613281 138.664062 C 602.328125 136.496094 600.90625 132.863281 602.441406 130.546875 C 603.972656 128.234375 607.878906 128.117188 611.160156 130.289062 C 614.445312 132.460938 615.867188 136.089844 614.332031 138.40625 " fill-opacity="1" fill-rule="nonzero"/><path fill="#ceaeae" d="M 605.066406 151.960938 C 603.535156 154.273438 599.628906 154.390625 596.34375 152.222656 C 593.0625 150.050781 591.640625 146.417969 593.175781 144.105469 C 594.707031 141.792969 598.613281 141.675781 601.898438 143.84375 C 605.179688 146.011719 606.597656 149.648438 605.066406 151.960938 " fill-opacity="1" fill-rule="nonzero"/><path fill="#d8bcbc" d="M 604.167969 134.296875 C 605.179688 136.878906 603.03125 140.136719 599.363281 141.570312 C 595.699219 143.007812 591.90625 142.078125 590.894531 139.496094 C 589.878906 136.914062 592.027344 133.65625 595.695312 132.21875 C 599.359375 130.785156 603.152344 131.714844 604.167969 134.296875 " fill-opacity="1" fill-rule="nonzero"/><path fill="#e2cfcf" d="M 658.386719 155.257812 L 632.609375 155.257812 C 631.511719 155.257812 630.625 154.367188 630.625 153.277344 L 630.625 101.113281 L 660.367188 101.113281 L 660.367188 153.277344 C 660.367188 154.367188 659.480469 155.257812 658.386719 155.257812 " fill-opacity="1" fill-rule="nonzero"/><path fill="#ce9482" d="M 660.367188 105.617188 L 630.625 105.617188 L 630.625 101.113281 L 660.367188 101.113281 L 660.367188 105.617188 " fill-opacity="1" fill-rule="nonzero"/><path fill="#ffd393" d="M 632.609375 155.253906 L 658.386719 155.253906 C 659.480469 155.253906 660.367188 154.367188 660.367188 153.277344 L 660.367188 109.699219 L 657.734375 109.699219 L 656.609375 115.03125 L 653.789062 115.03125 L 655.199219 109.699219 L 645.496094 109.699219 L 642.796875 115.03125 L 640.824219 115.03125 L 642.230469 109.699219 L 635.75 109.699219 L 630.625 130.253906 L 630.625 153.277344 C 630.625 154.367188 631.511719 155.253906 632.609375 155.253906 " fill-opacity="1" fill-rule="nonzero"/><path fill="#ffc280" d="M 638.566406 109.699219 C 638.097656 112.308594 637.535156 114.890625 636.941406 117.464844 C 636.652344 118.757812 636.332031 120.039062 636.023438 121.324219 L 635.058594 125.167969 C 634.398438 127.726562 633.699219 130.277344 632.96875 132.820312 C 632.242188 135.355469 631.476562 137.890625 630.625 140.398438 C 631.09375 137.792969 631.65625 135.207031 632.25 132.632812 C 632.847656 130.054688 633.472656 127.488281 634.136719 124.933594 L 635.152344 121.101562 C 635.511719 119.828125 635.851562 118.550781 636.226562 117.28125 C 636.953125 114.742188 637.714844 112.207031 638.566406 109.699219 " fill-opacity="1" fill-rule="nonzero"/><path fill="#ffc280" d="M 640.820312 115.03125 C 640.164062 118.269531 639.414062 121.484375 638.628906 124.6875 C 638.25 126.292969 637.832031 127.890625 637.433594 129.488281 L 636.183594 134.277344 C 635.335938 137.464844 634.449219 140.640625 633.53125 143.808594 C 632.617188 146.980469 631.664062 150.140625 630.625 153.277344 C 631.285156 150.039062 632.03125 146.824219 632.816406 143.621094 C 633.597656 140.417969 634.414062 137.21875 635.265625 134.03125 L 636.566406 129.257812 C 637.015625 127.671875 637.449219 126.082031 637.917969 124.5 C 638.832031 121.328125 639.785156 118.167969 640.820312 115.03125 " fill-opacity="1" fill-rule="nonzero"/><path fill="#ffc280" d="M 647.023438 109.699219 C 646.011719 113.554688 644.90625 117.382812 643.773438 121.199219 C 643.214844 123.113281 642.625 125.011719 642.042969 126.917969 L 640.269531 132.621094 L 638.441406 138.308594 C 637.816406 140.199219 637.207031 142.09375 636.566406 143.980469 C 635.300781 147.753906 633.996094 151.519531 632.609375 155.253906 C 633.617188 151.398438 634.722656 147.570312 635.859375 143.757812 C 636.414062 141.84375 637.007812 139.941406 637.582031 138.035156 L 639.363281 132.335938 L 641.191406 126.648438 C 641.816406 124.757812 642.425781 122.863281 643.070312 120.976562 C 644.335938 117.203125 645.636719 113.4375 647.023438 109.699219 " fill-opacity="1" fill-rule="nonzero"/><path fill="#ffc280" d="M 650.792969 109.699219 C 649.78125 113.554688 648.679688 117.382812 647.542969 121.199219 C 646.984375 123.113281 646.394531 125.011719 645.816406 126.917969 L 644.039062 132.621094 L 642.214844 138.308594 C 641.589844 140.199219 640.980469 142.09375 640.335938 143.980469 C 639.070312 147.753906 637.765625 151.519531 636.378906 155.253906 C 637.394531 151.398438 638.496094 147.570312 639.628906 143.757812 C 640.1875 141.84375 640.78125 139.941406 641.355469 138.035156 L 643.132812 132.335938 L 644.960938 126.648438 C 645.585938 124.757812 646.199219 122.863281 646.839844 120.976562 C 648.109375 117.203125 649.40625 113.4375 650.792969 109.699219 " fill-opacity="1" fill-rule="nonzero"/><path fill="#ffc280" d="M 655.238281 109.699219 C 654.226562 113.554688 653.125 117.382812 651.988281 121.199219 C 651.429688 123.113281 650.839844 125.011719 650.261719 126.917969 L 648.484375 132.621094 L 646.660156 138.308594 C 646.035156 140.199219 645.421875 142.09375 644.78125 143.980469 C 643.515625 147.753906 642.210938 151.519531 640.824219 155.253906 C 641.835938 151.398438 642.9375 147.570312 644.074219 143.757812 C 644.632812 141.84375 645.222656 139.941406 645.800781 138.035156 L 647.578125 132.335938 L 649.40625 126.648438 C 650.03125 124.757812 650.640625 122.863281 651.285156 120.976562 C 652.550781 117.203125 653.851562 113.4375 655.238281 109.699219 " fill-opacity="1" fill-rule="nonzero"/><path fill="#ffc280" d="M 656.605469 115.03125 C 655.761719 118.441406 654.824219 121.824219 653.855469 125.199219 C 653.378906 126.886719 652.871094 128.566406 652.375 130.25 L 650.851562 135.28125 L 649.273438 140.304688 C 648.730469 141.972656 648.207031 143.648438 647.644531 145.3125 C 646.542969 148.644531 645.410156 151.964844 644.183594 155.257812 C 645.03125 151.84375 645.96875 148.464844 646.933594 145.09375 C 647.410156 143.402344 647.921875 141.722656 648.414062 140.039062 L 649.941406 135.003906 L 651.519531 129.984375 C 652.0625 128.316406 652.585938 126.644531 653.148438 124.980469 C 654.25 121.648438 655.382812 118.324219 656.605469 115.03125 " fill-opacity="1" fill-rule="nonzero"/><path fill="#ffc280" d="M 660.367188 118.546875 C 659.609375 121.664062 658.765625 124.753906 657.886719 127.832031 C 657.457031 129.375 656.992188 130.90625 656.542969 132.445312 L 655.152344 137.042969 C 654.210938 140.101562 653.226562 143.148438 652.21875 146.1875 C 651.207031 149.226562 650.164062 152.257812 649.027344 155.257812 C 649.78125 152.136719 650.628906 149.050781 651.507812 145.96875 C 652.386719 142.890625 653.296875 139.820312 654.242188 136.761719 L 655.683594 132.179688 C 656.179688 130.660156 656.664062 129.132812 657.179688 127.617188 C 658.191406 124.574219 659.234375 121.546875 660.367188 118.546875 " fill-opacity="1" fill-rule="nonzero"/><path fill="#ffc280" d="M 660.460938 131.660156 C 660.042969 133.6875 659.53125 135.683594 658.992188 137.671875 C 658.734375 138.664062 658.4375 139.648438 658.15625 140.644531 C 657.871094 141.628906 657.570312 142.613281 657.273438 143.597656 C 656.667969 145.566406 656.023438 147.523438 655.351562 149.46875 C 654.675781 151.414062 653.972656 153.347656 653.175781 155.257812 C 653.59375 153.234375 654.101562 151.238281 654.644531 149.25 C 655.183594 147.261719 655.753906 145.285156 656.363281 143.320312 C 656.675781 142.335938 656.980469 141.355469 657.300781 140.375 C 657.628906 139.402344 657.941406 138.421875 658.285156 137.453125 C 658.960938 135.507812 659.664062 133.570312 660.460938 131.660156 " fill-opacity="1" fill-rule="nonzero"/><path fill="#ffc280" d="M 660.367188 143.769531 C 660.257812 144.78125 660.0625 145.769531 659.835938 146.75 C 659.605469 147.726562 659.34375 148.691406 659.046875 149.648438 C 658.75 150.609375 658.425781 151.558594 658.066406 152.492188 C 657.699219 153.429688 657.304688 154.355469 656.820312 155.257812 C 656.925781 154.238281 657.121094 153.25 657.347656 152.273438 C 657.578125 151.296875 657.84375 150.328125 658.136719 149.371094 C 658.4375 148.414062 658.761719 147.46875 659.125 146.53125 C 659.488281 145.59375 659.882812 144.667969 660.367188 143.769531 " fill-opacity="1" fill-rule="nonzero"/><path fill="#eae8e8" d="M 359.816406 126.328125 C 359.816406 126.328125 364.175781 135.890625 358.019531 149.0625 C 356.253906 152.84375 352.445312 155.257812 348.269531 155.257812 L 324.574219 155.257812 C 320.394531 155.257812 316.589844 152.84375 314.820312 149.0625 C 308.664062 135.890625 313.027344 126.328125 313.027344 126.328125 L 359.816406 126.328125 " fill-opacity="1" fill-rule="nonzero"/><path fill="#e3d3d3" d="M 359.816406 126.328125 C 359.816406 127.027344 349.339844 127.597656 336.421875 127.597656 C 323.5 127.597656 313.027344 127.027344 313.027344 126.328125 C 313.027344 125.628906 323.5 125.0625 336.421875 125.0625 C 349.339844 125.0625 359.816406 125.628906 359.816406 126.328125 " fill-opacity="1" fill-rule="nonzero"/><path fill="#5d915d" d="M 347.601562 111.335938 C 347.601562 109.527344 347.089844 104.914062 341.199219 104.789062 C 335.308594 104.667969 335.082031 110.746094 335.082031 110.746094 C 333.875 109.734375 327.683594 110.449219 324.675781 112.484375 C 321.671875 114.519531 323.078125 119.242188 323.078125 119.242188 C 323.078125 119.242188 319.320312 117.929688 318.371094 120.726562 C 317.421875 123.519531 319.421875 127.199219 319.421875 127.199219 C 323.6875 127.441406 329.726562 127.59375 336.421875 127.59375 C 344.289062 127.59375 351.253906 127.382812 355.492188 127.058594 C 355.929688 126.574219 356.3125 126.023438 356.527344 125.433594 C 357.277344 123.371094 355.777344 121.144531 355.777344 121.144531 C 356.339844 115.628906 347.601562 111.335938 347.601562 111.335938 " fill-opacity="1" fill-rule="nonzero"/><path fill="#659c65" d="M 326.925781 109.960938 C 325.402344 108.4375 322.445312 105.410156 320.917969 103.886719 C 320.699219 103.667969 320.445312 103.433594 320.132812 103.4375 C 319.824219 103.441406 319.546875 103.855469 319.777344 104.070312 C 318.519531 101.976562 316.464844 100.390625 314.132812 99.675781 C 313.507812 99.480469 312.957031 100.183594 313.332031 100.71875 C 313.375 100.78125 313.421875 100.835938 313.476562 100.890625 C 312.472656 100.535156 311.699219 99.742188 310.890625 99.050781 C 310.082031 98.359375 309.117188 97.714844 308.054688 97.753906 C 306.992188 97.789062 305.933594 98.832031 306.261719 99.84375 C 305.34375 98.464844 303.742188 97.570312 302.085938 97.503906 C 301.140625 97.472656 299.917969 98.472656 300.621094 99.105469 C 299.152344 99.164062 297.667969 98.753906 296.433594 97.957031 C 295.953125 97.648438 295.460938 97.261719 294.890625 97.277344 C 293.917969 97.308594 293.433594 98.820312 294.210938 99.40625 C 292.960938 99.078125 291.6875 98.847656 290.402344 98.710938 C 289.222656 98.589844 287.503906 99.21875 287.945312 100.316406 C 285.449219 99.761719 282.839844 99.710938 280.324219 100.164062 C 279.785156 100.261719 279.546875 100.894531 279.878906 101.324219 L 280.191406 101.726562 C 278.289062 101.207031 276.128906 101.933594 274.84375 103.410156 C 274.457031 103.859375 274.578125 104.546875 275.101562 104.820312 L 275.472656 105.019531 C 274.261719 105.769531 273.050781 106.519531 271.839844 107.269531 C 271.082031 107.742188 270.214844 108.394531 270.421875 109.339844 C 270.53125 109.839844 270.933594 110.21875 271.421875 110.371094 C 272.40625 110.683594 273.335938 110.265625 274.207031 109.851562 C 275.894531 109.0625 277.578125 108.269531 279.265625 107.480469 C 278.75 108.234375 278.257812 109.359375 279.082031 109.925781 C 279.484375 110.207031 280.015625 110.210938 280.445312 109.980469 C 282.816406 108.683594 285.054688 107.152344 287.125 105.417969 C 286.265625 105.847656 286.605469 107.296875 287.480469 107.683594 C 288.355469 108.074219 289.371094 107.746094 290.257812 107.378906 C 292.191406 106.585938 294.050781 105.613281 295.808594 104.480469 C 294.882812 105.316406 295.625 107.027344 296.816406 107.390625 C 298.011719 107.753906 299.28125 107.207031 300.351562 106.570312 C 301.425781 105.933594 302.496094 105.171875 303.738281 105.0625 L 303.632812 105.371094 C 303.476562 105.835938 303.757812 106.328125 304.238281 106.441406 C 306.203125 106.898438 308.242188 107.027344 310.25 106.820312 C 309.316406 106.792969 309.113281 108.316406 309.84375 108.890625 C 310.574219 109.464844 311.617188 109.339844 312.53125 109.179688 C 313.847656 108.957031 315.160156 108.730469 316.472656 108.507812 C 316.0625 108.691406 316.0625 109.332031 316.371094 109.660156 C 316.675781 109.988281 317.15625 110.085938 317.601562 110.148438 C 319.496094 110.417969 321.433594 110.382812 323.316406 110.042969 C 324.257812 111.011719 326.035156 110.972656 326.925781 109.960938 " fill-opacity="1" fill-rule="nonzero"/><path fill="#5d915d" d="M 327.683594 110.925781 C 327.589844 110.925781 327.496094 110.898438 327.414062 110.84375 C 327.363281 110.808594 322.121094 107.261719 313.664062 104.714844 C 305.875 102.363281 293.679688 100.402344 279.828125 104.402344 C 279.574219 104.476562 279.3125 104.328125 279.238281 104.078125 C 279.164062 103.828125 279.3125 103.5625 279.5625 103.492188 C 285.785156 101.691406 292.199219 100.921875 298.628906 101.191406 C 303.769531 101.410156 308.933594 102.292969 313.972656 103.8125 C 322.558594 106.410156 327.898438 110.023438 327.953125 110.058594 C 328.167969 110.207031 328.222656 110.503906 328.074219 110.71875 C 327.984375 110.855469 327.835938 110.925781 327.683594 110.925781 " fill-opacity="1" fill-rule="nonzero"/><path fill="#84b685" d="M 330.75 111.339844 C 330.457031 108.984375 330.164062 105.542969 329.875 103.1875 C 329.777344 102.414062 329.625 101.542969 328.972656 101.109375 C 328.324219 100.671875 327.160156 101.28125 327.472656 102 C 326.320312 99.699219 325.730469 97.523438 324.445312 95.480469 C 323.964844 94.714844 322.929688 94.496094 322.183594 95.003906 C 321.984375 95.136719 321.847656 95.277344 321.835938 95.421875 C 321.324219 92.820312 320.480469 90.40625 318.84375 88.394531 C 318.402344 87.851562 317.589844 87.746094 317.058594 88.195312 C 316.953125 88.285156 316.878906 88.382812 316.84375 88.488281 C 316.253906 86.199219 315.195312 84.039062 313.746094 82.175781 C 313.355469 81.667969 312.894531 81.160156 312.273438 80.996094 C 311.652344 80.839844 310.859375 81.214844 310.820312 81.851562 C 310.441406 79.59375 309.925781 77.59375 308.492188 76.117188 C 307.972656 75.585938 307.171875 75.4375 306.503906 75.757812 C 306.195312 75.910156 305.863281 76.042969 305.699219 76.164062 C 304.976562 74.253906 304.027344 72.390625 302.585938 71.027344 C 301.898438 70.375 300.765625 70.652344 300.4375 71.539062 L 300.417969 71.59375 C 299.019531 70.355469 297.09375 69.730469 295.230469 69.917969 C 295.078125 69.933594 294.925781 69.976562 294.792969 70.054688 C 294.148438 70.414062 294.34375 71.148438 294.585938 71.703125 C 295.175781 73.058594 295.933594 74.339844 296.828125 75.511719 C 295.664062 75.808594 295.328125 77.464844 295.953125 78.492188 C 296.578125 79.519531 297.777344 80.03125 298.925781 80.390625 C 300.074219 80.757812 301.296875 81.0625 302.191406 81.867188 C 301.835938 81.886719 301.492188 81.992188 301.1875 82.164062 C 300.617188 82.492188 300.683594 83.332031 301.28125 83.601562 C 303.9375 84.792969 306.832031 85.453125 309.742188 85.523438 C 308.875 86.613281 309.339844 88.328125 310.371094 89.269531 C 311.402344 90.210938 312.820312 90.574219 314.175781 90.910156 C 313.347656 91.222656 312.476562 91.5625 311.984375 92.335938 C 311.753906 92.691406 311.652344 93.121094 311.734375 93.535156 C 311.894531 94.328125 312.546875 94.539062 313.152344 94.726562 C 314.871094 95.253906 316.585938 95.78125 318.304688 96.3125 C 317.160156 96.425781 316.925781 98.195312 317.738281 99.007812 C 318.546875 99.820312 319.8125 99.910156 320.960938 99.953125 C 320.375 99.996094 320.027344 100.710938 320.160156 101.28125 C 320.289062 101.851562 320.738281 102.292969 321.1875 102.671875 C 322.148438 103.46875 323.214844 104.140625 324.351562 104.660156 C 323.863281 104.367188 323.226562 104.949219 323.257812 105.515625 C 323.285156 106.082031 323.71875 106.539062 324.144531 106.917969 C 325.394531 108.015625 329.210938 110.699219 330.75 111.339844 " fill-opacity="1" fill-rule="nonzero"/><path fill="#659c65" d="M 334.683594 117.933594 C 334.523438 117.933594 334.367188 117.851562 334.277344 117.703125 C 334.085938 117.394531 314.871094 86.179688 298.226562 73.921875 C 298.015625 73.765625 297.972656 73.46875 298.128906 73.257812 C 298.285156 73.046875 298.582031 73 298.792969 73.15625 C 307.578125 79.628906 316.980469 91.265625 323.320312 99.890625 C 330.183594 109.21875 335.039062 117.132812 335.089844 117.210938 C 335.226562 117.433594 335.15625 117.726562 334.929688 117.863281 C 334.851562 117.910156 334.769531 117.933594 334.683594 117.933594 " fill-opacity="1" fill-rule="nonzero"/><path fill="#659c65" d="M 335.03125 124.265625 C 333.972656 122.515625 330.921875 117.988281 330.144531 116.128906 C 329.742188 115.164062 330.828125 114.203125 331.691406 114.792969 C 331.75 114.835938 331.804688 114.878906 331.851562 114.929688 C 330.601562 113.335938 329.328125 111.835938 328.878906 109.976562 C 328.730469 109.363281 329.140625 108.753906 329.765625 108.660156 C 330.191406 108.589844 330.609375 108.570312 330.804688 108.765625 C 329.460938 107.144531 328.410156 105.121094 328.074219 103.035156 C 327.929688 102.144531 328.789062 101.414062 329.632812 101.722656 C 330.074219 101.886719 330.496094 102.074219 330.835938 102.285156 C 329.675781 100.585938 328.933594 98.609375 328.691406 96.566406 C 328.59375 95.765625 328.609375 94.859375 329.167969 94.273438 C 329.726562 93.691406 330.980469 93.855469 331.066406 94.660156 C 330.289062 92.65625 329.511719 90.648438 328.734375 88.644531 C 328.410156 87.804688 328.082031 86.867188 328.414062 86.023438 C 328.75 85.1875 330.09375 84.796875 330.542969 85.578125 C 328.699219 83.710938 327.769531 80.996094 328.007812 78.390625 C 328.082031 77.566406 328.96875 77.09375 329.6875 77.492188 C 330.066406 77.707031 330.429688 77.949219 330.769531 78.222656 C 329.71875 76.820312 329.507812 74.988281 329.328125 73.25 C 329.265625 72.621094 329.1875 71.0625 331.105469 71.609375 C 329.535156 69.605469 328.460938 67.023438 328.902344 64.597656 C 329.011719 64.003906 329.679688 63.691406 330.214844 63.96875 L 331.015625 64.382812 C 330.460938 62.589844 330.601562 60.605469 331.351562 58.890625 C 331.757812 57.953125 333.035156 57.796875 333.628906 58.628906 C 334.96875 60.515625 335.566406 62.933594 335.183594 65.222656 C 335.308594 64.046875 337.265625 64.046875 337.871094 65.0625 C 338.472656 66.078125 338.144531 67.367188 337.800781 68.496094 C 337.453125 69.625 337.109375 70.753906 336.765625 71.878906 C 337.925781 71.984375 338.125 73.585938 337.949219 74.734375 C 337.527344 77.488281 336.851562 80.203125 335.929688 82.828125 C 336.679688 82.046875 338.140625 82.636719 338.53125 83.640625 C 338.925781 84.648438 338.570312 85.785156 338.113281 86.765625 C 337.65625 87.746094 337.085938 88.71875 337.035156 89.796875 C 338.578125 92.324219 338.34375 95.8125 336.476562 98.113281 C 336.867188 97.421875 338.027344 97.628906 338.449219 98.300781 C 338.871094 98.972656 338.769531 99.839844 338.609375 100.617188 C 338.160156 102.804688 337.367188 104.921875 336.273438 106.867188 L 336.347656 106.859375 C 337.351562 106.78125 338.164062 107.648438 338.03125 108.640625 C 337.730469 110.851562 336.839844 112.988281 335.457031 114.742188 C 336.402344 114.496094 337.578125 114.292969 338.109375 115.339844 C 338.347656 115.8125 338.351562 116.367188 338.160156 116.863281 L 335.03125 124.265625 " fill-opacity="1" fill-rule="nonzero"/><path fill="#5d915d" d="M 335.082031 127.476562 C 334.824219 127.476562 334.613281 127.273438 334.605469 127.011719 L 333.339844 65.136719 C 333.332031 64.875 333.542969 64.65625 333.804688 64.648438 C 334.066406 64.644531 334.285156 64.851562 334.289062 65.117188 L 335.558594 126.992188 C 335.5625 127.257812 335.355469 127.472656 335.09375 127.476562 C 335.089844 127.476562 335.085938 127.476562 335.082031 127.476562 " fill-opacity="1" fill-rule="nonzero"/><path fill="#84b685" d="M 332.335938 116.671875 C 331.582031 114.292969 327.707031 109.4375 326.511719 107.800781 C 325.785156 106.816406 324.375 105.753906 323.53125 106.640625 C 322.90625 107.300781 323.34375 108.371094 323.808594 109.148438 C 321.675781 107.183594 318.671875 105.089844 316.136719 106.507812 L 316.957031 108.460938 C 316.054688 108.152344 315.320312 107.496094 314.453125 107.097656 C 313.589844 106.699219 312.417969 106.648438 311.824219 107.390625 C 310.902344 108.539062 312.175781 110.128906 313.339844 111.035156 C 311.804688 110.917969 310.238281 111.238281 308.871094 111.949219 C 308.027344 112.382812 307.210938 113.039062 306.996094 113.960938 C 306.777344 114.882812 307.484375 116.023438 308.429688 115.921875 C 305.523438 116.539062 302.800781 117.996094 300.664062 120.054688 C 300.167969 120.535156 300.304688 121.367188 300.921875 121.675781 C 301.804688 122.121094 302.800781 122.339844 303.792969 122.300781 C 303.242188 123.484375 302.152344 124.304688 301.199219 125.195312 C 300.246094 126.085938 299.347656 127.222656 299.394531 128.523438 C 299.4375 129.828125 300.957031 131.042969 302.0625 130.347656 C 299.921875 132.300781 298.300781 134.8125 297.386719 137.558594 C 297.09375 138.445312 297.804688 139.34375 298.734375 139.261719 L 300.53125 139.097656 C 300.164062 140.386719 299.242188 141.429688 298.542969 142.578125 C 297.847656 143.722656 297.375 145.195312 297.992188 146.386719 C 298.609375 147.578125 300.714844 147.824219 301.171875 146.558594 C 299.988281 148.882812 299.007812 151.308594 298.238281 153.804688 C 298.050781 154.417969 298.570312 155.015625 299.207031 154.929688 C 299.742188 154.855469 300.265625 154.695312 300.75 154.453125 C 298.972656 156.640625 297.59375 159.152344 296.707031 161.828125 C 296.574219 162.226562 296.761719 162.65625 297.136719 162.839844 C 298.109375 163.320312 299.238281 163.476562 300.304688 163.273438 C 298.738281 165.058594 297.492188 167.121094 296.640625 169.335938 C 296.582031 169.496094 296.535156 169.660156 296.511719 169.824219 C 296.289062 171.609375 298.539062 172.007812 300.148438 171.886719 C 299.140625 172.894531 298.085938 174 297.855469 175.40625 C 297.625 176.8125 298.695312 178.496094 300.109375 178.3125 C 299.054688 179.25 298.003906 180.1875 296.949219 181.125 C 296.46875 181.554688 295.96875 182.003906 295.726562 182.605469 C 295.101562 184.144531 297 185.996094 298.53125 185.332031 C 297.988281 187.429688 293.902344 187.019531 293.726562 189.191406 C 293.679688 189.796875 293.988281 190.371094 294.484375 190.722656 C 295.433594 191.390625 296.566406 191.300781 297.644531 191.210938 C 295.609375 192.132812 293.582031 193.070312 291.5625 194.023438 C 291.410156 194.09375 291.269531 194.1875 291.152344 194.308594 C 290.417969 195.082031 291.382812 196.050781 292.28125 196.238281 C 293.097656 196.40625 294.027344 196.316406 294.667969 196.851562 C 293.683594 197.101562 292.675781 197.367188 291.855469 197.964844 C 291.039062 198.558594 290.441406 199.578125 290.644531 200.570312 C 290.84375 201.566406 292.066406 202.300781 292.941406 201.789062 C 291.710938 202.769531 290.710938 204.035156 290.054688 205.464844 C 289.867188 205.867188 289.800781 206.320312 289.882812 206.753906 C 290.070312 207.734375 290.820312 207.898438 291.511719 207.910156 C 294.542969 207.96875 297.316406 205.15625 297.222656 202.125 C 298.3125 203.425781 300.644531 202.605469 301.363281 201.066406 C 302.085938 199.535156 301.707031 197.734375 301.320312 196.082031 C 303.242188 193.980469 303.585938 190.597656 302.125 188.152344 L 303.066406 188.472656 C 303.753906 188.707031 304.492188 188.289062 304.648438 187.578125 C 305.121094 185.429688 304.472656 183.175781 303.496094 181.085938 L 304.804688 181.648438 C 305.484375 179.199219 305.199219 176.492188 304.027344 174.234375 C 304.4375 174.59375 305.136719 174.347656 305.425781 173.886719 C 305.71875 173.421875 305.710938 172.839844 305.675781 172.292969 C 305.5 169.605469 304.859375 166.945312 303.789062 164.472656 L 304.160156 164.617188 C 304.683594 164.816406 305.246094 164.457031 305.289062 163.898438 C 305.523438 160.921875 305.15625 157.898438 304.21875 155.0625 C 304.617188 155.550781 305.457031 155.40625 305.871094 154.929688 C 306.285156 154.460938 306.382812 153.792969 306.421875 153.164062 C 306.628906 149.785156 305.679688 146.34375 303.765625 143.550781 C 304.0625 144.246094 305.160156 144.238281 305.6875 143.691406 C 306.214844 143.144531 306.308594 142.316406 306.316406 141.558594 C 306.332031 139.511719 305.933594 137.464844 305.144531 135.574219 C 305.25 136.261719 306.203125 136.539062 306.8125 136.203125 C 307.425781 135.867188 307.730469 135.160156 307.890625 134.484375 C 308.503906 131.886719 307.628906 129.195312 306.761719 126.667969 C 306.832031 127.433594 307.941406 127.710938 308.574219 127.273438 C 309.207031 126.839844 309.449219 126.027344 309.601562 125.273438 C 310.03125 123.152344 310.121094 120.964844 309.875 118.816406 C 309.960938 119.3125 310.582031 119.6875 311.105469 119.59375 C 313.195312 118.65625 314.320312 117.320312 314.992188 115.136719 C 314.816406 115.867188 314.753906 116.925781 314.929688 117.648438 C 315.164062 118.609375 316.527344 118.507812 316.855469 118.277344 C 318.546875 117.109375 319.777344 115.863281 321.464844 114.695312 C 321.183594 115.207031 320.265625 116.230469 321 116.835938 C 321.734375 117.441406 322.835938 117.285156 323.707031 116.910156 C 324.582031 116.535156 325.394531 115.96875 326.335938 115.820312 C 325.300781 116.003906 324.902344 117.46875 325.503906 118.328125 C 326.109375 119.183594 327.324219 119.421875 328.339844 119.164062 C 329.359375 118.910156 331.496094 117.304688 332.335938 116.671875 " fill-opacity="1" fill-rule="nonzero"/><path fill="#659c65" d="M 334.425781 118.132812 C 333.882812 117.605469 333.1875 116.910156 332.6875 116.355469 C 329.929688 113.277344 324.21875 108.414062 316.984375 110.457031 C 311.652344 111.964844 308.257812 114.835938 305.980469 119.769531 C 303.617188 124.882812 302.371094 132.597656 302.050781 144.050781 C 301.933594 148.339844 301.894531 152.613281 301.859375 156.746094 C 301.707031 174.289062 301.558594 190.855469 294.941406 201.027344 C 294.796875 201.246094 294.859375 201.542969 295.078125 201.683594 C 295.160156 201.738281 295.25 201.761719 295.339844 201.761719 C 295.492188 201.761719 295.648438 201.683594 295.738281 201.546875 C 298.835938 196.785156 300.75 190.558594 301.761719 181.953125 C 302.65625 174.328125 302.730469 165.792969 302.808594 156.753906 C 302.84375 152.625 302.882812 148.359375 303 144.078125 C 303.316406 132.757812 304.539062 125.160156 306.84375 120.167969 C 308.992188 115.507812 312.203125 112.792969 317.242188 111.371094 C 323.980469 109.46875 329.367188 114.074219 331.980469 116.992188 C 332.773438 117.875 334.011719 119.0625 334.453125 119.480469 L 334.425781 118.132812 " fill-opacity="1" fill-rule="nonzero"/><path fill="#84b685" d="M 333.53125 120.789062 C 333.382812 119.152344 329.789062 117.757812 327.84375 117.929688 C 327.535156 117.957031 327.335938 118.273438 327.441406 118.566406 C 327.589844 118.992188 327.863281 119.375 328.21875 119.65625 C 326.269531 119.742188 324.464844 121.121094 323.789062 122.933594 C 323.597656 123.4375 323.949219 123.988281 324.488281 124.011719 C 324.753906 124.023438 325.019531 123.992188 325.273438 123.921875 C 323.539062 124.238281 322.210938 125.851562 321.988281 127.570312 C 321.875 128.464844 322.511719 129.277344 323.402344 129.410156 L 324.308594 129.542969 C 322.882812 130.425781 321.34375 131.449219 320.882812 133.0625 C 320.425781 134.675781 321.929688 136.777344 323.492188 136.167969 C 322.324219 137.246094 321.464844 138.648438 321.03125 140.175781 C 320.734375 141.21875 321.292969 142.863281 322.285156 142.433594 C 321.5625 143.53125 320.933594 144.769531 320.964844 146.085938 C 320.996094 147.398438 321.894531 148.769531 323.199219 148.929688 C 322.140625 150.085938 321.03125 151.339844 320.796875 152.890625 C 320.566406 154.4375 321.664062 156.28125 323.230469 156.195312 C 322.257812 157.824219 321.320312 159.472656 320.425781 161.144531 C 319.898438 162.128906 319.375 163.296875 319.832031 164.316406 C 320.289062 165.335938 322.21875 165.378906 322.265625 164.265625 C 321.550781 165.796875 320.902344 167.359375 320.324219 168.949219 C 320.109375 169.535156 319.90625 170.171875 320.082031 170.773438 C 320.257812 171.375 320.992188 171.835938 321.523438 171.511719 C 320.757812 172.867188 320.222656 174.351562 319.945312 175.886719 C 319.78125 176.785156 320.460938 177.621094 321.378906 177.636719 L 321.949219 177.644531 C 321.449219 178.742188 320.949219 179.84375 320.449219 180.941406 C 320.109375 181.695312 319.757812 182.519531 319.957031 183.316406 C 320.160156 184.117188 321.199219 184.722656 321.839844 184.203125 C 321.539062 185.589844 320.488281 186.699219 320.054688 188.050781 C 319.617188 189.402344 320.316406 191.34375 321.730469 191.234375 C 320.125 192.871094 319.097656 195.050781 318.832031 197.324219 C 318.734375 198.148438 319.441406 198.851562 320.269531 198.753906 C 320.582031 198.71875 320.890625 198.632812 321.183594 198.5 C 319.769531 199.554688 318.761719 201.144531 318.40625 202.871094 C 318.21875 203.785156 318.835938 205.167969 319.644531 204.699219 C 317.808594 205.964844 318.277344 208.769531 319.058594 210.855469 C 319.308594 211.519531 319.605469 212.230469 320.449219 212.382812 C 320.996094 212.480469 321.550781 212.292969 321.96875 211.929688 C 322.800781 211.203125 323.019531 210.101562 323.210938 209.054688 C 323.828125 209.90625 325.308594 209.3125 325.683594 208.328125 C 326.058594 207.347656 325.769531 206.253906 325.695312 205.207031 C 325.503906 202.496094 326.765625 199.925781 327.570312 197.332031 C 328.378906 194.738281 328.628906 191.59375 326.78125 189.59375 C 327.839844 187.203125 328.007812 184.433594 327.242188 181.929688 C 329.070312 179.589844 328.949219 175.941406 326.964844 173.722656 C 328.242188 173.535156 328.417969 171.78125 328.238281 170.503906 C 327.859375 167.804688 327.390625 165.117188 326.835938 162.449219 C 327.707031 162.847656 328.261719 161.476562 328.238281 160.519531 C 328.179688 158.257812 328.066406 155.996094 327.898438 153.742188 C 329.867188 151.621094 330.21875 148.167969 328.710938 145.699219 C 330.476562 145.535156 331.171875 143.210938 330.730469 141.492188 C 330.285156 139.777344 329.167969 138.25 328.992188 136.484375 C 329.546875 136.816406 330.308594 136.4375 330.601562 135.859375 C 330.890625 135.285156 330.832031 134.601562 330.730469 133.964844 C 330.472656 132.414062 329.972656 130.902344 329.25 129.5 C 330.3125 129.429688 331.292969 128.644531 331.601562 127.621094 C 331.910156 126.597656 331.527344 125.40625 330.679688 124.753906 C 331.628906 125.199219 332.632812 125.582031 333.238281 124.734375 C 333.84375 123.890625 333.628906 121.824219 333.53125 120.789062 " fill-opacity="1" fill-rule="nonzero"/><path fill="#659c65" d="M 334.464844 120.191406 C 332.964844 120.042969 328.820312 119.875 327.476562 122.296875 C 325.964844 125.023438 324.035156 141.375 324.035156 151.457031 C 324.035156 152.964844 324.066406 155.042969 324.101562 157.453125 C 324.296875 171.175781 324.660156 196.722656 321.097656 208.113281 C 321.019531 208.363281 321.160156 208.628906 321.410156 208.707031 C 321.457031 208.722656 321.503906 208.726562 321.550781 208.726562 C 321.753906 208.726562 321.941406 208.601562 322.007812 208.398438 C 325.613281 196.863281 325.25 171.21875 325.050781 157.4375 C 325.015625 155.035156 324.988281 152.960938 324.988281 151.457031 C 324.988281 141.695312 326.882812 125.335938 328.3125 122.753906 C 329.398438 120.796875 333.253906 121.023438 334.484375 121.148438 L 334.464844 120.191406 " fill-opacity="1" fill-rule="nonzero"/><path fill="#84b685" d="M 338.144531 121.339844 C 337.726562 122.710938 335.71875 125.949219 335.554688 127.375 C 335.421875 128.535156 335.449219 129.882812 336.347656 130.628906 C 337.246094 131.378906 338.003906 130.707031 338.59375 129.449219 C 337.867188 132.171875 337.746094 134.816406 338.039062 137.570312 C 338.066406 137.824219 338.191406 138.070312 338.402344 138.214844 C 338.894531 138.5625 339.617188 138.347656 339.820312 137.78125 C 338.859375 140.261719 338.800781 143.082031 339.660156 145.601562 C 339.894531 146.289062 340.972656 146.933594 341.132812 146.226562 C 341.164062 147.710938 340.367188 149.097656 340.242188 150.582031 C 340.117188 152.058594 341.253906 153.882812 342.683594 153.476562 C 342.066406 154.976562 341.625 156.554688 341.378906 158.160156 C 341.234375 159.078125 341.191406 160.128906 341.804688 160.828125 C 342.417969 161.53125 343.894531 161.359375 343.96875 160.425781 C 342.46875 162.527344 341.546875 165.035156 341.328125 167.605469 C 341.300781 167.929688 341.367188 168.257812 341.539062 168.535156 C 342.230469 169.648438 343.867188 168.847656 344.8125 167.996094 C 344.261719 169.628906 343.871094 171.3125 343.648438 173.019531 C 343.527344 173.949219 344.535156 174.613281 345.351562 174.144531 C 345.496094 174.0625 345.632812 173.96875 345.765625 173.867188 C 344.609375 175.925781 343.742188 178.144531 343.1875 180.4375 C 342.988281 181.273438 342.859375 182.253906 343.425781 182.902344 C 343.988281 183.550781 345.398438 183.308594 345.816406 182.542969 C 344.613281 184.535156 343.582031 186.171875 343.746094 188.230469 C 343.800781 188.890625 344.359375 189.394531 345.023438 189.40625 C 344.332031 191.484375 343.457031 192.800781 343.097656 194.570312 C 342.878906 195.65625 343.476562 196.746094 344.507812 197.144531 C 344.992188 197.332031 345.414062 197.410156 345.558594 197.105469 C 345.367188 199.28125 345.367188 201.46875 345.550781 203.640625 C 345.578125 203.933594 345.707031 204.214844 345.933594 204.398438 C 346.769531 205.085938 347.71875 203.707031 347.917969 202.652344 C 348.046875 204.132812 348.59375 205.574219 349.460938 206.777344 C 349.875 207.347656 350.757812 207.199219 350.988281 206.535156 C 351.566406 204.875 351.613281 203.035156 351.09375 201.355469 C 351.195312 201.800781 351.761719 202.171875 352.34375 202.464844 C 352.859375 202.722656 353.464844 202.367188 353.503906 201.792969 C 353.679688 199.308594 352.550781 196.769531 351.328125 194.558594 C 351.414062 194.894531 353.332031 194.695312 353.332031 193.378906 C 353.332031 190.417969 351.863281 187.75 350.695312 185.027344 C 351.710938 181.644531 351.242188 177.84375 349.441406 174.804688 C 350.507812 174.664062 351.261719 173.6875 351.121094 172.625 C 350.796875 170.125 349.980469 167.960938 349.253906 165.347656 C 349.289062 165.828125 350.042969 165.941406 350.382812 165.59375 C 350.722656 165.246094 350.742188 164.703125 350.726562 164.21875 C 350.597656 160.460938 349.554688 156.734375 347.714844 153.457031 C 348.53125 153.964844 349.558594 153.253906 349.421875 152.308594 C 348.925781 148.863281 347.300781 145.585938 344.835938 143.121094 C 345.941406 143.683594 347.332031 142.628906 347.535156 141.40625 C 347.742188 140.183594 347.128906 138.976562 346.425781 137.953125 C 345.726562 136.929688 344.898438 135.949219 344.578125 134.75 C 345.171875 132.277344 344.199219 129.5 342.191406 127.933594 C 343.808594 127.949219 344.382812 125.757812 344.136719 124.164062 C 343.972656 123.082031 343.636719 121.96875 342.851562 121.203125 C 342.070312 120.4375 339.019531 120.679688 338.144531 121.339844 " fill-opacity="1" fill-rule="nonzero"/><path fill="#659c65" d="M 349.925781 198.671875 C 349.152344 194.15625 348.695312 186.3125 348.210938 178.003906 C 347.90625 172.796875 347.589844 167.417969 347.183594 162.605469 C 346.101562 149.839844 342.257812 130.683594 340.613281 124.929688 C 339.980469 122.722656 339.027344 121.429688 337.773438 121.085938 C 336.855469 120.832031 336.007812 121.148438 335.445312 121.476562 L 335.46875 122.613281 C 335.707031 122.414062 336.605469 121.746094 337.523438 122 C 338.421875 122.253906 339.171875 123.355469 339.699219 125.191406 C 341.335938 130.917969 345.15625 149.976562 346.234375 162.683594 C 346.640625 167.484375 346.957031 172.863281 347.257812 178.058594 C 347.746094 186.394531 348.203125 194.265625 348.988281 198.832031 C 349.027344 199.066406 349.230469 199.230469 349.457031 199.230469 C 349.484375 199.230469 349.511719 199.226562 349.539062 199.21875 C 349.796875 199.175781 349.96875 198.929688 349.925781 198.671875 " fill-opacity="1" fill-rule="nonzero"/><path fill="#659c65" d="M 338.113281 114.972656 C 337.917969 112.121094 338.382812 107.023438 340.40625 104.804688 C 340.664062 104.515625 341.125 104.527344 341.363281 104.828125 C 341.589844 105.117188 341.769531 105.425781 341.808594 105.792969 C 342.238281 103.953125 343.015625 102.191406 344.085938 100.632812 C 344.328125 100.277344 344.613281 99.914062 345.027344 99.796875 C 345.4375 99.675781 345.980469 99.953125 345.957031 100.382812 C 346.554688 98.925781 347.339844 97.546875 348.285156 96.285156 C 348.558594 95.921875 348.882812 95.542969 349.328125 95.464844 C 349.777344 95.390625 350.304688 95.816406 350.140625 96.238281 C 350.515625 94.121094 352.203125 92.300781 354.28125 91.757812 C 355.089844 90.371094 356.136719 89.128906 357.363281 88.09375 C 357.746094 87.769531 358.902344 87.367188 359.046875 88.640625 C 360.097656 86.285156 361.824219 84.179688 364.070312 82.941406 C 364.558594 82.675781 365.164062 83.003906 365.207031 83.5625 L 365.242188 84.046875 C 366.050781 82.167969 367.710938 80.691406 369.644531 80.039062 C 370.28125 79.828125 370.902344 80.390625 370.75 81.039062 L 370.507812 82.0625 C 371.207031 80.582031 373.859375 81.066406 374.214844 82.664062 C 374.566406 84.269531 372.824219 85.828125 371.203125 85.570312 L 371.285156 85.640625 C 372.105469 86.328125 372.015625 87.628906 371.101562 88.1875 C 369.851562 88.949219 368.347656 89.316406 366.839844 89.453125 C 367.34375 89.398438 367.652344 90.089844 367.441406 90.546875 C 367.234375 91.011719 366.742188 91.261719 366.285156 91.480469 C 364.523438 92.316406 362.761719 93.15625 361 93.996094 C 362.140625 93.617188 363.191406 94.3125 363.046875 95.390625 C 362.902344 96.46875 361.898438 97.203125 360.941406 97.726562 C 358.878906 98.847656 356.617188 99.609375 354.292969 99.96875 C 354.347656 99.996094 354.40625 100.023438 354.464844 100.054688 C 355.574219 100.65625 355.578125 102.246094 354.46875 102.847656 C 352.636719 103.839844 350.371094 104.011719 348.222656 104.589844 C 349.316406 104.203125 350.332031 105.644531 350.019531 106.757812 C 349.703125 107.867188 348.636719 108.574219 347.621094 109.128906 C 346.277344 109.859375 344.882812 110.5 343.453125 111.039062 L 343.902344 111.394531 C 344.222656 111.648438 344.28125 112.109375 344.035156 112.433594 C 342.765625 114.105469 340.132812 115.171875 338.113281 114.972656 " fill-opacity="1" fill-rule="nonzero"/><path fill="#5d915d" d="M 334.9375 121.070312 C 334.859375 121.070312 334.777344 121.046875 334.699219 121.007812 C 334.472656 120.875 334.394531 120.582031 334.527344 120.355469 C 334.851562 119.796875 335.316406 118.964844 335.804688 118.085938 C 336.574219 116.703125 337.371094 115.269531 337.851562 114.496094 C 341.210938 109.105469 350.851562 95.40625 367.804688 84.664062 C 368.027344 84.523438 368.320312 84.585938 368.460938 84.808594 C 368.601562 85.035156 368.539062 85.324219 368.316406 85.46875 C 351.523438 96.101562 341.980469 109.664062 338.660156 115 C 338.191406 115.753906 337.363281 117.238281 336.636719 118.546875 C 336.144531 119.429688 335.679688 120.265625 335.351562 120.832031 C 335.261719 120.984375 335.101562 121.070312 334.9375 121.070312 " fill-opacity="1" fill-rule="nonzero"/><path fill="#84b685" d="M 341.199219 114.117188 C 342.710938 111.320312 346.925781 105.910156 350.4375 104.175781 C 351.09375 103.851562 351.8125 104.480469 351.574219 105.167969 C 351.378906 105.730469 351.1875 106.289062 350.925781 106.863281 C 352.308594 104.972656 354.621094 103.800781 356.964844 103.796875 C 357.476562 103.796875 358.039062 103.871094 358.390625 104.242188 C 358.742188 104.617188 358.683594 105.371094 358.191406 105.511719 C 359.273438 104.84375 360.507812 104.148438 361.746094 104.4375 C 362.980469 104.734375 363.71875 106.625 362.632812 107.289062 C 364.632812 107.417969 366.613281 107.871094 368.476562 108.617188 C 368.90625 108.792969 369.363281 109.003906 369.597656 109.40625 C 369.832031 109.808594 369.707031 110.445312 369.253906 110.566406 C 370.695312 110.574219 372.28125 110.632812 373.347656 111.605469 C 374.410156 112.574219 374.277344 114.78125 372.863281 115.0625 C 374.703125 115.980469 376.417969 117.160156 377.941406 118.546875 C 378.429688 118.988281 378.914062 119.484375 379.09375 120.113281 C 379.273438 120.746094 379.03125 121.542969 378.417969 121.773438 C 379.21875 122.339844 380.046875 122.941406 380.503906 123.8125 C 380.957031 124.683594 380.894531 125.90625 380.097656 126.480469 C 381.484375 127.972656 382.867188 129.464844 384.253906 130.957031 C 384.78125 131.527344 385.347656 132.210938 385.238281 132.980469 C 385.128906 133.75 384.089844 133.796875 383.601562 133.417969 C 384.007812 134.191406 384.792969 134.675781 385.515625 135.175781 C 386.234375 135.671875 386.96875 136.289062 387.152344 137.144531 C 387.339844 138 386.636719 139.054688 385.777344 138.878906 C 386.523438 139.824219 387.160156 140.84375 387.6875 141.925781 C 388.253906 143.097656 387.625 144.503906 386.375 144.871094 L 386.144531 144.941406 C 386.839844 146.148438 388.210938 146.832031 389 147.980469 C 389.789062 149.132812 389.378906 151.273438 387.984375 151.183594 C 388.714844 151.910156 389.652344 152.527344 390.453125 153.226562 C 391.417969 154.074219 391.257812 155.621094 390.148438 156.269531 L 389.332031 156.75 C 390.648438 157.320312 391.574219 158.703125 391.589844 160.136719 C 391.609375 161.574219 390.726562 162.980469 389.421875 163.585938 C 390.601562 164.265625 392.335938 164.992188 393.394531 165.847656 C 394.519531 166.761719 392.4375 167.414062 392.457031 167.027344 C 393.035156 169.082031 396.59375 169.304688 396.792969 171.429688 C 396.941406 172.984375 395.132812 173.898438 393.644531 174.367188 C 394.339844 175.402344 395.050781 176.476562 395.246094 177.707031 C 395.445312 178.933594 394.976562 180.363281 393.84375 180.886719 C 393.027344 181.265625 392.039062 181.09375 391.230469 180.6875 C 389.261719 179.703125 388.121094 177.304688 388.601562 175.15625 L 388.488281 175.207031 C 387.355469 175.683594 386.050781 175.25 385.414062 174.199219 C 383.78125 171.496094 383.769531 168.246094 383.15625 164.828125 C 382.753906 162.589844 382.355469 160.347656 381.953125 158.105469 C 382.074219 158.960938 380.894531 159.660156 380.203125 159.144531 C 379.683594 158.75 379.613281 158.011719 379.625 157.367188 C 379.65625 155.507812 380.015625 153.660156 380.683594 151.925781 C 380.457031 152.695312 379.292969 152.800781 378.679688 152.277344 C 378.066406 151.753906 377.882812 150.898438 377.757812 150.101562 C 377.441406 148.03125 377.402344 145.660156 378.835938 144.128906 C 378.625 144.164062 378.421875 144.179688 378.230469 144.175781 C 377.0625 144.152344 376.136719 143.1875 376.097656 142.023438 C 376.035156 140.324219 376.636719 138.941406 377.078125 136.835938 C 375.816406 137.285156 374.480469 136 374.34375 134.671875 C 374.207031 133.339844 374.875 132.074219 375.519531 130.902344 C 374.65625 132.015625 373.761719 132.511719 372.933594 131.683594 C 372.109375 130.855469 372.136719 129.515625 372.347656 128.367188 C 372.558594 127.214844 372.894531 126.011719 372.511719 124.90625 C 372.367188 125.8125 371.574219 126.613281 370.78125 126.046875 C 369.988281 125.484375 369.886719 124.367188 369.855469 123.394531 C 369.8125 121.957031 370.183594 120.480469 370.140625 119.042969 C 369.792969 120.34375 369.179688 121.132812 368.1875 120.800781 C 367.195312 120.472656 366.734375 119.339844 366.554688 118.3125 C 366.375 117.285156 366.332031 116.167969 365.710938 115.332031 C 365.863281 116.570312 364.011719 117.230469 362.992188 116.507812 C 361.972656 115.792969 361.695312 114.414062 361.617188 113.167969 C 361.453125 114.058594 360.144531 114.285156 359.410156 113.75 C 358.679688 113.210938 358.394531 112.273438 358.15625 111.398438 C 358.613281 112.335938 358.191406 113.601562 357.265625 114.078125 C 356.339844 114.5625 355.0625 114.175781 354.554688 113.261719 C 353.542969 114.859375 350.882812 115.003906 349.703125 113.523438 C 349.703125 113.523438 348.628906 116.371094 347.453125 116.691406 C 346.277344 117.011719 344.800781 116.597656 344.339844 115.46875 C 344.507812 115.894531 344.507812 117 343.90625 117.300781 C 342.777344 118.199219 341.925781 114.765625 341.199219 114.117188 " fill-opacity="1" fill-rule="nonzero"/><path fill="#659c65" d="M 391.949219 173.679688 C 391.839844 173.679688 391.730469 173.644531 391.640625 173.566406 C 387.453125 170.042969 383.820312 154.25 381.125 140.886719 C 379.488281 132.777344 377.125 126.003906 374.09375 120.742188 C 370.246094 114.058594 365.410156 110.058594 359.714844 108.84375 C 349.765625 106.726562 343.699219 112.046875 341.550781 114.433594 C 341.003906 115.046875 336.558594 119.832031 336.371094 120.035156 C 336.191406 120.226562 335.890625 120.238281 335.699219 120.0625 C 335.507812 119.882812 335.496094 119.582031 335.671875 119.390625 C 335.71875 119.339844 340.300781 114.40625 340.84375 113.800781 C 343.101562 111.289062 349.476562 105.695312 359.914062 107.917969 C 365.882812 109.1875 370.929688 113.34375 374.921875 120.273438 C 378 125.617188 380.398438 132.492188 382.054688 140.699219 C 384.515625 152.882812 388.246094 169.46875 392.253906 172.839844 C 392.457031 173.007812 392.480469 173.308594 392.3125 173.511719 C 392.21875 173.621094 392.082031 173.679688 391.949219 173.679688 " fill-opacity="1" fill-rule="nonzero"/><path fill="#84b685" d="M 339.953125 118.59375 C 341.816406 119.253906 345.652344 120.746094 347.621094 122.078125 C 348.113281 122.410156 348.792969 122.238281 349.074219 121.714844 C 349.324219 121.242188 349.378906 120.660156 349.152344 120.167969 C 350.007812 122.332031 352.296875 123.84375 354.625 123.78125 C 354.195312 125.503906 354.234375 127.335938 354.730469 129.039062 C 354.9375 129.75 355.265625 130.492188 355.914062 130.855469 C 356.558594 131.214844 357.574219 130.949219 357.707031 130.21875 C 357.371094 132.105469 357.09375 133.882812 357.375 135.636719 C 357.5625 136.800781 358.605469 137.632812 359.785156 137.582031 C 358.882812 139.070312 357.957031 140.648438 357.929688 142.382812 C 357.902344 144.121094 359.160156 146.003906 360.898438 146 C 360.824219 147.828125 360.75 149.652344 360.675781 151.480469 C 360.644531 152.246094 360.636719 153.085938 361.117188 153.683594 C 361.597656 154.277344 362.757812 154.308594 362.992188 153.582031 C 361.921875 155.941406 361.796875 158.714844 362.652344 161.164062 C 362.996094 162.140625 364.152344 163.210938 364.886719 162.476562 C 364.296875 164.261719 363.917969 166.117188 363.765625 167.992188 C 363.703125 168.789062 363.710938 169.675781 364.25 170.265625 C 364.789062 170.855469 366.027344 170.730469 366.132812 169.941406 C 365.261719 171.96875 364.738281 174.085938 365.117188 176.175781 C 365.269531 177.03125 366.296875 177.453125 366.976562 176.90625 C 367.105469 176.804688 367.199219 176.679688 367.246094 176.53125 C 366.617188 178.507812 365.949219 180.429688 366.160156 182.328125 C 366.277344 183.371094 367.492188 183.933594 368.335938 183.308594 C 368.523438 183.171875 368.644531 183.011719 368.648438 182.816406 C 368.761719 185.199219 369.21875 187.5625 369.992188 189.816406 C 370.238281 190.535156 371.246094 190.589844 371.5625 189.902344 C 371.855469 189.257812 371.980469 188.53125 371.890625 187.828125 C 372.027344 188.671875 373.21875 189.027344 373.933594 188.554688 C 374.652344 188.082031 374.875 187.09375 374.691406 186.253906 C 374.507812 185.417969 374 184.6875 373.503906 183.988281 L 375.308594 184.664062 C 375.492188 181.746094 373.925781 178.789062 371.410156 177.300781 C 371.949219 177.5625 372.605469 177.0625 372.738281 176.480469 C 372.875 175.902344 372.65625 175.300781 372.4375 174.742188 C 371.601562 172.59375 370.765625 170.445312 369.933594 168.296875 C 371.890625 167.476562 369.996094 162.925781 368.265625 160.96875 C 369.152344 161.449219 369.722656 159.910156 369.492188 158.929688 C 368.964844 156.695312 367.824219 154.613281 366.222656 152.96875 C 367.183594 153.3125 367.742188 151.871094 367.652344 150.859375 C 367.40625 147.988281 366.261719 145.203125 364.417969 142.992188 C 365.171875 140.621094 364.710938 137.898438 363.214844 135.910156 C 364.683594 135.554688 365.308594 133.660156 364.851562 132.226562 C 364.390625 130.789062 363.195312 129.730469 362.054688 128.742188 C 362.707031 126.089844 361.480469 123.078125 359.15625 121.640625 C 359.574219 120.710938 359.289062 119.519531 358.496094 118.882812 C 357.707031 118.246094 356.480469 118.222656 355.664062 118.828125 C 355.78125 117.6875 355.074219 116.507812 354.007812 116.078125 C 352.945312 115.644531 351.613281 116 350.90625 116.902344 C 351.5 115.734375 350.308594 114.300781 349.007812 114.140625 C 347.707031 113.980469 346.464844 114.648438 345.324219 115.292969 L 345.316406 115.234375 C 345.25 114.574219 344.542969 114.1875 343.949219 114.488281 C 342.296875 115.316406 340.746094 117.109375 339.953125 118.59375 " fill-opacity="1" fill-rule="nonzero"/><path fill="#659c65" d="M 372.042969 183.277344 C 369.546875 179.699219 367.648438 168.296875 365.640625 156.226562 C 363.820312 145.285156 361.9375 133.972656 359.414062 127.421875 C 357.179688 121.625 352.3125 118.363281 345.335938 117.992188 C 340.132812 117.714844 335.660156 119.117188 335.472656 119.179688 C 335.445312 119.1875 335.421875 119.199219 335.398438 119.210938 L 335.414062 120.058594 C 335.519531 120.109375 335.640625 120.121094 335.761719 120.082031 C 335.804688 120.066406 340.277344 118.667969 345.3125 118.941406 C 351.964844 119.300781 356.410156 122.269531 358.527344 127.765625 C 361.011719 134.222656 362.886719 145.488281 364.703125 156.382812 C 366.730469 168.5625 368.644531 180.066406 371.265625 183.820312 C 371.355469 183.957031 371.503906 184.023438 371.65625 184.023438 C 371.75 184.023438 371.84375 183.996094 371.925781 183.9375 C 372.140625 183.789062 372.195312 183.492188 372.042969 183.277344 " fill-opacity="1" fill-rule="nonzero"/><path fill="#ffd393" d="M 555.320312 142.992188 C 550.128906 142.992188 545.917969 138.789062 545.917969 133.601562 C 545.917969 128.417969 550.128906 124.214844 555.320312 124.214844 C 560.511719 124.214844 564.71875 128.417969 564.71875 133.601562 C 564.71875 138.789062 560.511719 142.992188 555.320312 142.992188 Z M 576.375 134.476562 C 576.375 126.429688 571.855469 119.441406 565.214844 115.902344 L 565.214844 113.113281 C 565.214844 112.472656 564.691406 111.949219 564.050781 111.949219 L 546.578125 111.949219 C 545.933594 111.949219 545.414062 112.472656 545.414062 113.113281 L 545.414062 115.925781 C 538.695312 119.527344 534.140625 126.660156 534.253906 134.769531 C 534.355469 142.300781 538.417969 148.875 544.457031 152.507812 L 544.457031 153.789062 C 544.457031 154.597656 545.113281 155.257812 545.929688 155.257812 L 564.726562 155.257812 C 565.542969 155.257812 566.203125 154.597656 566.203125 153.789062 L 566.203125 152.492188 C 572.296875 148.808594 576.375 142.117188 576.375 134.476562 " fill-opacity="1" fill-rule="nonzero"/><path fill="#ffc280" d="M 565.226562 115.910156 C 565.222656 115.90625 565.214844 115.90625 565.214844 115.902344 L 565.214844 113.113281 C 565.214844 112.472656 564.691406 111.949219 564.050781 111.949219 L 546.578125 111.949219 C 545.933594 111.949219 545.414062 112.472656 545.414062 113.113281 L 545.414062 115.925781 L 565.214844 115.925781 L 565.226562 115.910156 " fill-opacity="1" fill-rule="nonzero"/><g clip-path="url(#f3e42a0c75)"><path fill="#bf8673" d="M 435.03125 374.429688 L 260.652344 374.429688 C 259.238281 374.429688 258.089844 375.578125 258.089844 376.992188 L 258.089844 383.90625 C 258.089844 385.320312 259.238281 386.46875 260.652344 386.46875 L 435.03125 386.46875 L 435.03125 374.429688 " fill-opacity="1" fill-rule="nonzero"/></g><g clip-path="url(#326f6500a1)"><path fill="#59586d" d="M 594.847656 376.808594 L 446.921875 376.808594 L 446.921875 371.449219 C 446.921875 370.210938 447.925781 369.207031 449.167969 369.207031 L 592.605469 369.207031 C 593.84375 369.207031 594.847656 370.210938 594.847656 371.449219 L 594.847656 376.808594 " fill-opacity="1" fill-rule="nonzero"/></g><g clip-path="url(#44105d51c2)"><path fill="#59586d" d="M 606.738281 547.523438 L 435.03125 547.523438 L 435.03125 374.429688 L 606.738281 374.429688 L 606.738281 547.523438 " fill-opacity="1" fill-rule="nonzero"/><path fill="#727289" d="M 606.738281 386.46875 L 435.03125 386.46875 L 435.03125 374.429688 L 606.738281 374.429688 L 606.738281 386.46875 " fill-opacity="1" fill-rule="nonzero"/></g><g clip-path="url(#43c54a94cd)"><path fill="#bf8673" d="M 702.453125 374.429688 L 606.742188 374.429688 L 606.742188 386.46875 L 702.453125 386.46875 C 703.871094 386.46875 705.019531 385.320312 705.019531 383.90625 L 705.019531 376.992188 C 705.019531 375.578125 703.871094 374.429688 702.453125 374.429688 " fill-opacity="1" fill-rule="nonzero"/></g><path fill="#bf8673" d="M 480.253906 291.597656 C 478.933594 292.289062 477.304688 291.777344 476.617188 290.457031 C 475.929688 289.140625 476.4375 287.515625 477.757812 286.828125 C 479.078125 286.140625 480.707031 286.648438 481.394531 287.96875 C 482.085938 289.285156 481.574219 290.910156 480.253906 291.597656 Z M 534.214844 315.441406 C 526.34375 300.386719 509.488281 293.054688 493.644531 296.574219 C 491.445312 297.0625 489.1875 296.03125 488.144531 294.03125 L 488.113281 293.972656 C 487.390625 292.585938 486.984375 291.042969 487.007812 289.480469 C 487.03125 288.109375 486.699219 286.714844 485.96875 285.433594 C 483.875 281.761719 479.183594 280.378906 475.429688 282.324219 C 471.535156 284.34375 470.023438 289.136719 472.054688 293.019531 C 472.671875 294.199219 473.546875 295.160156 474.570312 295.867188 C 475.859375 296.753906 476.933594 297.90625 477.65625 299.289062 L 477.746094 299.457031 C 478.78125 301.441406 478.371094 303.875 476.722656 305.390625 C 464.746094 316.363281 461.125 334.386719 469.003906 349.457031 C 478.386719 367.40625 500.71875 374.390625 518.675781 364.996094 C 536.65625 355.59375 543.613281 333.414062 534.214844 315.441406 " fill-opacity="1" fill-rule="nonzero"/><path fill="#b27666" d="M 526.0625 319.695312 C 533.117188 333.1875 527.886719 349.832031 514.378906 356.875 C 500.875 363.921875 484.210938 358.695312 477.15625 345.207031 C 470.105469 331.714844 475.335938 315.070312 488.839844 308.027344 C 502.347656 300.980469 519.011719 306.207031 526.0625 319.695312 " fill-opacity="1" fill-rule="nonzero"/><path fill="#ce9482" d="M 524.671875 320.421875 C 531.320312 333.144531 526.386719 348.839844 513.652344 355.484375 C 500.914062 362.128906 485.199219 357.199219 478.550781 344.480469 C 471.898438 331.757812 476.832031 316.058594 489.566406 309.414062 C 502.304688 302.773438 518.019531 307.699219 524.671875 320.421875 " fill-opacity="1" fill-rule="nonzero"/><path fill="#59586d" d="M 410.328125 304.886719 L 312.492188 304.886719 C 311.546875 304.886719 310.78125 304.125 310.78125 303.179688 L 310.78125 297.226562 C 310.78125 296.28125 311.546875 295.515625 312.492188 295.515625 L 410.328125 295.515625 C 411.273438 295.515625 412.039062 296.28125 412.039062 297.226562 L 412.039062 303.179688 C 412.039062 304.125 411.273438 304.886719 410.328125 304.886719 " fill-opacity="1" fill-rule="nonzero"/><path fill="#767687" d="M 335.304688 264.476562 L 335.304688 317.472656 L 324.734375 317.472656 L 324.734375 290.976562 C 324.734375 290.976562 324.097656 271.234375 335.304688 264.476562 " fill-opacity="1" fill-rule="nonzero"/><path fill="#ce9482" d="M 335.300781 317.472656 L 335.300781 341.96875 C 335.300781 344.183594 333.503906 345.980469 331.285156 345.980469 C 329.066406 345.980469 327.269531 344.183594 327.269531 341.96875 L 327.269531 317.472656 L 335.300781 317.472656 " fill-opacity="1" fill-rule="nonzero"/><path fill="#ce9482" d="M 355.074219 317.472656 L 355.074219 341.96875 C 355.074219 344.183594 353.277344 345.980469 351.058594 345.980469 C 348.839844 345.980469 347.042969 344.183594 347.042969 341.96875 L 347.042969 317.472656 L 355.074219 317.472656 " fill-opacity="1" fill-rule="nonzero"/><path fill="#767687" d="M 347.042969 317.472656 L 347.042969 264.476562 L 348.210938 265.492188 C 352.570312 269.269531 355.074219 274.753906 355.074219 280.519531 L 355.074219 317.472656 L 347.042969 317.472656 " fill-opacity="1" fill-rule="nonzero"/><path fill="#767687" d="M 383.925781 322.121094 L 366.589844 322.121094 L 366.589844 298.894531 C 366.589844 298.894531 367.859375 274.1875 376.949219 264.476562 C 376.949219 264.476562 382.023438 274.1875 383.078125 286.117188 C 384.136719 298.046875 383.925781 322.121094 383.925781 322.121094 " fill-opacity="1" fill-rule="nonzero"/><path fill="#ce9482" d="M 383.925781 322.117188 L 383.925781 348.863281 C 383.925781 350.535156 382.570312 351.890625 380.894531 351.890625 L 376.03125 351.890625 C 374.789062 351.890625 373.777344 350.882812 373.777344 349.636719 L 373.777344 347.246094 C 373.777344 346.777344 374.15625 346.402344 374.625 346.402344 L 374.953125 346.402344 C 375.902344 346.402344 376.636719 345.574219 376.523438 344.632812 L 373.777344 322.117188 L 383.925781 322.117188 " fill-opacity="1" fill-rule="nonzero"/><path fill="#84b685" d="M 626.691406 344.820312 C 626.691406 344.820312 618.082031 343.160156 616.121094 344.820312 C 614.15625 346.480469 610.417969 351.457031 609.324219 356.585938 C 608.230469 361.714844 605.398438 364.804688 604.792969 366.730469 C 604.1875 368.652344 619.769531 362.617188 622.777344 358.699219 C 623.972656 356.734375 624.726562 359.984375 625.9375 360.019531 C 627.144531 360.054688 631.070312 346.628906 626.691406 344.820312 " fill-opacity="1" fill-rule="nonzero"/><path fill="#659c65" d="M 612.34375 360.359375 C 612.28125 360.359375 612.222656 360.34375 612.167969 360.308594 C 612.003906 360.214844 611.953125 360.007812 612.050781 359.84375 C 613.871094 356.828125 619.964844 349.070312 626.644531 341.792969 C 632.230469 335.703125 639.59375 328.425781 642.941406 328.339844 C 642.980469 328.339844 643.015625 328.339844 643.054688 328.339844 C 649.015625 328.339844 653.550781 340.609375 653.738281 341.132812 C 653.804688 341.308594 653.714844 341.503906 653.539062 341.570312 C 653.359375 341.632812 653.167969 341.542969 653.105469 341.367188 C 653.058594 341.242188 648.539062 329.015625 643.054688 329.015625 C 643.019531 329.015625 642.988281 329.015625 642.957031 329.019531 C 640.570312 329.078125 634.804688 333.902344 627.144531 342.25 C 620.496094 349.5 614.433594 357.207031 612.632812 360.195312 C 612.570312 360.300781 612.457031 360.359375 612.34375 360.359375 " fill-opacity="1" fill-rule="nonzero"/><path fill="#84b685" d="M 642.953125 304.996094 C 642.953125 304.996094 633.9375 303.941406 631.824219 304.242188 C 629.710938 304.542969 621.859375 311.480469 619.289062 315.554688 C 616.722656 319.628906 616.460938 324.304688 616.742188 325.359375 C 617.023438 326.414062 629.558594 322.269531 632.882812 321.476562 C 636.207031 320.683594 636.054688 317.667969 636.960938 316.460938 C 637.867188 315.253906 638.839844 319.476562 640.015625 319.328125 C 641.191406 319.175781 643.503906 309.371094 642.953125 304.996094 " fill-opacity="1" fill-rule="nonzero"/><path fill="#659c65" d="M 655.535156 341.589844 C 655.363281 341.589844 655.214844 341.457031 655.199219 341.277344 C 655.179688 341.074219 653.375 320.839844 652.335938 316.539062 C 651.355469 312.476562 649.3125 304.023438 643.019531 305.328125 C 636.652344 306.648438 630.148438 313.015625 630.085938 313.082031 C 629.949219 313.210938 629.734375 313.210938 629.605469 313.078125 C 629.472656 312.945312 629.472656 312.730469 629.605469 312.597656 C 629.875 312.328125 636.316406 306.023438 642.882812 304.664062 C 645.867188 304.042969 648.316406 305.300781 650.160156 308.40625 C 651.695312 310.988281 652.511719 314.363281 653 316.378906 C 654.050781 320.730469 655.800781 340.382812 655.875 341.21875 C 655.890625 341.40625 655.753906 341.570312 655.566406 341.585938 C 655.554688 341.589844 655.546875 341.589844 655.535156 341.589844 " fill-opacity="1" fill-rule="nonzero"/><path fill="#84b685" d="M 652.367188 290.511719 C 652.367188 290.511719 641.792969 291.34375 637.414062 281.425781 C 638.925781 279.5 642.953125 279.953125 642.953125 279.953125 C 642.953125 279.953125 639.445312 271.054688 640.015625 269.84375 C 640.585938 268.640625 644.058594 262.191406 644.890625 261.796875 C 645.71875 261.398438 658.632812 269.242188 659.652344 271.355469 C 660.671875 273.46875 656.292969 286.140625 652.367188 290.511719 " fill-opacity="1" fill-rule="nonzero"/><path fill="#659c65" d="M 656.34375 341.589844 C 656.160156 341.589844 656.007812 341.441406 656.003906 341.257812 C 655.996094 340.960938 655.164062 311.273438 652.03125 290.5625 C 648.917969 269.988281 644.886719 264.484375 644.84375 264.433594 C 644.734375 264.285156 644.761719 264.070312 644.910156 263.957031 C 645.058594 263.84375 645.273438 263.871094 645.386719 264.019531 C 645.554688 264.242188 649.550781 269.644531 652.703125 290.460938 C 655.839844 311.210938 656.675781 340.941406 656.683594 341.238281 C 656.6875 341.425781 656.539062 341.582031 656.351562 341.589844 C 656.347656 341.589844 656.347656 341.589844 656.34375 341.589844 " fill-opacity="1" fill-rule="nonzero"/><path fill="#84b685" d="M 679.550781 305.597656 C 679.550781 305.597656 677.890625 296.753906 677.890625 294.433594 C 677.890625 292.117188 692.992188 285.082031 701.144531 284.78125 C 702.128906 287.703125 698.128906 297.753906 696.464844 300.167969 C 698.128906 301.222656 699.183594 301.6875 699.183594 302.738281 C 699.183594 302.738281 694.199219 303.636719 692.386719 305.597656 C 690.574219 307.558594 681.214844 307.40625 679.550781 305.597656 " fill-opacity="1" fill-rule="nonzero"/><path fill="#659c65" d="M 662.257812 341.589844 C 662.210938 341.589844 662.167969 341.578125 662.121094 341.558594 C 661.953125 341.484375 661.871094 341.285156 661.945312 341.113281 C 662.070312 340.832031 674.324219 312.742188 679.269531 305.40625 C 684.226562 298.054688 694.496094 290.335938 694.601562 290.257812 C 694.753906 290.144531 694.964844 290.175781 695.078125 290.324219 C 695.191406 290.476562 695.15625 290.691406 695.007812 290.800781 C 694.90625 290.878906 684.726562 298.53125 679.832031 305.789062 C 674.921875 313.070312 662.691406 341.101562 662.570312 341.382812 C 662.515625 341.511719 662.386719 341.589844 662.257812 341.589844 " fill-opacity="1" fill-rule="nonzero"/><g clip-path="url(#e2679f2322)"><path fill="#84b685" d="M 688.613281 317.667969 C 688.613281 317.667969 685.289062 326.71875 685.289062 332.75 C 689.59375 332.75 691.933594 331.148438 691.933594 331.148438 C 691.933594 331.148438 692.386719 338.9375 692.992188 340.292969 C 693.597656 341.652344 707.339844 342.40625 707.339844 342.40625 C 707.339844 342.40625 704.46875 324.832031 702.808594 321.476562 C 701.144531 318.121094 691.179688 317.363281 688.613281 317.667969 " fill-opacity="1" fill-rule="nonzero"/></g><path fill="#659c65" d="M 692.695312 339.078125 C 692.257812 335.757812 694.195312 330.953125 694.359375 329.175781 C 694.542969 327.167969 692.527344 327.898438 690.058594 329.632812 C 687.589844 331.371094 685.289062 332.75 685.289062 332.75 C 689.59375 332.75 691.9375 331.148438 691.9375 331.148438 C 691.9375 331.148438 692.242188 336.460938 692.695312 339.078125 " fill-opacity="1" fill-rule="nonzero"/><path fill="#659c65" d="M 657.199219 341.589844 C 657.167969 341.589844 657.140625 341.585938 657.109375 341.578125 C 656.929688 341.527344 656.824219 341.34375 656.867188 341.164062 C 657.144531 340.132812 663.582031 315.941406 667.082031 312.59375 C 669.355469 310.421875 674.289062 311.277344 677.027344 311.984375 C 681.191406 313.050781 685.707031 315.125 688.8125 317.390625 C 694.574219 321.601562 700.605469 326.640625 705.46875 337.769531 C 705.542969 337.941406 705.460938 338.144531 705.292969 338.21875 C 705.121094 338.292969 704.917969 338.214844 704.84375 338.042969 C 700.050781 327.070312 694.097656 322.09375 688.410156 317.941406 C 681.996094 313.25 670.726562 310.050781 667.554688 313.085938 C 664.1875 316.300781 657.59375 341.085938 657.527344 341.335938 C 657.488281 341.488281 657.347656 341.589844 657.199219 341.589844 " fill-opacity="1" fill-rule="nonzero"/><g clip-path="url(#9ca4b08bfd)"><path fill="#84b685" d="M 687.554688 343.5625 C 687.554688 343.5625 682.269531 354.324219 681.8125 356.433594 C 681.363281 358.546875 686.195312 355.953125 687.554688 355.589844 C 688.914062 355.226562 689.367188 356.132812 688.160156 358.699219 C 686.949219 361.261719 685.589844 363.375 685.289062 364.730469 C 684.988281 366.089844 694.953125 373.027344 696.3125 376.496094 C 696.3125 376.496094 699.789062 363.300781 700.085938 360.019531 C 700.390625 356.738281 698.730469 356.285156 698.730469 356.285156 L 700.390625 356.738281 C 700.390625 356.738281 700.996094 354.324219 700.390625 353.492188 C 699.789062 352.664062 691.027344 343.8125 687.554688 343.5625 " fill-opacity="1" fill-rule="nonzero"/></g><path fill="#659c65" d="M 694.804688 369.898438 C 694.640625 369.898438 694.496094 369.777344 694.46875 369.613281 C 693.078125 360.957031 689.101562 347.742188 687.246094 343.703125 L 687.089844 343.359375 C 685.105469 339.027344 681.777344 331.773438 677.023438 332.332031 C 672.066406 332.917969 663.871094 341.398438 663.785156 341.484375 C 663.65625 341.617188 663.445312 341.621094 663.304688 341.492188 C 663.171875 341.363281 663.167969 341.148438 663.296875 341.015625 C 663.640625 340.65625 671.746094 332.269531 676.945312 331.660156 C 682.1875 331.042969 685.644531 338.578125 687.707031 343.078125 L 687.867188 343.421875 C 689.933594 347.925781 693.835938 361.382812 695.140625 369.503906 C 695.171875 369.691406 695.042969 369.863281 694.859375 369.894531 C 694.839844 369.894531 694.820312 369.898438 694.804688 369.898438 " fill-opacity="1" fill-rule="nonzero"/><g clip-path="url(#b35768c5d4)"><path fill="#dfebf5" d="M 674.074219 374.167969 L 638.941406 374.167969 L 635.363281 342.546875 L 677.652344 342.546875 L 674.074219 374.167969 " fill-opacity="1" fill-rule="nonzero"/><path fill="#cee3f5" d="M 635.816406 346.542969 L 662.417969 346.542969 C 662.417969 346.542969 666.90625 364.488281 637.921875 365.15625 L 638.941406 374.167969 L 674.074219 374.167969 L 677.652344 342.546875 L 635.363281 342.546875 L 635.816406 346.542969 " fill-opacity="1" fill-rule="nonzero"/></g><path fill="#dfebf5" d="M 680.542969 344.371094 L 632.472656 344.371094 C 631.507812 344.371094 630.726562 343.589844 630.726562 342.625 L 630.726562 342.464844 C 630.726562 341.5 631.507812 340.71875 632.472656 340.71875 L 680.542969 340.71875 C 681.507812 340.71875 682.289062 341.5 682.289062 342.464844 L 682.289062 342.625 C 682.289062 343.589844 681.507812 344.371094 680.542969 344.371094 " fill-opacity="1" fill-rule="nonzero"/><g clip-path="url(#98bf83bb88)"><path fill="#dfebf5" d="M 630.726562 366.550781 L 682.289062 366.550781 L 678.710938 374.167969 L 634.304688 374.167969 L 630.726562 366.550781 " fill-opacity="1" fill-rule="nonzero"/></g></svg>