<svg xmlns="http://www.w3.org/2000/svg" viewBox="0 0 350.5 45.91"><defs><style>.cls-1{fill:#121212;}</style></defs><g id="Layer_2" data-name="Layer 2"><g id="Vintage_Borders" data-name="Vintage Borders"><path class="cls-1" d="M173.23,20.79c0,.24-.41.36-1.24.36a11.42,11.42,0,0,1-5-1.41,24.91,24.91,0,0,1-6-4.34,17.26,17.26,0,0,1-4.09-6.49,14,14,0,0,1-1.09-4.36c0-.9.25-1.34.74-1.34.33,0,.89.47,1.68,1.4a12.78,12.78,0,0,0,3,2.77l.74,0a6,6,0,0,0,.79-2c.18-.63.44-.95.8-.95.58,0,.88.2.88.59a3.12,3.12,0,0,1-.05.39c0,.2,0,.33,0,.43q0,8.41,3.76,12.1a11.37,11.37,0,0,0,4.65,2.43C173.08,20.52,173.23,20.64,173.23,20.79Zm8.23-15.91a6.94,6.94,0,0,1-.22,1.29A7.85,7.85,0,0,0,181,7.75c0,1.06.06,2.15.16,3.28s.17,1.72.17,1.78a6.32,6.32,0,0,1-.71,2.7,13,13,0,0,1-1.88,2.82l-1.41,1.55c-.22.33-.44.67-.65,1a1.67,1.67,0,0,1-1.32.5,1.53,1.53,0,0,1-.95-.32,39.19,39.19,0,0,1-3.93-3.45,9.25,9.25,0,0,1-1.58-2.46,9.93,9.93,0,0,1-.89-3.08q-.24-2-.24-7.91a.44.44,0,0,1,.5-.5,1.84,1.84,0,0,1,1.56,1.12,6,6,0,0,0,.5.79.83.83,0,0,0,.67.32,2,2,0,0,0,1.52-.86,4.46,4.46,0,0,0,.92-2.3c.07-.7.12-1.39.18-2.09.06-.44.27-.66.65-.66a.94.94,0,0,1,.85.32A16.66,16.66,0,0,0,175.82,3a6,6,0,0,0,1.38,2.09c.51.5.9.75,1.18.75s.64-.34,1.05-1,.8-1,1.15-1C181.17,3.82,181.46,4.17,181.46,4.88Zm-5.82,10.91a42.52,42.52,0,0,0-.82-7.38l-.12-.87c0-.21-.12-.31-.24-.31s-.38.49-.55,1.47a24.12,24.12,0,0,0-.33,4.36,18.76,18.76,0,0,0,.5,4.75c.26,1,.52,1.46.79,1.46C175.39,19.27,175.64,18.11,175.64,15.79ZM194.1,4.55a9.15,9.15,0,0,1-.38,1.56,24.88,24.88,0,0,1-1.29,3.48,18.8,18.8,0,0,1-4.73,6.13,30.85,30.85,0,0,1-5.71,4,12.18,12.18,0,0,1-2.82,1.34c-.31,0-.47-.13-.47-.39,0-.1.31-.44.94-1a21.36,21.36,0,0,0,2.32-2.5,12.71,12.71,0,0,0,3.15-7.81A12.77,12.77,0,0,0,185,7.47c-.11-.66-.16-1-.16-1.15,0-.28.17-.41.52-.41s.49.29.8.86l.58,1.14q.21.36.48.36c.31,0,1.16-.67,2.55-2C191.35,4.73,192.65,4,193.64,4,194,4,194.1,4.15,194.1,4.55Z"/><path class="cls-1" d="M172.79,25.49a11.37,11.37,0,0,0-4.65,2.43Q164.39,31.6,164.38,40c0,.09,0,.23,0,.42a3.12,3.12,0,0,1,.05.39c0,.4-.3.59-.88.59-.36,0-.62-.32-.8-1a5.89,5.89,0,0,0-.79-2l-.74,0a13,13,0,0,0-3,2.77q-1.19,1.41-1.68,1.41c-.49,0-.74-.45-.74-1.34A14,14,0,0,1,156.88,37,17.26,17.26,0,0,1,161,30.51a25.18,25.18,0,0,1,6-4.34,11.42,11.42,0,0,1,5-1.41c.83,0,1.24.12,1.24.36S173.08,25.4,172.79,25.49Zm7.79,16.6c-.35,0-.73-.34-1.15-1s-.76-1-1.05-1-.67.25-1.18.75a6,6,0,0,0-1.38,2.09,16.92,16.92,0,0,0-.68,2.68.94.94,0,0,1-.85.32c-.38,0-.59-.22-.65-.66-.06-.7-.11-1.39-.18-2.09a4.42,4.42,0,0,0-.92-2.29A2,2,0,0,0,171,40a.83.83,0,0,0-.67.32,7,7,0,0,0-.5.79,1.84,1.84,0,0,1-1.56,1.12.44.44,0,0,1-.5-.5c0-3.91.08-6.54.24-7.91a9.79,9.79,0,0,1,.89-3.07,9.32,9.32,0,0,1,1.58-2.47,40.52,40.52,0,0,1,3.93-3.45,1.53,1.53,0,0,1,.95-.32,1.67,1.67,0,0,1,1.32.5c.21.35.43.69.65,1l1.41,1.55a13.19,13.19,0,0,1,1.88,2.82,6.32,6.32,0,0,1,.71,2.7c0,.06-.06.65-.17,1.78S181,37.1,181,38.16a7.85,7.85,0,0,0,.22,1.58,7.07,7.07,0,0,1,.22,1.29C181.46,41.74,181.17,42.09,180.58,42.09Zm-5.71-15.44c-.27,0-.53.48-.79,1.45a18.76,18.76,0,0,0-.5,4.75,24.12,24.12,0,0,0,.33,4.36c.17,1,.36,1.47.55,1.47s.2-.1.24-.31l.12-.87a42.52,42.52,0,0,0,.82-7.38C175.64,27.8,175.39,26.65,174.87,26.65ZM193.64,42c-1,0-2.29-.78-3.92-2.32-1.39-1.33-2.24-2-2.55-2s-.34.12-.48.36l-.58,1.14c-.31.57-.58.86-.8.86s-.52-.13-.52-.4c0-.11.05-.5.16-1.16a12.77,12.77,0,0,0,.16-1.87A12.71,12.71,0,0,0,182,28.76a21.36,21.36,0,0,0-2.32-2.5c-.63-.58-.94-.92-.94-1,0-.26.16-.39.47-.39A12.18,12.18,0,0,1,182,26.19a30.85,30.85,0,0,1,5.71,4,18.9,18.9,0,0,1,4.73,6.13,24.88,24.88,0,0,1,1.29,3.48,8.94,8.94,0,0,1,.38,1.57C194.1,41.76,194,42,193.64,42Z"/><path class="cls-1" d="M175.25,23.53c5.82,0,17.15,1.23,20.49,3.77,0,0,9.45-1.74,26.08-2.25,33.14-1,103.07-1.6,128-1.6,1,0,.9-.73,0-.73-24.89,0-94.82-.58-128-1.59-16.63-.51-26.08-2.25-26.08-2.25-3.34,2.54-14.67,3.69-20.49,3.69s-17.16-1.15-20.49-3.69c0,0-9.45,1.74-26.08,2.25-33.14,1-103.08,1.59-128,1.59-.9,0-1,.73,0,.73,24.89,0,94.83.59,128,1.6,16.63.51,26.08,2.25,26.08,2.25C158.09,24.76,169.43,23.53,175.25,23.53Z"/></g></g></svg>