<svg xmlns="http://www.w3.org/2000/svg" xmlns:xlink="http://www.w3.org/1999/xlink" width="1366" zoomAndPan="magnify" viewBox="0 0 1024.5 576" height="768" preserveAspectRatio="xMidYMid meet" version="1.0"><defs><clipPath id="c0fffdbf62"><path d="M 0 0.140625 L 1024 0.140625 L 1024 575.859375 L 0 575.859375 Z M 0 0.140625 " clip-rule="nonzero"/></clipPath><clipPath id="5e54acda1f"><path d="M 367.234375 176.355469 L 607.925781 176.355469 L 607.925781 184.394531 L 367.234375 184.394531 Z M 367.234375 176.355469 " clip-rule="nonzero"/></clipPath><clipPath id="76689aa05c"><path d="M 367.234375 166.476562 L 607.925781 166.476562 L 607.925781 176.453125 L 367.234375 176.453125 Z M 367.234375 166.476562 " clip-rule="nonzero"/></clipPath><clipPath id="c299781cb7"><path d="M 367.234375 238.34375 L 607.925781 238.34375 L 607.925781 246.480469 L 367.234375 246.480469 Z M 367.234375 238.34375 " clip-rule="nonzero"/></clipPath><clipPath id="0087e06ec4"><path d="M 367.234375 228.464844 L 607.925781 228.464844 L 607.925781 238.441406 L 367.234375 238.441406 Z M 367.234375 228.464844 " clip-rule="nonzero"/></clipPath><clipPath id="d709346383"><path d="M 367.234375 300.429688 L 607.925781 300.429688 L 607.925781 308.5625 L 367.234375 308.5625 Z M 367.234375 300.429688 " clip-rule="nonzero"/></clipPath><clipPath id="88b7eae33e"><path d="M 367.234375 290.546875 L 607.925781 290.546875 L 607.925781 300.523438 L 367.234375 300.523438 Z M 367.234375 290.546875 " clip-rule="nonzero"/></clipPath><clipPath id="5bc70aecbd"><path d="M 367.234375 362.511719 L 607.925781 362.511719 L 607.925781 370.550781 L 367.234375 370.550781 Z M 367.234375 362.511719 " clip-rule="nonzero"/></clipPath><clipPath id="acea825f10"><path d="M 367.234375 352.535156 L 607.925781 352.535156 L 607.925781 362.609375 L 367.234375 362.609375 Z M 367.234375 352.535156 " clip-rule="nonzero"/></clipPath><clipPath id="574b28be5a"><path d="M 367.234375 424.5 L 607.925781 424.5 L 607.925781 432.636719 L 367.234375 432.636719 Z M 367.234375 424.5 " clip-rule="nonzero"/></clipPath><clipPath id="b025cd7026"><path d="M 367.234375 414.621094 L 607.925781 414.621094 L 607.925781 424.597656 L 367.234375 424.597656 Z M 367.234375 414.621094 " clip-rule="nonzero"/></clipPath><clipPath id="ed804b597a"><path d="M 375 138 L 425 138 L 425 488.039062 L 375 488.039062 Z M 375 138 " clip-rule="nonzero"/></clipPath><clipPath id="3d3e6793cf"><path d="M 550 138 L 600 138 L 600 488.039062 L 550 488.039062 Z M 550 138 " clip-rule="nonzero"/></clipPath><clipPath id="03cdc03841"><path d="M 466 38.789062 L 525 38.789062 L 525 116 L 466 116 Z M 466 38.789062 " clip-rule="nonzero"/></clipPath></defs><g clip-path="url(#c0fffdbf62)"><path fill="#ffffff" d="M 0 0.140625 L 1024.5 0.140625 L 1024.5 576.140625 L 0 576.140625 Z M 0 0.140625 " fill-opacity="1" fill-rule="nonzero"/><path fill="#ffffff" d="M 0 0.140625 L 1024.5 0.140625 L 1024.5 576.140625 L 0 576.140625 Z M 0 0.140625 " fill-opacity="1" fill-rule="nonzero"/></g><path fill="#a89b9a" d="M 380.445312 473.730469 L 415.535156 138.976562 L 403.339844 138.976562 L 368.714844 473.730469 L 380.445312 473.730469 " fill-opacity="1" fill-rule="nonzero"/><path fill="#a89b9a" d="M 594.484375 473.730469 L 559.394531 138.976562 L 571.589844 138.976562 L 606.214844 473.730469 L 594.484375 473.730469 " fill-opacity="1" fill-rule="nonzero"/><g clip-path="url(#5e54acda1f)"><path fill="#c18570" d="M 607.925781 184.378906 L 367.234375 184.378906 L 367.234375 176.371094 L 607.925781 176.371094 L 607.925781 184.378906 " fill-opacity="1" fill-rule="nonzero"/></g><g clip-path="url(#76689aa05c)"><path fill="#ad7760" d="M 607.925781 176.367188 L 367.234375 176.367188 L 387.726562 166.476562 L 587.4375 166.476562 L 607.925781 176.367188 " fill-opacity="1" fill-rule="nonzero"/></g><g clip-path="url(#c299781cb7)"><path fill="#c18570" d="M 607.925781 246.429688 L 367.234375 246.429688 L 367.234375 238.417969 L 607.925781 238.417969 L 607.925781 246.429688 " fill-opacity="1" fill-rule="nonzero"/></g><g clip-path="url(#0087e06ec4)"><path fill="#ad7760" d="M 607.925781 238.417969 L 367.234375 238.417969 L 387.726562 228.527344 L 587.4375 228.527344 L 607.925781 238.417969 " fill-opacity="1" fill-rule="nonzero"/></g><g clip-path="url(#d709346383)"><path fill="#c18570" d="M 607.925781 308.480469 L 367.234375 308.480469 L 367.234375 300.472656 L 607.925781 300.472656 L 607.925781 308.480469 " fill-opacity="1" fill-rule="nonzero"/></g><g clip-path="url(#88b7eae33e)"><path fill="#ad7760" d="M 607.925781 300.472656 L 367.234375 300.472656 L 387.726562 290.578125 L 587.4375 290.578125 L 607.925781 300.472656 " fill-opacity="1" fill-rule="nonzero"/></g><g clip-path="url(#5bc70aecbd)"><path fill="#c18570" d="M 607.925781 370.53125 L 367.234375 370.53125 L 367.234375 362.523438 L 607.925781 362.523438 L 607.925781 370.53125 " fill-opacity="1" fill-rule="nonzero"/></g><g clip-path="url(#acea825f10)"><path fill="#ad7760" d="M 607.925781 362.523438 L 367.234375 362.523438 L 387.726562 352.628906 L 587.4375 352.628906 L 607.925781 362.523438 " fill-opacity="1" fill-rule="nonzero"/></g><g clip-path="url(#574b28be5a)"><path fill="#c18570" d="M 607.925781 432.582031 L 367.234375 432.582031 L 367.234375 424.574219 L 607.925781 424.574219 L 607.925781 432.582031 " fill-opacity="1" fill-rule="nonzero"/></g><g clip-path="url(#b025cd7026)"><path fill="#ad7760" d="M 607.925781 424.574219 L 367.234375 424.574219 L 387.726562 414.679688 L 587.4375 414.679688 L 607.925781 424.574219 " fill-opacity="1" fill-rule="nonzero"/></g><g clip-path="url(#ed804b597a)"><path fill="#b5aba9" d="M 411.957031 138.976562 L 375.855469 488.039062 L 387.5625 488.039062 L 424.15625 138.976562 L 411.957031 138.976562 " fill-opacity="1" fill-rule="nonzero"/></g><g clip-path="url(#3d3e6793cf)"><path fill="#b5aba9" d="M 562.972656 138.976562 L 599.074219 488.039062 L 587.367188 488.039062 L 550.773438 138.976562 L 562.972656 138.976562 " fill-opacity="1" fill-rule="nonzero"/></g><path fill="#f4e5e1" d="M 484.328125 169.488281 C 484.328125 170.296875 475.007812 170.953125 463.511719 170.953125 C 452.015625 170.953125 442.695312 170.296875 442.695312 169.488281 C 442.695312 168.679688 452.015625 168.023438 463.511719 168.023438 C 475.007812 168.023438 484.328125 168.679688 484.328125 169.488281 " fill-opacity="1" fill-rule="nonzero"/><path fill="#f4e5e1" d="M 490.507812 136.046875 C 490.507812 136.046875 497.175781 150.691406 484.328125 169.488281 L 442.695312 169.488281 C 429.847656 150.691406 436.515625 136.046875 436.515625 136.046875 L 490.507812 136.046875 " fill-opacity="1" fill-rule="nonzero"/><path fill="#d8c4bf" d="M 490.507812 136.042969 C 490.507812 136.855469 478.421875 137.511719 463.511719 137.511719 C 448.601562 137.511719 436.515625 136.855469 436.515625 136.042969 C 436.515625 135.234375 448.601562 134.582031 463.511719 134.582031 C 478.421875 134.582031 490.507812 135.234375 490.507812 136.042969 " fill-opacity="1" fill-rule="nonzero"/><path fill="#5d915d" d="M 476.414062 118.714844 C 476.414062 116.625 475.824219 111.289062 469.023438 111.148438 C 462.226562 111.003906 460.3125 115.488281 460.3125 115.488281 C 458.921875 114.316406 452.074219 114.628906 449.960938 120.042969 C 448.433594 123.949219 448.117188 127.855469 448.117188 127.855469 C 448.117188 127.855469 443.78125 126.335938 442.683594 129.570312 C 441.585938 132.800781 443.894531 137.054688 443.894531 137.054688 C 448.816406 137.335938 455.785156 137.511719 463.511719 137.511719 C 472.59375 137.511719 480.625 137.269531 485.519531 136.894531 C 486.023438 136.332031 486.464844 135.695312 486.714844 135.015625 C 487.582031 132.628906 485.847656 130.050781 485.847656 130.050781 C 486.496094 123.679688 476.414062 118.714844 476.414062 118.714844 " fill-opacity="1" fill-rule="nonzero"/><path fill="#84b685" d="M 452.554688 117.125 C 450.796875 115.363281 447.382812 111.863281 445.625 110.105469 C 445.371094 109.851562 445.078125 109.578125 444.71875 109.585938 C 444.359375 109.585938 444.042969 110.070312 444.304688 110.3125 C 442.855469 107.898438 440.480469 106.0625 437.792969 105.234375 C 437.074219 105.011719 436.433594 105.824219 436.867188 106.441406 C 436.917969 106.515625 436.972656 106.582031 437.035156 106.640625 C 435.878906 106.226562 434.984375 105.316406 434.050781 104.515625 C 433.117188 103.714844 432.007812 102.96875 430.777344 103.011719 C 429.550781 103.054688 428.328125 104.257812 428.710938 105.429688 C 427.652344 103.835938 425.800781 102.800781 423.890625 102.730469 C 422.796875 102.6875 421.390625 103.84375 422.203125 104.578125 C 420.507812 104.644531 418.792969 104.171875 417.371094 103.25 C 416.816406 102.890625 416.246094 102.445312 415.585938 102.464844 C 414.464844 102.5 413.90625 104.246094 414.800781 104.925781 C 413.359375 104.546875 411.890625 104.277344 410.410156 104.121094 C 409.046875 103.976562 407.066406 104.707031 407.574219 105.976562 C 404.691406 105.332031 401.683594 105.277344 398.777344 105.800781 C 398.160156 105.910156 397.878906 106.644531 398.265625 107.144531 L 398.628906 107.609375 C 396.429688 107.007812 393.9375 107.84375 392.457031 109.554688 C 392.007812 110.070312 392.148438 110.867188 392.75 111.1875 L 393.179688 111.414062 C 391.785156 112.277344 390.386719 113.148438 388.992188 114.015625 C 388.113281 114.558594 387.117188 115.3125 387.355469 116.40625 C 387.480469 116.984375 387.945312 117.421875 388.507812 117.601562 C 389.640625 117.960938 390.714844 117.472656 391.71875 117 C 393.664062 116.085938 395.613281 115.171875 397.558594 114.257812 C 396.960938 115.132812 396.394531 116.429688 397.34375 117.089844 C 397.808594 117.410156 398.425781 117.417969 398.921875 117.148438 C 401.65625 115.648438 404.238281 113.878906 406.625 111.875 C 405.636719 112.367188 406.027344 114.046875 407.039062 114.496094 C 408.046875 114.945312 409.21875 114.566406 410.242188 114.144531 C 412.472656 113.222656 414.617188 112.097656 416.644531 110.792969 C 415.578125 111.757812 416.433594 113.734375 417.8125 114.152344 C 419.1875 114.574219 420.652344 113.941406 421.890625 113.207031 C 423.128906 112.472656 424.363281 111.589844 425.796875 111.460938 L 425.675781 111.816406 C 425.496094 112.355469 425.820312 112.925781 426.375 113.058594 C 428.640625 113.585938 430.992188 113.734375 433.308594 113.496094 C 432.238281 113.460938 432 115.226562 432.84375 115.890625 C 433.6875 116.554688 434.886719 116.40625 435.945312 116.226562 C 437.460938 115.964844 438.976562 115.703125 440.496094 115.445312 C 440.019531 115.660156 440.019531 116.394531 440.375 116.777344 C 440.726562 117.160156 441.28125 117.269531 441.796875 117.34375 C 443.980469 117.652344 446.21875 117.609375 448.390625 117.222656 C 449.476562 118.34375 451.523438 118.292969 452.554688 117.125 " fill-opacity="1" fill-rule="nonzero"/><path fill="#659c65" d="M 453.429688 118.238281 C 453.320312 118.238281 453.214844 118.207031 453.121094 118.144531 C 453.058594 118.101562 447.007812 114.003906 437.253906 111.058594 C 428.261719 108.339844 414.191406 106.074219 398.207031 110.699219 C 397.914062 110.78125 397.609375 110.613281 397.527344 110.324219 C 397.441406 110.03125 397.609375 109.726562 397.902344 109.644531 C 405.082031 107.566406 412.484375 106.671875 419.902344 106.984375 C 425.835938 107.238281 431.792969 108.257812 437.609375 110.019531 C 447.515625 113.015625 453.679688 117.195312 453.738281 117.234375 C 453.988281 117.40625 454.054688 117.75 453.882812 118 C 453.777344 118.15625 453.605469 118.238281 453.429688 118.238281 " fill-opacity="1" fill-rule="nonzero"/><path fill="#84b685" d="M 456.96875 118.714844 C 456.632812 115.996094 456.292969 112.011719 455.957031 109.296875 C 455.84375 108.398438 455.667969 107.394531 454.917969 106.890625 C 454.167969 106.390625 452.824219 107.089844 453.183594 107.917969 C 451.855469 105.261719 451.175781 102.75 449.695312 100.386719 C 449.136719 99.5 447.945312 99.246094 447.082031 99.835938 C 446.855469 99.988281 446.695312 100.148438 446.683594 100.3125 C 446.089844 97.308594 445.117188 94.519531 443.226562 92.191406 C 442.71875 91.5625 441.78125 91.441406 441.167969 91.964844 C 441.046875 92.066406 440.960938 92.175781 440.921875 92.300781 C 440.242188 89.660156 439.019531 87.15625 437.347656 85 C 436.894531 84.417969 436.363281 83.824219 435.644531 83.644531 C 434.929688 83.457031 434.015625 83.890625 433.972656 84.628906 C 433.53125 82.015625 432.9375 79.710938 431.28125 78 C 430.6875 77.382812 429.757812 77.210938 428.988281 77.582031 C 428.632812 77.757812 428.25 77.914062 428.058594 78.054688 C 427.230469 75.847656 426.132812 73.691406 424.46875 72.113281 C 423.675781 71.359375 422.367188 71.679688 421.988281 72.707031 L 421.964844 72.769531 C 420.351562 71.339844 418.128906 70.617188 415.984375 70.832031 C 415.804688 70.855469 415.628906 70.898438 415.472656 70.988281 C 414.734375 71.40625 414.957031 72.253906 415.238281 72.898438 C 415.917969 74.460938 416.789062 75.945312 417.824219 77.300781 C 416.480469 77.644531 416.09375 79.554688 416.8125 80.746094 C 417.535156 81.933594 418.921875 82.523438 420.246094 82.941406 C 421.570312 83.359375 422.980469 83.714844 424.011719 84.648438 C 423.605469 84.667969 423.207031 84.789062 422.855469 84.988281 C 422.195312 85.367188 422.269531 86.339844 422.960938 86.648438 C 426.027344 88.027344 429.367188 88.789062 432.726562 88.871094 C 431.726562 90.132812 432.265625 92.113281 433.453125 93.203125 C 434.640625 94.292969 436.277344 94.714844 437.839844 95.097656 C 436.886719 95.460938 435.882812 95.855469 435.3125 96.746094 C 435.050781 97.160156 434.933594 97.65625 435.027344 98.136719 C 435.210938 99.050781 435.960938 99.296875 436.660156 99.511719 C 438.644531 100.121094 440.625 100.734375 442.605469 101.34375 C 441.285156 101.472656 441.015625 103.519531 441.953125 104.460938 C 442.886719 105.398438 444.347656 105.503906 445.671875 105.554688 C 444.996094 105.609375 444.597656 106.425781 444.746094 107.089844 C 444.894531 107.75 445.414062 108.261719 445.933594 108.695312 C 447.042969 109.617188 448.273438 110.394531 449.585938 110.996094 C 449.023438 110.65625 448.289062 111.332031 448.320312 111.988281 C 448.355469 112.640625 448.855469 113.171875 449.347656 113.601562 C 450.789062 114.875 455.191406 117.980469 456.96875 118.714844 " fill-opacity="1" fill-rule="nonzero"/><path fill="#659c65" d="M 461.1875 124.246094 C 459.378906 121.375 454.597656 113.929688 448.394531 105.480469 C 441.078125 95.515625 430.226562 82.058594 420.089844 74.578125 C 419.847656 74.398438 419.503906 74.449219 419.324219 74.695312 C 419.144531 74.9375 419.195312 75.28125 419.4375 75.460938 C 438.644531 89.632812 460.816406 125.71875 461.039062 126.082031 C 461.085938 126.160156 461.152344 126.21875 461.222656 126.261719 L 461.1875 124.246094 " fill-opacity="1" fill-rule="nonzero"/><path fill="#84b685" d="M 461.90625 122.640625 C 460.6875 120.613281 457.167969 115.382812 456.269531 113.230469 C 455.804688 112.117188 457.058594 111.007812 458.054688 111.6875 C 458.121094 111.734375 458.183594 111.789062 458.238281 111.847656 C 456.796875 110.003906 455.328125 108.269531 454.808594 106.117188 C 454.640625 105.410156 455.113281 104.707031 455.832031 104.59375 C 456.324219 104.519531 456.804688 104.496094 457.035156 104.714844 C 455.484375 102.84375 454.265625 100.507812 453.878906 98.09375 C 453.714844 97.066406 454.703125 96.222656 455.679688 96.582031 C 456.1875 96.765625 456.671875 96.984375 457.066406 97.226562 C 455.730469 95.261719 454.871094 92.976562 454.59375 90.617188 C 454.480469 89.691406 454.5 88.640625 455.144531 87.964844 C 455.789062 87.292969 457.230469 87.480469 457.335938 88.410156 C 456.4375 86.09375 455.539062 83.777344 454.644531 81.460938 C 454.265625 80.492188 453.890625 79.402344 454.273438 78.429688 C 454.660156 77.460938 456.210938 77.007812 456.730469 77.914062 C 454.601562 75.75 453.53125 72.617188 453.804688 69.601562 C 453.886719 68.65625 454.910156 68.109375 455.742188 68.570312 C 456.179688 68.8125 456.597656 69.09375 456.988281 69.410156 C 455.78125 67.792969 455.535156 65.671875 455.328125 63.660156 C 455.253906 62.929688 455.164062 61.132812 457.378906 61.761719 C 455.566406 59.449219 454.324219 56.464844 454.839844 53.660156 C 454.964844 52.972656 455.730469 52.609375 456.351562 52.933594 L 457.277344 53.410156 C 456.636719 51.339844 456.796875 49.046875 457.660156 47.058594 C 458.132812 45.980469 459.605469 45.796875 460.289062 46.757812 C 461.835938 48.941406 462.527344 51.738281 462.085938 54.382812 C 462.230469 53.023438 464.484375 53.023438 465.183594 54.199219 C 465.878906 55.371094 465.5 56.863281 465.105469 58.167969 C 464.707031 59.46875 464.308594 60.773438 463.910156 62.078125 C 465.246094 62.199219 465.480469 64.054688 465.277344 65.382812 C 464.789062 68.5625 464.007812 71.695312 462.945312 74.734375 C 463.8125 73.832031 465.496094 74.511719 465.949219 75.675781 C 466.402344 76.839844 465.992188 78.15625 465.464844 79.285156 C 464.9375 80.421875 464.277344 81.542969 464.21875 82.792969 C 466 85.714844 465.730469 89.746094 463.578125 92.40625 C 464.027344 91.605469 465.363281 91.84375 465.851562 92.621094 C 466.339844 93.398438 466.222656 94.402344 466.035156 95.296875 C 465.515625 97.828125 464.605469 100.273438 463.34375 102.523438 L 463.429688 102.515625 C 464.585938 102.425781 465.523438 103.425781 465.371094 104.578125 C 465.023438 107.132812 463.996094 109.601562 462.398438 111.632812 C 463.492188 111.339844 464.847656 111.109375 465.457031 112.316406 C 465.734375 112.863281 465.738281 113.507812 465.519531 114.082031 L 461.90625 122.640625 " fill-opacity="1" fill-rule="nonzero"/><path fill="#659c65" d="M 461.480469 137.507812 C 461.800781 137.507812 462.125 137.507812 462.449219 137.507812 C 462.492188 137.429688 462.515625 137.339844 462.515625 137.246094 L 461.050781 54.265625 C 461.046875 53.964844 460.800781 53.722656 460.503906 53.722656 C 460.5 53.722656 460.496094 53.722656 460.492188 53.722656 C 460.191406 53.726562 459.949219 53.980469 459.953125 54.28125 L 461.417969 137.261719 C 461.417969 137.351562 461.445312 137.433594 461.480469 137.507812 " fill-opacity="1" fill-rule="nonzero"/><g clip-path="url(#03cdc03841)"><path fill="#84b685" d="M 467.589844 115.027344 C 466.167969 111.65625 465.574219 107.109375 466.390625 103.40625 C 466.546875 102.691406 467.398438 102.363281 467.976562 102.8125 C 468.355469 103.101562 468.664062 103.464844 468.847656 103.9375 C 468.277344 100.753906 468.433594 97.410156 470.21875 94.792969 C 470.511719 94.363281 471.0625 94.203125 471.539062 94.402344 C 471.988281 94.585938 472.417969 94.851562 472.460938 95.164062 C 472.367188 93.125 472.570312 91.078125 473.0625 89.101562 C 473.265625 88.273438 473.59375 87.371094 474.355469 86.988281 C 475.121094 86.609375 476.308594 87.273438 476.039062 88.082031 C 476.226562 85.6875 476.621094 83.386719 477.851562 81.480469 C 478.367188 80.679688 479.53125 80.640625 480.125 81.386719 L 480.640625 82.039062 C 481.332031 79.289062 481.242188 77.046875 482.355469 74.746094 C 482.683594 74.0625 483.46875 73.734375 484.1875 73.960938 C 484.964844 74.203125 485.804688 74.464844 485.839844 74.960938 C 486.132812 72.378906 486.863281 69.988281 488.460938 68.027344 C 488.921875 67.464844 489.765625 67.359375 490.320312 67.824219 C 490.605469 68.0625 490.785156 68.363281 490.730469 68.679688 C 491.335938 66.601562 492.253906 64.613281 493.445312 62.804688 C 493.933594 62.054688 494.585938 61.273438 495.476562 61.210938 C 496.367188 61.148438 497.1875 62.382812 496.5 62.953125 C 497.503906 59.929688 498.570312 57.179688 500.53125 54.792969 C 500.992188 54.234375 501.824219 54.15625 502.375 54.625 C 502.734375 54.929688 503.046875 55.261719 503.109375 55.632812 C 503.257812 52.847656 504.144531 50.300781 506.21875 48.855469 C 506.988281 48.316406 508.0625 48.660156 508.394531 49.535156 L 508.960938 51.027344 C 509.402344 48.238281 510.625 45.707031 512.78125 44.007812 C 513.417969 43.503906 514.371094 43.742188 514.671875 44.496094 C 514.859375 44.96875 514.867188 45.46875 514.558594 45.859375 C 515.816406 42.203125 519.210938 39.367188 523.042969 38.835938 C 523.402344 38.785156 523.773438 38.839844 524.078125 39.039062 C 524.964844 39.613281 524.578125 40.796875 524.117188 41.644531 C 522.851562 43.960938 521.363281 46.160156 519.6875 48.199219 C 520.214844 47.414062 521.515625 48.109375 521.820312 49.007812 C 522.378906 50.640625 521.386719 52.480469 519.957031 53.453125 C 518.527344 54.425781 516.761719 54.726562 515.058594 55.007812 C 515.722656 54.75 516.429688 55.507812 516.386719 56.222656 C 516.347656 56.933594 515.835938 57.523438 515.3125 58.007812 C 513.296875 59.894531 510.742188 61.183594 508.03125 61.691406 C 508.871094 61.757812 509.242188 62.90625 508.875 63.664062 C 508.503906 64.421875 507.703125 64.855469 506.953125 65.238281 C 504.847656 66.304688 502.738281 67.371094 500.632812 68.4375 C 501.53125 67.851562 502.707031 69.085938 502.492188 70.132812 C 502.277344 71.183594 501.300781 71.871094 500.386719 72.433594 C 498.210938 73.761719 495.949219 74.953125 493.621094 75.992188 C 493.964844 75.691406 494.527344 76.191406 494.449219 76.644531 C 494.363281 77.097656 493.945312 77.394531 493.558594 77.644531 C 492.199219 78.515625 490.839844 79.386719 489.484375 80.257812 C 490.101562 79.691406 491.1875 80.390625 491.253906 81.226562 C 491.320312 82.0625 490.746094 82.804688 490.15625 83.394531 C 488.925781 84.621094 487.457031 85.609375 485.863281 86.285156 C 486.484375 85.566406 487.769531 86.519531 487.644531 87.464844 C 487.519531 88.40625 486.644531 89.042969 485.839844 89.550781 C 484.121094 90.636719 482.367188 91.65625 480.574219 92.609375 C 480.675781 92.632812 480.773438 92.660156 480.871094 92.6875 C 482.21875 93.089844 482.613281 94.816406 481.585938 95.777344 C 479.929688 97.328125 478.183594 98.777344 476.359375 100.125 C 477.488281 100.035156 478.316406 101.371094 478.121094 102.488281 C 477.925781 103.609375 477.058594 104.476562 476.183594 105.195312 C 475.304688 105.914062 474.34375 106.597656 473.816406 107.601562 C 474.445312 107.394531 475.046875 108.15625 474.953125 108.816406 C 474.859375 109.472656 474.339844 109.976562 473.84375 110.414062 C 472.109375 111.945312 469.53125 113.773438 467.589844 115.027344 " fill-opacity="1" fill-rule="nonzero"/></g><path fill="#659c65" d="M 519.457031 44.382812 C 519.253906 44.15625 518.90625 44.140625 518.679688 44.347656 C 518.53125 44.480469 503.335938 58.285156 487.390625 78.832031 C 478.203125 90.675781 470.726562 106.457031 467.085938 114.8125 C 465.777344 117.8125 463.570312 123.902344 462.339844 127.347656 L 462.394531 130.394531 C 462.433594 130.347656 462.464844 130.292969 462.484375 130.234375 C 462.523438 130.128906 466.234375 119.515625 468.09375 115.25 C 471.710938 106.945312 479.144531 91.253906 488.257812 79.507812 C 504.140625 59.039062 519.265625 45.296875 519.417969 45.160156 C 519.644531 44.957031 519.660156 44.609375 519.457031 44.382812 " fill-opacity="1" fill-rule="nonzero"/><path fill="#84b685" d="M 458.796875 124.882812 C 457.929688 122.128906 453.457031 116.515625 452.074219 114.628906 C 451.242188 113.488281 449.609375 112.261719 448.636719 113.289062 C 447.914062 114.046875 448.421875 115.285156 448.960938 116.1875 C 446.496094 113.914062 443.03125 111.496094 440.105469 113.132812 L 441.050781 115.386719 C 440.011719 115.035156 439.160156 114.273438 438.164062 113.816406 C 437.164062 113.355469 435.8125 113.292969 435.128906 114.152344 C 434.066406 115.480469 435.535156 117.320312 436.878906 118.367188 C 435.105469 118.234375 433.296875 118.601562 431.71875 119.421875 C 430.75 119.925781 429.804688 120.683594 429.554688 121.75 C 429.308594 122.8125 430.121094 124.132812 431.210938 124.015625 C 427.855469 124.730469 424.71875 126.410156 422.253906 128.792969 C 421.679688 129.347656 421.832031 130.3125 422.546875 130.671875 C 423.566406 131.179688 424.71875 131.4375 425.859375 131.390625 C 425.226562 132.757812 423.96875 133.707031 422.867188 134.734375 C 421.765625 135.765625 420.730469 137.082031 420.78125 138.585938 C 420.835938 140.09375 422.585938 141.492188 423.863281 140.695312 C 421.394531 142.949219 419.523438 145.851562 418.46875 149.027344 C 418.128906 150.050781 418.949219 151.09375 420.027344 150.996094 L 422.097656 150.804688 C 421.675781 152.300781 420.609375 153.503906 419.804688 154.832031 C 419 156.15625 418.457031 157.855469 419.167969 159.234375 C 419.878906 160.613281 422.308594 160.894531 422.835938 159.4375 C 421.472656 162.121094 420.335938 164.925781 419.453125 167.808594 C 419.234375 168.515625 419.832031 169.210938 420.570312 169.109375 C 421.1875 169.023438 421.792969 168.839844 422.347656 168.558594 C 420.296875 171.085938 418.707031 173.992188 417.683594 177.085938 C 417.53125 177.542969 417.746094 178.042969 418.179688 178.257812 C 419.304688 178.808594 420.605469 178.992188 421.835938 178.753906 C 420.027344 180.816406 418.589844 183.203125 417.609375 185.765625 C 417.539062 185.945312 417.484375 186.136719 417.460938 186.328125 C 417.203125 188.394531 419.796875 188.851562 421.65625 188.714844 C 420.496094 189.878906 419.273438 191.15625 419.007812 192.78125 C 418.742188 194.40625 419.980469 196.355469 421.609375 196.140625 C 420.394531 197.222656 419.179688 198.308594 417.964844 199.394531 C 417.40625 199.890625 416.832031 200.414062 416.554688 201.101562 C 415.832031 202.886719 418.023438 205.027344 419.789062 204.257812 C 419.164062 206.683594 414.445312 206.207031 414.246094 208.722656 C 414.1875 209.417969 414.546875 210.085938 415.121094 210.488281 C 416.214844 211.261719 417.519531 211.160156 418.765625 211.050781 C 416.417969 212.117188 414.078125 213.199219 411.746094 214.300781 C 411.574219 214.382812 411.40625 214.488281 411.277344 214.632812 C 410.425781 215.53125 411.539062 216.648438 412.578125 216.863281 C 413.519531 217.054688 414.59375 216.957031 415.332031 217.574219 C 414.195312 217.863281 413.03125 218.171875 412.089844 218.859375 C 411.144531 219.550781 410.457031 220.726562 410.6875 221.871094 C 410.921875 223.019531 412.332031 223.875 413.339844 223.285156 C 411.917969 224.414062 410.761719 225.878906 410.007812 227.53125 C 409.792969 227.996094 409.710938 228.519531 409.808594 229.023438 C 410.027344 230.15625 410.894531 230.34375 411.6875 230.359375 C 415.1875 230.421875 418.390625 227.171875 418.277344 223.671875 C 419.535156 225.175781 422.230469 224.226562 423.058594 222.449219 C 423.890625 220.675781 423.457031 218.59375 423.007812 216.683594 C 425.226562 214.253906 425.621094 210.339844 423.933594 207.511719 L 425.023438 207.886719 C 425.816406 208.15625 426.664062 207.671875 426.847656 206.855469 C 427.394531 204.367188 426.644531 201.769531 425.519531 199.347656 L 427.027344 200 C 427.8125 197.164062 427.484375 194.035156 426.128906 191.425781 C 426.605469 191.84375 427.410156 191.5625 427.746094 191.023438 C 428.082031 190.488281 428.074219 189.8125 428.03125 189.183594 C 427.832031 186.074219 427.089844 183.003906 425.855469 180.144531 L 426.285156 180.308594 C 426.886719 180.539062 427.539062 180.121094 427.585938 179.480469 C 427.855469 176.039062 427.433594 172.542969 426.351562 169.265625 C 426.816406 169.828125 427.78125 169.65625 428.257812 169.113281 C 428.738281 168.566406 428.847656 167.796875 428.894531 167.070312 C 429.132812 163.160156 428.039062 159.1875 425.828125 155.953125 C 426.171875 156.761719 427.4375 156.75 428.046875 156.117188 C 428.65625 155.488281 428.765625 154.53125 428.773438 153.652344 C 428.792969 151.289062 428.328125 148.917969 427.417969 146.734375 C 427.542969 147.53125 428.640625 147.851562 429.347656 147.460938 C 430.050781 147.074219 430.402344 146.257812 430.585938 145.472656 C 431.296875 142.46875 430.285156 139.363281 429.289062 136.441406 C 429.367188 137.328125 430.648438 137.640625 431.378906 137.140625 C 432.109375 136.636719 432.386719 135.699219 432.5625 134.828125 C 433.058594 132.375 433.164062 129.847656 432.878906 127.359375 C 432.980469 127.9375 433.695312 128.371094 434.296875 128.261719 C 436.710938 127.179688 438.011719 125.636719 438.785156 123.109375 C 438.578125 123.953125 438.507812 125.175781 438.710938 126.007812 C 438.980469 127.121094 440.554688 127.003906 440.933594 126.742188 C 442.882812 125.390625 444.304688 123.949219 446.253906 122.597656 C 445.925781 123.1875 444.871094 124.375 445.71875 125.070312 C 446.5625 125.769531 447.835938 125.589844 448.84375 125.15625 C 449.851562 124.722656 450.789062 124.070312 451.871094 123.898438 C 450.679688 124.109375 450.21875 125.804688 450.914062 126.796875 C 451.609375 127.789062 453.015625 128.058594 454.1875 127.765625 C 455.363281 127.46875 457.832031 125.613281 458.796875 124.882812 " fill-opacity="1" fill-rule="nonzero"/><path fill="#659c65" d="M 416.105469 223.25 C 416.003906 223.25 415.898438 223.222656 415.804688 223.160156 C 415.550781 222.996094 415.480469 222.65625 415.644531 222.402344 C 423.285156 210.640625 423.453125 191.488281 423.628906 171.210938 C 423.671875 166.433594 423.714844 161.492188 423.851562 156.535156 C 424.21875 143.296875 425.660156 134.375 428.382812 128.460938 C 431.011719 122.757812 434.929688 119.4375 441.082031 117.699219 C 449.433594 115.335938 456.019531 120.957031 459.203125 124.515625 C 460.28125 125.71875 462.160156 127.488281 462.179688 127.503906 C 462.398438 127.710938 462.410156 128.058594 462.203125 128.28125 C 461.996094 128.503906 461.648438 128.511719 461.425781 128.304688 C 461.347656 128.230469 459.496094 126.488281 458.386719 125.25 C 455.375 121.878906 449.15625 116.554688 441.382812 118.753906 C 435.5625 120.402344 431.863281 123.535156 429.378906 128.921875 C 426.71875 134.695312 425.3125 143.476562 424.949219 156.566406 C 424.8125 161.511719 424.769531 166.445312 424.726562 171.222656 C 424.636719 181.664062 424.550781 191.535156 423.515625 200.351562 C 422.351562 210.296875 420.144531 217.492188 416.566406 223 C 416.460938 223.160156 416.285156 223.25 416.105469 223.25 " fill-opacity="1" fill-rule="nonzero"/><path fill="#84b685" d="M 460.179688 129.640625 C 460.003906 127.75 455.859375 126.140625 453.613281 126.335938 C 453.257812 126.367188 453.027344 126.734375 453.148438 127.074219 C 453.324219 127.566406 453.636719 128.011719 454.046875 128.335938 C 451.796875 128.429688 449.71875 130.027344 448.933594 132.121094 C 448.714844 132.703125 449.121094 133.339844 449.742188 133.367188 C 450.046875 133.382812 450.355469 133.347656 450.648438 133.265625 C 448.644531 133.628906 447.113281 135.496094 446.859375 137.484375 C 446.726562 138.515625 447.460938 139.457031 448.488281 139.609375 L 449.535156 139.761719 C 447.890625 140.785156 446.113281 141.96875 445.582031 143.832031 C 445.054688 145.695312 446.789062 148.125 448.59375 147.421875 C 447.246094 148.667969 446.253906 150.289062 445.75 152.054688 C 445.410156 153.257812 446.054688 155.164062 447.203125 154.664062 C 446.367188 155.933594 445.636719 157.363281 445.675781 158.882812 C 445.710938 160.402344 446.746094 161.988281 448.253906 162.175781 C 447.03125 163.511719 445.753906 164.960938 445.484375 166.753906 C 445.214844 168.542969 446.484375 170.675781 448.292969 170.574219 C 447.164062 172.457031 446.085938 174.363281 445.054688 176.296875 C 444.445312 177.4375 443.84375 178.785156 444.371094 179.964844 C 444.898438 181.140625 447.121094 181.191406 447.175781 179.90625 C 446.351562 181.675781 445.601562 183.480469 444.9375 185.316406 C 444.691406 185.996094 444.453125 186.734375 444.65625 187.425781 C 444.859375 188.121094 445.707031 188.660156 446.320312 188.28125 C 445.4375 189.847656 444.820312 191.566406 444.5 193.335938 C 444.308594 194.378906 445.097656 195.34375 446.152344 195.359375 L 446.8125 195.367188 C 446.234375 196.640625 445.660156 197.910156 445.082031 199.183594 C 444.6875 200.050781 444.285156 201.003906 444.515625 201.929688 C 444.746094 202.851562 445.949219 203.554688 446.683594 202.949219 C 446.335938 204.554688 445.125 205.839844 444.625 207.398438 C 444.121094 208.964844 444.925781 211.207031 446.5625 211.082031 C 444.707031 212.96875 443.519531 215.492188 443.214844 218.121094 C 443.101562 219.070312 443.917969 219.890625 444.871094 219.777344 C 445.234375 219.730469 445.59375 219.632812 445.925781 219.484375 C 444.296875 220.703125 443.132812 222.535156 442.722656 224.535156 C 442.507812 225.589844 443.21875 227.1875 444.152344 226.644531 C 442.035156 228.113281 442.578125 231.347656 443.476562 233.761719 C 443.765625 234.53125 444.105469 235.351562 445.082031 235.527344 C 445.710938 235.640625 446.351562 235.425781 446.835938 235.003906 C 447.796875 234.164062 448.046875 232.890625 448.265625 231.683594 C 448.980469 232.667969 450.6875 231.976562 451.121094 230.839844 C 451.554688 229.707031 451.222656 228.445312 451.136719 227.234375 C 450.914062 224.101562 452.367188 221.128906 453.300781 218.128906 C 454.230469 215.128906 454.519531 211.496094 452.390625 209.183594 C 453.609375 206.421875 453.804688 203.214844 452.921875 200.328125 C 455.03125 197.617188 454.890625 193.398438 452.601562 190.839844 C 454.074219 190.617188 454.277344 188.589844 454.070312 187.113281 C 453.632812 183.996094 453.09375 180.886719 452.449219 177.804688 C 453.453125 178.265625 454.09375 176.679688 454.066406 175.574219 C 454 172.960938 453.871094 170.347656 453.675781 167.734375 C 455.949219 165.285156 456.351562 161.296875 454.613281 158.441406 C 456.652344 158.253906 457.457031 155.558594 456.941406 153.578125 C 456.429688 151.59375 455.144531 149.828125 454.941406 147.789062 C 455.582031 148.167969 456.457031 147.730469 456.792969 147.066406 C 457.128906 146.402344 457.066406 145.609375 456.945312 144.875 C 456.648438 143.082031 456.070312 141.332031 455.234375 139.714844 C 456.464844 139.628906 457.597656 138.722656 457.953125 137.539062 C 458.308594 136.359375 457.867188 134.980469 456.890625 134.226562 C 457.984375 134.746094 459.136719 135.183594 459.839844 134.207031 C 460.539062 133.226562 460.289062 130.835938 460.179688 129.640625 " fill-opacity="1" fill-rule="nonzero"/><path fill="#659c65" d="M 446.355469 231.304688 C 446.300781 231.304688 446.246094 231.296875 446.191406 231.28125 C 445.902344 231.191406 445.742188 230.882812 445.832031 230.59375 C 449.941406 217.429688 449.519531 187.894531 449.296875 172.027344 C 449.253906 169.242188 449.222656 166.839844 449.222656 165.09375 C 449.222656 153.441406 451.449219 134.539062 453.191406 131.386719 C 455.054688 128.019531 461.605469 128.984375 461.886719 129.023438 C 462.183594 129.070312 462.390625 129.351562 462.34375 129.652344 C 462.296875 129.949219 462.019531 130.15625 461.71875 130.109375 C 461.660156 130.101562 455.644531 129.21875 454.152344 131.917969 C 452.503906 134.898438 450.320312 153.8125 450.320312 165.09375 C 450.320312 166.832031 450.351562 169.234375 450.394531 172.011719 C 450.621094 187.941406 451.042969 217.585938 446.878906 230.921875 C 446.804688 231.15625 446.589844 231.304688 446.355469 231.304688 " fill-opacity="1" fill-rule="nonzero"/><path fill="#84b685" d="M 465.5 130.277344 C 465.019531 131.863281 462.703125 135.609375 462.515625 137.253906 C 462.359375 138.59375 462.390625 140.15625 463.425781 141.019531 C 464.460938 141.882812 465.335938 141.109375 466.023438 139.652344 C 465.179688 142.800781 465.042969 145.859375 465.382812 149.046875 C 465.414062 149.339844 465.554688 149.617188 465.796875 149.789062 C 466.367188 150.191406 467.203125 149.941406 467.433594 149.28125 C 466.324219 152.152344 466.257812 155.410156 467.25 158.324219 C 467.519531 159.117188 468.765625 159.867188 468.949219 159.046875 C 468.984375 160.765625 468.066406 162.371094 467.921875 164.082031 C 467.777344 165.792969 469.089844 167.902344 470.738281 167.429688 C 470.027344 169.167969 469.519531 170.988281 469.234375 172.839844 C 469.066406 173.90625 469.015625 175.117188 469.726562 175.929688 C 470.433594 176.742188 472.136719 176.539062 472.21875 175.464844 C 470.492188 177.894531 469.425781 180.792969 469.175781 183.761719 C 469.144531 184.136719 469.222656 184.519531 469.417969 184.835938 C 470.214844 186.125 472.105469 185.199219 473.195312 184.214844 C 472.558594 186.097656 472.109375 188.050781 471.851562 190.023438 C 471.710938 191.097656 472.878906 191.867188 473.816406 191.324219 C 473.984375 191.226562 474.144531 191.121094 474.296875 191.003906 C 472.960938 193.382812 471.957031 195.945312 471.320312 198.601562 C 471.089844 199.5625 470.945312 200.699219 471.59375 201.449219 C 472.246094 202.195312 473.875 201.917969 474.355469 201.03125 C 472.964844 203.335938 471.773438 205.226562 471.96875 207.609375 C 472.027344 208.371094 472.671875 208.953125 473.4375 208.964844 C 472.640625 211.367188 471.628906 212.890625 471.214844 214.9375 C 470.964844 216.1875 471.65625 217.453125 472.847656 217.914062 C 473.402344 218.128906 473.890625 218.21875 474.058594 217.867188 C 473.835938 220.378906 473.832031 222.910156 474.050781 225.425781 C 474.078125 225.761719 474.226562 226.085938 474.488281 226.296875 C 475.457031 227.09375 476.550781 225.5 476.777344 224.28125 C 476.929688 225.992188 477.558594 227.652344 478.5625 229.046875 C 479.035156 229.703125 480.054688 229.535156 480.320312 228.769531 C 480.988281 226.851562 481.042969 224.71875 480.445312 222.78125 C 480.5625 223.292969 481.214844 223.726562 481.886719 224.0625 C 482.480469 224.359375 483.179688 223.949219 483.226562 223.285156 C 483.425781 220.417969 482.125 217.476562 480.710938 214.925781 C 480.816406 215.3125 483.027344 215.082031 483.027344 213.5625 C 483.027344 210.136719 481.332031 207.054688 479.988281 203.902344 C 481.15625 199.992188 480.617188 195.601562 478.539062 192.085938 C 479.769531 191.921875 480.636719 190.796875 480.476562 189.566406 C 480.101562 186.675781 479.15625 184.171875 478.320312 181.152344 C 478.359375 181.710938 479.230469 181.839844 479.625 181.4375 C 480.015625 181.035156 480.039062 180.410156 480.019531 179.847656 C 479.871094 175.503906 478.667969 171.199219 476.542969 167.40625 C 477.484375 167.992188 478.671875 167.171875 478.515625 166.078125 C 477.941406 162.097656 476.066406 158.304688 473.222656 155.457031 C 474.5 156.105469 476.101562 154.890625 476.339844 153.476562 C 476.574219 152.0625 475.867188 150.667969 475.058594 149.484375 C 474.25 148.300781 473.292969 147.164062 472.925781 145.777344 C 473.609375 142.917969 472.488281 139.710938 470.171875 137.898438 C 472.039062 137.917969 472.699219 135.386719 472.417969 133.542969 C 472.222656 132.292969 471.839844 131.003906 470.933594 130.117188 C 470.03125 129.234375 466.507812 129.511719 465.5 130.277344 " fill-opacity="1" fill-rule="nonzero"/><path fill="#659c65" d="M 478.554688 220.320312 C 478.292969 220.320312 478.058594 220.132812 478.015625 219.863281 C 477.109375 214.585938 476.582031 205.484375 476.019531 195.847656 C 475.667969 189.839844 475.308594 183.625 474.835938 178.078125 C 473.59375 163.382812 469.183594 141.351562 467.292969 134.730469 C 466.6875 132.609375 465.820312 131.332031 464.785156 131.042969 C 463.558594 130.699219 462.351562 131.796875 462.339844 131.808594 C 462.121094 132.015625 461.773438 132 461.566406 131.78125 C 461.359375 131.558594 461.371094 131.214844 461.589844 131.007812 C 461.660156 130.945312 463.246094 129.480469 465.070312 129.984375 C 466.519531 130.382812 467.621094 131.878906 468.351562 134.429688 C 470.25 141.085938 474.679688 163.226562 475.929688 177.984375 C 476.402344 183.546875 476.765625 189.769531 477.113281 195.785156 C 477.675781 205.390625 478.203125 214.460938 479.097656 219.679688 C 479.148438 219.980469 478.945312 220.261719 478.648438 220.3125 C 478.617188 220.316406 478.585938 220.320312 478.554688 220.320312 " fill-opacity="1" fill-rule="nonzero"/><path fill="#84b685" d="M 469.679688 116.992188 C 470.179688 113.722656 472.003906 108.097656 474.84375 106.105469 C 475.210938 105.847656 475.726562 105.976562 475.917969 106.378906 C 476.101562 106.757812 476.222656 107.152344 476.175781 107.578125 C 477.128906 105.609375 478.449219 103.824219 480.050781 102.339844 C 480.414062 102.003906 480.828125 101.664062 481.324219 101.636719 C 481.816406 101.605469 482.355469 102.054688 482.222656 102.535156 C 483.265625 101.042969 484.5 99.6875 485.882812 98.507812 C 486.28125 98.164062 486.746094 97.824219 487.269531 97.847656 C 487.789062 97.875 488.277344 98.492188 487.984375 98.925781 C 488.945312 96.636719 491.308594 95.007812 493.789062 94.925781 C 495.050781 93.570312 496.546875 92.433594 498.1875 91.578125 C 498.699219 91.3125 500.101562 91.152344 499.941406 92.621094 C 501.726562 90.238281 504.207031 88.300781 507.046875 87.480469 C 507.667969 87.300781 508.261719 87.828125 508.167969 88.464844 L 508.085938 89.019531 C 509.476562 87.105469 511.71875 85.863281 514.0625 85.625 C 514.832031 85.546875 515.386719 86.339844 515.050781 87.03125 L 514.519531 88.125 C 515.683594 86.628906 518.546875 87.851562 518.535156 89.75 C 518.527344 91.644531 516.167969 92.957031 514.40625 92.257812 L 514.484375 92.359375 C 515.230469 93.34375 514.800781 94.78125 513.628906 95.179688 C 512.027344 95.722656 510.238281 95.753906 508.507812 95.519531 C 509.089844 95.589844 509.257812 96.445312 508.90625 96.914062 C 508.554688 97.378906 507.9375 97.539062 507.367188 97.667969 C 505.167969 98.164062 502.972656 98.664062 500.777344 99.160156 C 502.15625 99.023438 503.164062 100.074219 502.726562 101.253906 C 502.292969 102.433594 500.972656 103.003906 499.761719 103.347656 C 497.152344 104.089844 494.414062 104.375 491.710938 104.1875 C 491.765625 104.230469 491.824219 104.277344 491.882812 104.328125 C 492.972656 105.285156 492.574219 107.085938 491.175781 107.476562 C 488.855469 108.128906 486.265625 107.75 483.699219 107.851562 C 485.027344 107.699219 485.804688 109.582031 485.167969 110.753906 C 484.53125 111.929688 483.011719 113.183594 481.726562 113.546875 C 480.027344 114.03125 478.4375 113.667969 476.6875 113.914062 L 477.105469 114.429688 C 477.398438 114.796875 477.347656 115.332031 476.988281 115.636719 C 475.132812 117.199219 471.898438 117.730469 469.679688 116.992188 " fill-opacity="1" fill-rule="nonzero"/><path fill="#659c65" d="M 464.671875 123.070312 C 464.539062 123.070312 464.402344 123.023438 464.300781 122.925781 C 464.078125 122.71875 464.0625 122.371094 464.269531 122.148438 C 464.777344 121.597656 465.507812 120.78125 466.28125 119.914062 C 467.5 118.550781 468.761719 117.136719 469.503906 116.386719 C 474.65625 111.160156 488.992188 98.167969 510.816406 90.371094 C 511.101562 90.269531 511.414062 90.417969 511.515625 90.703125 C 511.617188 90.988281 511.46875 91.304688 511.183594 91.40625 C 489.578125 99.125 475.382812 111.988281 470.285156 117.15625 C 469.5625 117.890625 468.253906 119.355469 467.101562 120.644531 C 466.324219 121.515625 465.589844 122.339844 465.074219 122.894531 C 464.964844 123.011719 464.820312 123.070312 464.671875 123.070312 " fill-opacity="1" fill-rule="nonzero"/><path fill="#84b685" d="M 469.023438 121.929688 C 470.769531 118.699219 475.632812 112.441406 479.6875 110.4375 C 480.445312 110.0625 481.273438 110.789062 480.996094 111.585938 C 480.773438 112.234375 480.554688 112.882812 480.25 113.542969 C 481.84375 111.359375 484.515625 110.003906 487.21875 109.996094 C 487.8125 109.996094 488.460938 110.082031 488.863281 110.515625 C 489.269531 110.949219 489.199219 111.816406 488.632812 111.980469 C 489.878906 111.207031 491.304688 110.402344 492.734375 110.742188 C 494.160156 111.082031 495.011719 113.269531 493.757812 114.035156 C 496.066406 114.1875 498.351562 114.707031 500.5 115.570312 C 501 115.773438 501.523438 116.019531 501.796875 116.484375 C 502.066406 116.949219 501.921875 117.6875 501.402344 117.824219 C 503.0625 117.832031 504.894531 117.902344 506.121094 119.023438 C 507.351562 120.148438 507.195312 122.699219 505.5625 123.019531 C 507.691406 124.085938 509.667969 125.445312 511.425781 127.050781 C 511.988281 127.5625 512.546875 128.132812 512.753906 128.863281 C 512.960938 129.59375 512.683594 130.515625 511.972656 130.78125 C 512.898438 131.4375 513.855469 132.128906 514.378906 133.136719 C 514.902344 134.144531 514.832031 135.554688 513.914062 136.222656 C 515.511719 137.949219 517.109375 139.671875 518.707031 141.398438 C 519.320312 142.058594 519.972656 142.847656 519.84375 143.738281 C 519.714844 144.625 518.519531 144.683594 517.953125 144.242188 C 518.425781 145.136719 519.332031 145.699219 520.164062 146.273438 C 520.996094 146.847656 521.839844 147.5625 522.054688 148.550781 C 522.269531 149.539062 521.457031 150.757812 520.46875 150.554688 C 521.324219 151.644531 522.0625 152.832031 522.667969 154.078125 C 523.324219 155.433594 522.597656 157.054688 521.15625 157.484375 L 520.886719 157.5625 C 521.691406 158.960938 523.277344 159.75 524.183594 161.078125 C 525.09375 162.410156 524.625 164.882812 523.015625 164.78125 C 523.855469 165.621094 524.941406 166.332031 525.863281 167.140625 C 526.976562 168.121094 526.792969 169.910156 525.511719 170.660156 L 524.566406 171.210938 C 526.089844 171.871094 527.152344 173.472656 527.175781 175.132812 C 527.199219 176.789062 526.175781 178.417969 524.671875 179.117188 C 526.035156 179.902344 528.035156 180.742188 529.253906 181.734375 C 530.554688 182.789062 528.152344 183.542969 528.175781 183.09375 C 528.839844 185.472656 532.945312 185.726562 533.179688 188.183594 C 533.351562 189.980469 531.265625 191.039062 529.546875 191.582031 C 530.347656 192.773438 531.167969 194.019531 531.394531 195.441406 C 531.621094 196.859375 531.082031 198.511719 529.777344 199.117188 C 528.828125 199.554688 527.691406 199.355469 526.761719 198.890625 C 524.488281 197.75 523.171875 194.976562 523.726562 192.496094 L 523.59375 192.550781 C 522.289062 193.101562 520.78125 192.601562 520.046875 191.386719 C 518.160156 188.265625 518.148438 184.503906 517.441406 180.558594 C 516.980469 177.964844 516.515625 175.375 516.054688 172.78125 C 516.195312 173.773438 514.832031 174.582031 514.03125 173.980469 C 513.433594 173.53125 513.351562 172.675781 513.363281 171.929688 C 513.402344 169.78125 513.820312 167.644531 514.589844 165.636719 C 514.328125 166.53125 512.984375 166.652344 512.277344 166.046875 C 511.570312 165.441406 511.355469 164.449219 511.214844 163.527344 C 510.847656 161.132812 510.800781 158.394531 512.453125 156.621094 C 512.210938 156.667969 511.976562 156.679688 511.753906 156.675781 C 510.410156 156.648438 509.34375 155.535156 509.296875 154.191406 C 509.226562 152.226562 509.917969 150.628906 510.429688 148.195312 C 508.972656 148.714844 507.429688 147.230469 507.273438 145.691406 C 507.117188 144.152344 507.882812 142.6875 508.628906 141.332031 C 507.632812 142.621094 506.597656 143.195312 505.648438 142.238281 C 504.695312 141.277344 504.726562 139.730469 504.96875 138.402344 C 505.210938 137.070312 505.601562 135.675781 505.160156 134.402344 C 504.996094 135.449219 504.078125 136.375 503.164062 135.722656 C 502.246094 135.070312 502.128906 133.78125 502.09375 132.65625 C 502.042969 130.992188 502.472656 129.289062 502.421875 127.625 C 502.019531 129.128906 501.3125 130.042969 500.167969 129.660156 C 499.023438 129.277344 498.492188 127.96875 498.285156 126.78125 C 498.078125 125.589844 498.03125 124.304688 497.3125 123.332031 C 497.488281 124.761719 495.351562 125.527344 494.175781 124.695312 C 492.996094 123.863281 492.679688 122.269531 492.585938 120.832031 C 492.394531 121.863281 490.886719 122.121094 490.042969 121.503906 C 489.195312 120.886719 488.867188 119.796875 488.59375 118.785156 C 489.117188 119.867188 488.632812 121.332031 487.566406 121.886719 C 486.496094 122.441406 485.023438 121.996094 484.4375 120.941406 C 483.269531 122.789062 480.199219 122.953125 478.839844 121.246094 C 478.839844 121.246094 477.601562 124.535156 476.242188 124.90625 C 474.886719 125.277344 473.183594 124.796875 472.652344 123.492188 C 472.84375 123.984375 472.84375 125.265625 472.152344 125.613281 C 470.847656 126.652344 469.863281 122.683594 469.023438 121.929688 " fill-opacity="1" fill-rule="nonzero"/><path fill="#659c65" d="M 527.589844 190.785156 C 527.464844 190.785156 527.335938 190.742188 527.234375 190.65625 C 522.402344 186.582031 518.207031 168.324219 515.097656 152.875 C 513.210938 143.503906 510.480469 135.667969 506.988281 129.589844 C 502.546875 121.863281 496.960938 117.234375 490.394531 115.835938 C 478.910156 113.386719 471.910156 119.539062 469.433594 122.296875 C 468.800781 123.003906 463.671875 128.535156 463.453125 128.769531 C 463.246094 128.992188 462.898438 129.003906 462.679688 128.800781 C 462.457031 128.59375 462.441406 128.246094 462.648438 128.023438 C 462.703125 127.964844 467.988281 122.261719 468.617188 121.5625 C 471.222656 118.660156 478.578125 112.191406 490.625 114.757812 C 497.507812 116.226562 503.335938 121.035156 507.9375 129.042969 C 511.492188 135.222656 514.261719 143.167969 516.171875 152.65625 C 519.011719 166.742188 523.316406 185.917969 527.941406 189.816406 C 528.171875 190.011719 528.203125 190.359375 528.007812 190.589844 C 527.898438 190.71875 527.742188 190.785156 527.589844 190.785156 " fill-opacity="1" fill-rule="nonzero"/><path fill="#84b685" d="M 467.589844 127.101562 C 469.738281 127.867188 474.167969 129.59375 476.4375 131.132812 C 477.007812 131.519531 477.789062 131.320312 478.113281 130.714844 C 478.402344 130.164062 478.464844 129.492188 478.203125 128.925781 C 479.191406 131.425781 481.832031 133.171875 484.515625 133.101562 C 484.023438 135.089844 484.066406 137.210938 484.640625 139.179688 C 484.878906 140.003906 485.257812 140.859375 486.003906 141.277344 C 486.75 141.695312 487.921875 141.386719 488.078125 140.546875 C 487.683594 142.722656 487.367188 144.78125 487.691406 146.804688 C 487.910156 148.152344 489.109375 149.113281 490.472656 149.058594 C 489.433594 150.777344 488.363281 152.601562 488.332031 154.605469 C 488.300781 156.613281 489.75 158.792969 491.753906 158.789062 C 491.671875 160.898438 491.585938 163.011719 491.5 165.125 C 491.464844 166.007812 491.453125 166.976562 492.007812 167.667969 C 492.5625 168.359375 493.902344 168.394531 494.171875 167.550781 C 492.9375 170.28125 492.792969 173.484375 493.78125 176.316406 C 494.175781 177.445312 495.515625 178.683594 496.359375 177.832031 C 495.675781 179.898438 495.242188 182.042969 495.066406 184.214844 C 494.992188 185.132812 495.003906 186.160156 495.625 186.839844 C 496.246094 187.519531 497.675781 187.375 497.800781 186.460938 C 496.792969 188.808594 496.191406 191.253906 496.625 193.671875 C 496.800781 194.660156 497.988281 195.148438 498.769531 194.519531 C 498.917969 194.398438 499.03125 194.253906 499.082031 194.082031 C 498.359375 196.371094 497.585938 198.589844 497.832031 200.785156 C 497.964844 201.988281 499.367188 202.640625 500.339844 201.917969 C 500.554688 201.757812 500.699219 201.574219 500.699219 201.347656 C 500.832031 204.097656 501.359375 206.835938 502.25 209.441406 C 502.535156 210.269531 503.699219 210.335938 504.0625 209.542969 C 504.402344 208.792969 504.546875 207.957031 504.445312 207.140625 C 504.597656 208.121094 505.972656 208.53125 506.800781 207.980469 C 507.625 207.433594 507.882812 206.292969 507.671875 205.320312 C 507.460938 204.351562 506.878906 203.511719 506.304688 202.703125 L 508.386719 203.480469 C 508.601562 200.109375 506.789062 196.691406 503.886719 194.972656 C 504.507812 195.273438 505.265625 194.699219 505.421875 194.027344 C 505.578125 193.351562 505.324219 192.65625 505.074219 192.015625 C 504.109375 189.53125 503.144531 187.046875 502.183594 184.5625 C 504.441406 183.617188 502.257812 178.351562 500.257812 176.085938 C 501.28125 176.648438 501.9375 174.867188 501.671875 173.734375 C 501.066406 171.152344 499.75 168.746094 497.902344 166.839844 C 499.007812 167.238281 499.652344 165.574219 499.554688 164.402344 C 499.269531 161.085938 497.945312 157.867188 495.816406 155.308594 C 496.6875 152.566406 496.15625 149.421875 494.433594 147.121094 C 496.125 146.714844 496.847656 144.523438 496.316406 142.863281 C 495.785156 141.203125 494.410156 139.976562 493.089844 138.835938 C 493.847656 135.769531 492.429688 132.289062 489.746094 130.625 C 490.230469 129.554688 489.902344 128.175781 488.988281 127.4375 C 488.074219 126.703125 486.660156 126.675781 485.714844 127.375 C 485.855469 126.054688 485.035156 124.695312 483.808594 124.195312 C 482.578125 123.699219 481.046875 124.105469 480.226562 125.148438 C 480.910156 123.800781 479.535156 122.144531 478.035156 121.957031 C 476.535156 121.773438 475.101562 122.542969 473.785156 123.292969 L 473.777344 123.21875 C 473.703125 122.457031 472.882812 122.011719 472.203125 122.355469 C 470.292969 123.316406 468.5 125.386719 467.589844 127.101562 " fill-opacity="1" fill-rule="nonzero"/><path fill="#659c65" d="M 504.621094 201.882812 C 501.738281 197.746094 499.546875 184.566406 497.230469 170.609375 C 495.125 157.960938 492.953125 144.882812 490.046875 137.3125 C 487.46875 130.609375 481.851562 126.835938 473.800781 126.410156 C 467.792969 126.089844 462.632812 127.710938 462.417969 127.78125 C 462.390625 127.789062 462.371094 127.796875 462.347656 127.808594 L 462.367188 128.804688 C 462.484375 128.855469 462.617188 128.867188 462.75 128.828125 C 462.800781 128.8125 467.960938 127.191406 473.769531 127.507812 C 481.449219 127.925781 486.578125 131.355469 489.019531 137.707031 C 491.890625 145.171875 494.054688 158.195312 496.144531 170.789062 C 498.484375 184.871094 500.695312 198.171875 503.71875 202.511719 C 503.824219 202.664062 503.996094 202.746094 504.167969 202.746094 C 504.277344 202.746094 504.386719 202.714844 504.484375 202.648438 C 504.730469 202.472656 504.792969 202.132812 504.621094 201.882812 " fill-opacity="1" fill-rule="nonzero"/><path fill="#ffd697" d="M 485.46875 295.523438 L 421.878906 295.523438 C 421.070312 295.523438 420.414062 294.871094 420.414062 294.058594 L 420.414062 284.457031 C 420.414062 283.648438 421.070312 282.992188 421.878906 282.992188 L 485.46875 282.992188 C 486.273438 282.992188 486.929688 283.648438 486.929688 284.457031 L 486.929688 294.058594 C 486.929688 294.871094 486.273438 295.523438 485.46875 295.523438 " fill-opacity="1" fill-rule="nonzero"/><path fill="#ffd697" d="M 485.558594 270.464844 L 474.71875 266.394531 L 432.289062 266.394531 L 421.445312 270.464844 L 485.558594 270.464844 " fill-opacity="1" fill-rule="nonzero"/><path fill="#ffcb86" d="M 485.46875 282.992188 L 421.878906 282.992188 C 421.070312 282.992188 420.414062 282.339844 420.414062 281.527344 L 420.414062 271.929688 C 420.414062 271.117188 421.070312 270.464844 421.878906 270.464844 L 485.46875 270.464844 C 486.277344 270.464844 486.929688 271.117188 486.929688 271.929688 L 486.929688 281.527344 C 486.929688 282.339844 486.277344 282.992188 485.46875 282.992188 " fill-opacity="1" fill-rule="nonzero"/><path fill="#ffcb86" d="M 557.929688 356.910156 L 494.34375 356.910156 C 493.535156 356.910156 492.878906 356.257812 492.878906 355.449219 L 492.878906 345.84375 C 492.878906 345.039062 493.535156 344.382812 494.34375 344.382812 L 557.929688 344.382812 C 558.738281 344.382812 559.394531 345.039062 559.394531 345.84375 L 559.394531 355.449219 C 559.394531 356.257812 558.738281 356.910156 557.929688 356.910156 " fill-opacity="1" fill-rule="nonzero"/><path fill="#ffcb86" d="M 558.019531 331.851562 L 547.179688 327.785156 L 504.75 327.785156 L 493.90625 331.851562 L 558.019531 331.851562 " fill-opacity="1" fill-rule="nonzero"/><path fill="#ffd697" d="M 557.929688 344.382812 L 494.34375 344.382812 C 493.535156 344.382812 492.878906 343.726562 492.878906 342.917969 L 492.878906 333.316406 C 492.878906 332.507812 493.535156 331.851562 494.34375 331.851562 L 557.929688 331.851562 C 558.738281 331.851562 559.394531 332.507812 559.394531 333.316406 L 559.394531 342.917969 C 559.394531 343.726562 558.738281 344.382812 557.929688 344.382812 " fill-opacity="1" fill-rule="nonzero"/><path fill="#ffd697" d="M 470.75 418.300781 L 407.160156 418.300781 C 406.351562 418.300781 405.695312 417.644531 405.695312 416.835938 L 405.695312 407.234375 C 405.695312 406.425781 406.351562 405.769531 407.160156 405.769531 L 470.75 405.769531 C 471.554688 405.769531 472.210938 406.425781 472.210938 407.234375 L 472.210938 416.835938 C 472.210938 417.644531 471.554688 418.300781 470.75 418.300781 " fill-opacity="1" fill-rule="nonzero"/><path fill="#ffd697" d="M 470.839844 393.238281 L 459.996094 389.171875 L 417.566406 389.171875 L 406.726562 393.238281 L 470.839844 393.238281 " fill-opacity="1" fill-rule="nonzero"/><path fill="#ffcb86" d="M 470.75 405.769531 L 407.160156 405.769531 C 406.351562 405.769531 405.695312 405.113281 405.695312 404.304688 L 405.695312 394.703125 C 405.695312 393.894531 406.351562 393.238281 407.160156 393.238281 L 470.75 393.238281 C 471.554688 393.238281 472.210938 393.894531 472.210938 394.703125 L 472.210938 404.304688 C 472.210938 405.113281 471.554688 405.769531 470.75 405.769531 " fill-opacity="1" fill-rule="nonzero"/><path fill="#f4e5e1" d="M 477.824219 333.296875 C 477.824219 333.296875 478.476562 346.023438 462.539062 352.628906 L 433.75 352.628906 C 417.808594 346.023438 418.464844 333.296875 418.464844 333.296875 L 477.824219 333.296875 " fill-opacity="1" fill-rule="nonzero"/><path fill="#f4e5e1" d="M 433.75 352.628906 L 433.75 355.464844 C 433.75 356.265625 440.195312 356.914062 448.144531 356.914062 C 456.09375 356.914062 462.539062 356.265625 462.539062 355.464844 L 462.539062 352.628906 L 433.75 352.628906 " fill-opacity="1" fill-rule="nonzero"/><path fill="#d8c4bf" d="M 462.539062 352.628906 C 462.539062 352.710938 462.484375 352.777344 462.425781 352.828125 C 462.367188 352.878906 462.300781 352.917969 462.234375 352.957031 C 462.097656 353.03125 461.953125 353.089844 461.808594 353.144531 C 461.519531 353.246094 461.222656 353.328125 460.921875 353.398438 C 460.328125 353.546875 459.722656 353.648438 459.117188 353.75 C 457.90625 353.933594 456.6875 354.066406 455.46875 354.164062 C 454.25 354.269531 453.03125 354.328125 451.808594 354.378906 C 450.585938 354.421875 449.367188 354.441406 448.144531 354.449219 C 446.921875 354.441406 445.699219 354.421875 444.476562 354.378906 C 443.257812 354.328125 442.035156 354.273438 440.816406 354.164062 C 439.597656 354.066406 438.378906 353.933594 437.167969 353.75 C 436.566406 353.652344 435.960938 353.546875 435.363281 353.402344 C 435.066406 353.328125 434.769531 353.246094 434.476562 353.144531 C 434.332031 353.089844 434.1875 353.03125 434.050781 352.957031 C 433.984375 352.917969 433.917969 352.878906 433.859375 352.828125 C 433.800781 352.777344 433.746094 352.710938 433.75 352.628906 C 433.757812 352.707031 433.816406 352.765625 433.875 352.804688 C 433.9375 352.847656 434.007812 352.878906 434.078125 352.90625 C 434.214844 352.960938 434.363281 353 434.507812 353.035156 C 434.804688 353.105469 435.101562 353.15625 435.402344 353.199219 C 436.003906 353.28125 436.605469 353.34375 437.210938 353.386719 C 438.421875 353.484375 439.636719 353.539062 440.851562 353.585938 C 442.066406 353.625 443.28125 353.667969 444.496094 353.679688 C 445.710938 353.699219 446.929688 353.710938 448.144531 353.703125 C 449.359375 353.710938 450.574219 353.699219 451.789062 353.679688 C 453.007812 353.667969 454.222656 353.625 455.4375 353.585938 C 456.648438 353.539062 457.863281 353.488281 459.074219 353.386719 C 459.679688 353.34375 460.285156 353.28125 460.886719 353.199219 C 461.183594 353.15625 461.484375 353.105469 461.777344 353.035156 C 461.925781 353.003906 462.070312 352.960938 462.210938 352.90625 C 462.28125 352.878906 462.347656 352.847656 462.410156 352.804688 C 462.472656 352.765625 462.53125 352.707031 462.539062 352.628906 " fill-opacity="1" fill-rule="nonzero"/><path fill="#d8c4bf" d="M 477.824219 333.296875 C 477.824219 334.097656 464.535156 334.746094 448.144531 334.746094 C 431.75 334.746094 418.464844 334.097656 418.464844 333.296875 C 418.464844 332.5 431.75 331.851562 448.144531 331.851562 C 464.535156 331.851562 477.824219 332.5 477.824219 333.296875 " fill-opacity="1" fill-rule="nonzero"/></svg>