<svg xmlns="http://www.w3.org/2000/svg" xmlns:xlink="http://www.w3.org/1999/xlink" width="1366" zoomAndPan="magnify" viewBox="0 0 1024.5 576" height="768" preserveAspectRatio="xMidYMid meet" version="1.0"><defs><clipPath id="603d0b2403"><path d="M 0 0.140625 L 1024 0.140625 L 1024 575.859375 L 0 575.859375 Z M 0 0.140625 " clip-rule="nonzero"/></clipPath><clipPath id="74d63f703b"><path d="M 0 0.140625 L 1024 0.140625 L 1024 575 L 0 575 Z M 0 0.140625 " clip-rule="nonzero"/></clipPath><clipPath id="f0d2f3682e"><path d="M 6 95 L 1013 95 L 1013 575.390625 L 6 575.390625 Z M 6 95 " clip-rule="nonzero"/></clipPath></defs><g clip-path="url(#603d0b2403)"><path fill="#ffffff" d="M 0 0.140625 L 1024.5 0.140625 L 1024.5 1743.140625 L 0 1743.140625 Z M 0 0.140625 " fill-opacity="1" fill-rule="nonzero"/><path fill="#ffffff" d="M 0 0.140625 L 1024.5 0.140625 L 1024.5 576.140625 L 0 576.140625 Z M 0 0.140625 " fill-opacity="1" fill-rule="nonzero"/><path fill="#ffffff" d="M 0 0.140625 L 1024.5 0.140625 L 1024.5 576.140625 L 0 576.140625 Z M 0 0.140625 " fill-opacity="1" fill-rule="nonzero"/></g><g clip-path="url(#74d63f703b)"><path fill="#b5d8d2" d="M 0.535156 0.140625 L 1023.964844 0.140625 L 1023.964844 574.980469 L 0.535156 574.980469 Z M 0.535156 0.140625 " fill-opacity="1" fill-rule="nonzero"/></g><path fill="#c59163" d="M 0.535156 495.199219 L 1023.964844 495.199219 L 1023.964844 574.980469 L 0.535156 574.980469 Z M 0.535156 495.199219 " fill-opacity="1" fill-rule="nonzero"/><path fill="#c59163" d="M 60.710938 59.464844 L 324.757812 59.464844 L 324.757812 323.359375 L 60.710938 323.359375 Z M 60.710938 59.464844 " fill-opacity="1" fill-rule="nonzero"/><path fill="#c5dbf9" d="M 182.5 302.902344 L 80.15625 302.902344 L 80.15625 79.921875 L 182.5 79.921875 Z M 305.3125 79.921875 L 202.96875 79.921875 L 202.96875 302.902344 L 305.3125 302.902344 Z M 305.3125 79.921875 " fill-opacity="1" fill-rule="nonzero"/><g clip-path="url(#f0d2f3682e)"><path fill="#000000" d="M 94.691406 179.753906 L 164.28125 110.199219 L 165.101562 111.015625 L 95.507812 180.570312 Z M 95.507812 198.980469 L 165.101562 129.429688 L 164.28125 128.609375 L 94.691406 198.164062 Z M 97.554688 268.535156 L 167.148438 198.980469 L 166.328125 198.164062 L 96.738281 267.71875 Z M 103.695312 288.992188 L 173.289062 219.4375 L 172.46875 218.621094 L 102.878906 288.175781 Z M 218.320312 166.25 L 287.914062 96.699219 L 287.09375 95.878906 L 217.5 165.433594 Z M 218.320312 184.664062 L 287.914062 115.109375 L 287.09375 114.289062 L 217.5 183.84375 Z M 220.367188 254.214844 L 289.960938 184.664062 L 289.140625 183.84375 L 219.546875 253.398438 Z M 295.28125 204.300781 L 225.6875 273.855469 L 226.507812 274.671875 L 296.101562 205.121094 Z M 107.175781 494.789062 L 6.675781 574.570312 L 7.289062 575.390625 L 107.789062 495.609375 Z M 187.617188 494.789062 L 107.175781 574.570312 L 107.996094 575.390625 L 188.4375 495.609375 Z M 207.675781 574.570312 L 208.496094 575.1875 L 268.878906 495.402344 L 268.058594 494.789062 Z M 348.296875 494.996094 L 308.175781 574.777344 L 309.199219 575.1875 L 349.320312 495.402344 Z M 408.472656 574.777344 L 409.496094 574.980469 L 429.558594 495.199219 L 428.535156 494.996094 Z M 508.976562 495.199219 L 508.976562 574.980469 L 510 574.980469 L 510 495.199219 Z M 589.417969 495.402344 L 609.476562 575.1875 L 610.5 574.980469 L 590.441406 495.199219 Z M 669.859375 495.402344 L 709.976562 575.1875 L 711 574.777344 L 670.882812 494.996094 Z M 750.300781 495.609375 L 810.683594 575.390625 L 811.5 574.777344 L 751.117188 494.996094 Z M 830.742188 495.609375 L 911.183594 575.390625 L 912.003906 574.570312 L 831.5625 494.789062 Z M 911.796875 494.789062 L 911.183594 495.609375 L 1011.683594 575.390625 L 1012.296875 574.570312 Z M 911.796875 494.789062 " fill-opacity="1" fill-rule="nonzero"/></g></svg>