<svg xmlns="http://www.w3.org/2000/svg" xmlns:xlink="http://www.w3.org/1999/xlink" width="1366" zoomAndPan="magnify" viewBox="0 0 1024.5 576" height="768" preserveAspectRatio="xMidYMid meet" version="1.0"><defs><clipPath id="85fbed247f"><path d="M 0 0.140625 L 1024 0.140625 L 1024 575.859375 L 0 575.859375 Z M 0 0.140625 " clip-rule="nonzero"/></clipPath><clipPath id="d0399fd724"><path d="M 317.25 431 L 669 431 L 669 435.742188 L 317.25 435.742188 Z M 317.25 431 " clip-rule="nonzero"/></clipPath><clipPath id="7ae3ed05f8"><path d="M 346 57.742188 L 640 57.742188 L 640 432 L 346 432 Z M 346 57.742188 " clip-rule="nonzero"/></clipPath></defs><g clip-path="url(#85fbed247f)"><path fill="#ffffff" d="M 0 0.140625 L 1024.5 0.140625 L 1024.5 576.140625 L 0 576.140625 Z M 0 0.140625 " fill-opacity="1" fill-rule="nonzero"/><path fill="#ffffff" d="M 0 0.140625 L 1024.5 0.140625 L 1024.5 576.140625 L 0 576.140625 Z M 0 0.140625 " fill-opacity="1" fill-rule="nonzero"/></g><g clip-path="url(#d0399fd724)"><path fill="#486875" d="M 668.914062 435.742188 L 317.335938 435.742188 L 317.335938 431.585938 L 668.914062 431.585938 L 668.914062 435.742188 " fill-opacity="1" fill-rule="nonzero"/></g><g clip-path="url(#7ae3ed05f8)"><path fill="#ffffff" d="M 639.382812 431.585938 L 346.867188 431.585938 L 346.867188 57.738281 L 639.382812 57.738281 L 639.382812 431.585938 " fill-opacity="1" fill-rule="nonzero"/></g><path fill="#f15a24" d="M 611.914062 168.605469 L 374.332031 168.605469 L 374.332031 168.050781 L 611.914062 168.050781 L 611.914062 168.605469 " fill-opacity="1" fill-rule="nonzero"/><path fill="#f15a24" d="M 611.914062 189.207031 L 374.332031 189.207031 L 374.332031 188.652344 L 611.914062 188.652344 L 611.914062 189.207031 " fill-opacity="1" fill-rule="nonzero"/><path fill="#f15a24" d="M 611.914062 209.808594 L 374.332031 209.808594 L 374.332031 209.253906 L 611.914062 209.253906 L 611.914062 209.808594 " fill-opacity="1" fill-rule="nonzero"/><path fill="#f15a24" d="M 611.914062 230.410156 L 374.332031 230.410156 L 374.332031 229.859375 L 611.914062 229.859375 L 611.914062 230.410156 " fill-opacity="1" fill-rule="nonzero"/><path fill="#f15a24" d="M 611.914062 251.015625 L 374.332031 251.015625 L 374.332031 250.460938 L 611.914062 250.460938 L 611.914062 251.015625 " fill-opacity="1" fill-rule="nonzero"/><path fill="#f15a24" d="M 611.914062 271.617188 L 374.332031 271.617188 L 374.332031 271.0625 L 611.914062 271.0625 L 611.914062 271.617188 " fill-opacity="1" fill-rule="nonzero"/><path fill="#f15a24" d="M 611.914062 292.21875 L 374.332031 292.21875 L 374.332031 291.667969 L 611.914062 291.667969 L 611.914062 292.21875 " fill-opacity="1" fill-rule="nonzero"/><path fill="#f15a24" d="M 611.914062 312.824219 L 374.332031 312.824219 L 374.332031 312.269531 L 611.914062 312.269531 L 611.914062 312.824219 " fill-opacity="1" fill-rule="nonzero"/><path fill="#f15a24" d="M 611.914062 333.425781 L 374.332031 333.425781 L 374.332031 332.871094 L 611.914062 332.871094 L 611.914062 333.425781 " fill-opacity="1" fill-rule="nonzero"/><path fill="#f15a24" d="M 455.449219 113.605469 C 456.367188 113.160156 457.273438 112.609375 458.179688 111.957031 C 459.082031 111.300781 459.898438 110.515625 460.628906 109.597656 C 461.363281 108.683594 461.976562 107.640625 462.472656 106.476562 C 462.972656 105.3125 463.285156 104 463.417969 102.53125 C 463.519531 101.222656 463.4375 100.128906 463.160156 99.25 C 462.886719 98.375 462.480469 97.671875 461.945312 97.148438 C 461.40625 96.625 460.800781 96.253906 460.121094 96.03125 C 459.4375 95.808594 458.757812 95.699219 458.078125 95.699219 C 457.449219 95.699219 456.816406 95.789062 456.175781 95.972656 C 455.535156 96.15625 454.914062 96.390625 454.3125 96.679688 C 454.390625 96.707031 454.480469 96.769531 454.585938 96.875 C 454.640625 96.953125 454.699219 97.050781 454.761719 97.171875 C 454.828125 97.285156 454.875 97.414062 454.902344 97.542969 C 454.296875 100.085938 453.816406 102.203125 453.449219 103.90625 C 453.082031 105.609375 452.78125 106.996094 452.546875 108.066406 C 452.257812 109.324219 452.046875 110.335938 451.917969 111.09375 C 451.890625 111.199219 451.871094 111.300781 451.859375 111.40625 C 451.847656 111.511719 451.824219 111.628906 451.800781 111.761719 C 452.375 111.890625 452.976562 112.09375 453.605469 112.367188 C 454.234375 112.644531 454.847656 113.058594 455.449219 113.605469 Z M 451.25 114.941406 C 451.566406 114.886719 451.878906 114.832031 452.191406 114.765625 C 452.507812 114.699219 452.847656 114.613281 453.210938 114.507812 C 452.769531 114.089844 452.179688 113.828125 451.449219 113.726562 C 451.367188 114.144531 451.304688 114.546875 451.25 114.941406 Z M 467.300781 102.804688 C 467.195312 103.933594 466.902344 105.109375 466.417969 106.339844 C 465.933594 107.570312 465.261719 108.761719 464.398438 109.914062 C 463.535156 111.066406 462.488281 112.140625 461.257812 113.132812 C 460.027344 114.128906 458.628906 114.941406 457.058594 115.570312 C 457.292969 116.015625 457.515625 116.488281 457.726562 116.980469 C 457.933594 117.480469 458.117188 118.042969 458.277344 118.671875 C 458.511719 119.507812 458.714844 120.375 458.882812 121.265625 C 459.054688 122.15625 459.199219 123.019531 459.316406 123.855469 C 459.433594 124.695312 459.539062 125.472656 459.628906 126.191406 C 459.722656 126.910156 459.792969 127.511719 459.84375 127.980469 C 459.949219 128.765625 460.203125 129.324219 460.609375 129.648438 C 461.015625 129.976562 461.472656 130.160156 461.984375 130.199219 C 462.492188 130.238281 463.003906 130.179688 463.515625 130.023438 C 464.023438 129.863281 464.421875 129.695312 464.710938 129.511719 C 464.683594 129.535156 464.542969 129.765625 464.28125 130.199219 C 464.019531 130.628906 463.664062 131.089844 463.21875 131.574219 C 462.773438 132.058594 462.246094 132.476562 461.632812 132.828125 C 461.015625 133.183594 460.328125 133.292969 459.570312 133.164062 C 459.046875 133.085938 458.582031 132.90625 458.179688 132.632812 C 457.769531 132.359375 457.417969 131.953125 457.117188 131.417969 C 456.816406 130.878906 456.574219 130.191406 456.390625 129.355469 C 456.207031 128.515625 456.089844 127.496094 456.039062 126.289062 C 455.984375 124.667969 455.925781 123.117188 455.863281 121.636719 C 455.796875 120.160156 455.515625 118.789062 455.019531 117.535156 C 454.941406 117.324219 454.863281 117.121094 454.78125 116.925781 C 454.703125 116.730469 454.613281 116.550781 454.507812 116.394531 C 453.433594 116.65625 452.230469 116.828125 450.898438 116.90625 C 450.714844 117.898438 450.519531 118.921875 450.308594 119.96875 C 450.097656 121.015625 449.882812 122.035156 449.660156 123.03125 C 449.4375 124.027344 449.203125 124.960938 448.957031 125.839844 C 448.707031 126.714844 448.464844 127.46875 448.230469 128.097656 C 447.96875 128.753906 447.632812 129.28125 447.230469 129.6875 C 446.824219 130.09375 446.175781 130.296875 445.285156 130.296875 C 444.761719 130.296875 444.304688 130.179688 443.914062 129.945312 C 443.519531 129.710938 443.140625 129.382812 442.773438 128.960938 C 442.878906 128.882812 443.042969 128.757812 443.265625 128.589844 C 443.488281 128.417969 443.75 128.078125 444.050781 127.566406 C 444.351562 127.054688 444.679688 126.328125 445.03125 125.386719 C 445.382812 124.445312 445.742188 123.175781 446.109375 121.578125 C 446.242188 120.925781 446.417969 120.160156 446.640625 119.28125 C 446.863281 118.40625 447.105469 117.441406 447.367188 116.394531 C 446.320312 115.820312 445.835938 115.046875 445.914062 114.078125 C 445.964844 113.476562 446.242188 112.964844 446.738281 112.542969 C 447.234375 112.125 447.835938 111.835938 448.542969 111.683594 C 448.882812 110.320312 449.230469 108.945312 449.582031 107.558594 C 449.9375 106.171875 450.269531 104.867188 450.582031 103.652344 C 450.898438 102.433594 451.1875 101.332031 451.449219 100.351562 C 451.707031 99.371094 451.917969 98.589844 452.074219 98.015625 C 451.605469 98.328125 451.132812 98.683594 450.664062 99.074219 C 450.242188 99.417969 449.792969 99.800781 449.308594 100.234375 C 448.824219 100.664062 448.371094 101.117188 447.953125 101.585938 C 447.746094 101.429688 447.574219 101.261719 447.445312 101.078125 C 447.3125 100.894531 447.210938 100.738281 447.128906 100.605469 C 447.027344 100.449219 446.949219 100.28125 446.894531 100.09375 C 446.710938 99.730469 446.621094 99.332031 446.621094 98.898438 C 446.621094 98.464844 446.933594 98.027344 447.5625 97.582031 C 447.902344 97.347656 448.417969 97.007812 449.113281 96.5625 C 449.804688 96.117188 450.664062 95.683594 451.683594 95.265625 C 452.703125 94.84375 453.886719 94.480469 455.234375 94.167969 C 456.582031 93.851562 458.078125 93.695312 459.726562 93.695312 C 461.375 93.695312 462.710938 94.023438 463.730469 94.675781 C 464.75 95.328125 465.535156 96.128906 466.085938 97.070312 C 466.632812 98.015625 466.992188 99.007812 467.164062 100.054688 C 467.335938 101.101562 467.378906 102.019531 467.300781 102.804688 " fill-opacity="1" fill-rule="nonzero"/><path fill="#f15a24" d="M 474.445312 109.207031 C 474.128906 109.207031 473.757812 109.363281 473.324219 109.679688 C 472.894531 109.992188 472.46875 110.445312 472.050781 111.03125 C 471.632812 111.621094 471.238281 112.339844 470.871094 113.191406 C 470.507812 114.042969 470.230469 115.019531 470.050781 116.117188 C 470.363281 115.882812 470.703125 115.640625 471.070312 115.394531 C 471.433594 115.144531 471.800781 114.875 472.167969 114.585938 C 473.292969 113.722656 474.078125 112.964844 474.523438 112.308594 C 474.96875 111.65625 475.214844 111.089844 475.269531 110.621094 C 475.320312 110.121094 475.269531 109.761719 475.109375 109.542969 C 474.953125 109.320312 474.730469 109.207031 474.445312 109.207031 Z M 484.492188 115.253906 C 483.707031 116.40625 482.816406 117.527344 481.820312 118.613281 C 480.828125 119.699219 479.777344 120.667969 478.664062 121.519531 C 477.550781 122.371094 476.414062 123.058594 475.25 123.582031 C 474.085938 124.101562 472.953125 124.367188 471.855469 124.367188 C 471.277344 124.367188 470.65625 124.230469 469.988281 123.953125 C 469.324219 123.679688 468.714844 123.253906 468.164062 122.675781 C 467.617188 122.101562 467.175781 121.355469 466.851562 120.4375 C 466.523438 119.523438 466.425781 118.410156 466.554688 117.097656 C 466.660156 116.027344 466.996094 114.894531 467.558594 113.703125 C 468.117188 112.511719 468.8125 111.417969 469.636719 110.421875 C 470.460938 109.429688 471.390625 108.605469 472.421875 107.949219 C 473.457031 107.296875 474.496094 106.96875 475.542969 106.96875 C 476.539062 106.96875 477.257812 107.214844 477.703125 107.714844 C 478.144531 108.210938 478.34375 108.828125 478.289062 109.558594 C 478.210938 110.371094 477.984375 111.117188 477.601562 111.796875 C 477.222656 112.480469 476.773438 113.09375 476.25 113.644531 C 475.726562 114.195312 475.171875 114.691406 474.582031 115.136719 C 473.992188 115.582031 473.4375 115.988281 472.914062 116.355469 C 472.339844 116.746094 471.789062 117.121094 471.265625 117.472656 C 470.742188 117.828125 470.285156 118.148438 469.890625 118.433594 C 469.917969 119.089844 470.035156 119.640625 470.246094 120.085938 C 470.453125 120.53125 470.714844 120.890625 471.03125 121.167969 C 471.34375 121.441406 471.703125 121.636719 472.109375 121.753906 C 472.515625 121.871094 472.925781 121.933594 473.34375 121.933594 C 474.234375 121.933594 475.164062 121.648438 476.132812 121.085938 C 477.097656 120.523438 478.046875 119.84375 478.976562 119.042969 C 479.90625 118.246094 480.769531 117.414062 481.566406 116.550781 C 482.363281 115.6875 483.027344 114.9375 483.550781 114.3125 C 483.730469 114.101562 483.921875 113.976562 484.117188 113.9375 C 484.3125 113.898438 484.46875 113.925781 484.589844 114.015625 C 484.707031 114.109375 484.765625 114.265625 484.765625 114.488281 C 484.765625 114.710938 484.671875 114.964844 484.492188 115.253906 " fill-opacity="1" fill-rule="nonzero"/><path fill="#f15a24" d="M 488.335938 122.089844 C 489.148438 122.089844 490.042969 121.769531 491.023438 121.125 C 492.003906 120.484375 492.960938 119.734375 493.890625 118.867188 C 494.816406 118.003906 495.667969 117.121094 496.441406 116.21875 C 497.210938 115.3125 497.792969 114.585938 498.1875 114.039062 C 498.421875 113.695312 498.644531 113.496094 498.851562 113.429688 C 499.0625 113.363281 499.21875 113.394531 499.324219 113.527344 C 499.429688 113.660156 499.46875 113.859375 499.441406 114.132812 C 499.414062 114.410156 499.296875 114.71875 499.089844 115.058594 C 498.90625 115.371094 498.597656 115.824219 498.164062 116.414062 C 497.734375 117.003906 497.222656 117.644531 496.636719 118.335938 C 496.046875 119.03125 495.382812 119.738281 494.636719 120.457031 C 493.890625 121.179688 493.109375 121.832031 492.300781 122.421875 C 491.488281 123.011719 490.652344 123.496094 489.789062 123.875 C 488.925781 124.253906 488.074219 124.445312 487.238281 124.445312 C 486.085938 124.445312 485.125 124.230469 484.351562 123.796875 C 483.582031 123.363281 482.964844 122.808594 482.507812 122.128906 C 482.050781 121.445312 481.730469 120.695312 481.546875 119.871094 C 481.363281 119.046875 481.273438 118.226562 481.273438 117.414062 C 481.273438 116.605469 481.457031 115.59375 481.820312 114.390625 C 482.1875 113.1875 482.730469 112.027344 483.449219 110.914062 C 484.167969 109.800781 485.078125 108.847656 486.175781 108.046875 C 487.277344 107.25 488.570312 106.851562 490.0625 106.851562 C 490.898438 106.851562 491.613281 107.136719 492.203125 107.714844 C 492.789062 108.289062 493.070312 109.078125 493.042969 110.070312 C 493.042969 110.539062 492.964844 111.007812 492.808594 111.464844 C 492.652344 111.921875 492.441406 112.328125 492.183594 112.683594 C 491.921875 113.035156 491.613281 113.316406 491.261719 113.527344 C 490.90625 113.738281 490.519531 113.839844 490.101562 113.839844 C 489.761719 113.839844 489.507812 113.71875 489.335938 113.46875 C 489.167969 113.21875 489.0625 112.929688 489.023438 112.601562 C 488.984375 112.277344 488.984375 111.957031 489.023438 111.640625 C 489.0625 111.328125 489.109375 111.117188 489.160156 111.011719 C 489.289062 110.832031 489.433594 110.699219 489.589844 110.617188 C 489.75 110.539062 489.929688 110.449219 490.140625 110.34375 C 490.296875 110.265625 490.421875 110.148438 490.515625 109.992188 C 490.605469 109.835938 490.652344 109.664062 490.652344 109.480469 C 490.652344 109.296875 490.597656 109.140625 490.492188 109.011719 C 490.390625 108.878906 490.21875 108.8125 489.984375 108.8125 C 489.75 108.8125 489.324219 109.003906 488.710938 109.382812 C 488.09375 109.761719 487.464844 110.324219 486.824219 111.074219 C 486.183594 111.820312 485.613281 112.753906 485.117188 113.878906 C 484.621094 115.007812 484.359375 116.316406 484.332031 117.808594 C 484.308594 118.671875 484.425781 119.378906 484.6875 119.929688 C 484.949219 120.476562 485.273438 120.910156 485.667969 121.222656 C 486.058594 121.539062 486.492188 121.761719 486.964844 121.890625 C 487.433594 122.023438 487.890625 122.089844 488.335938 122.089844 " fill-opacity="1" fill-rule="nonzero"/><path fill="#f15a24" d="M 504.894531 100.292969 C 504.820312 100.578125 504.667969 100.859375 504.445312 101.136719 C 504.222656 101.410156 503.972656 101.632812 503.699219 101.804688 C 503.425781 101.972656 503.144531 102.085938 502.855469 102.136719 C 502.566406 102.191406 502.332031 102.136719 502.152344 101.980469 C 501.601562 101.5625 501.3125 101.109375 501.285156 100.625 C 501.261719 100.140625 501.378906 99.683594 501.640625 99.25 C 501.902344 98.820312 502.226562 98.453125 502.621094 98.152344 C 503.011719 97.851562 503.355469 97.675781 503.640625 97.621094 C 503.925781 97.566406 504.171875 97.628906 504.367188 97.796875 C 504.5625 97.96875 504.714844 98.191406 504.820312 98.464844 C 504.921875 98.742188 504.980469 99.046875 504.996094 99.386719 C 505.007812 99.730469 504.976562 100.03125 504.894531 100.292969 Z M 499.480469 108.65625 C 499.613281 108.5 499.859375 108.367188 500.226562 108.265625 C 500.59375 108.160156 500.972656 108.074219 501.363281 108.007812 C 501.757812 107.945312 502.117188 107.90625 502.445312 107.890625 C 502.769531 107.878906 502.960938 107.882812 503.011719 107.910156 C 503.039062 107.9375 502.972656 108.210938 502.816406 108.734375 C 502.660156 109.261719 502.464844 109.875 502.226562 110.582031 C 501.992188 111.289062 501.746094 112.015625 501.480469 112.761719 C 501.21875 113.507812 501.023438 114.117188 500.894531 114.585938 C 500.761719 115.058594 500.605469 115.589844 500.421875 116.179688 C 500.238281 116.765625 500.078125 117.34375 499.933594 117.90625 C 499.789062 118.46875 499.691406 119 499.640625 119.496094 C 499.585938 119.996094 499.625 120.371094 499.757812 120.636719 C 499.886719 120.949219 500.03125 121.164062 500.1875 121.28125 C 500.34375 121.398438 500.515625 121.460938 500.699219 121.460938 C 501.21875 121.460938 501.882812 121.171875 502.679688 120.597656 C 503.476562 120.019531 504.289062 119.332031 505.113281 118.535156 C 505.9375 117.734375 506.703125 116.925781 507.40625 116.097656 C 508.117188 115.273438 508.636719 114.613281 508.980469 114.117188 C 509.1875 113.855469 509.402344 113.683594 509.628906 113.605469 C 509.847656 113.527344 510.03125 113.539062 510.175781 113.644531 C 510.320312 113.75 510.394531 113.917969 510.410156 114.152344 C 510.421875 114.390625 510.339844 114.664062 510.15625 114.980469 C 509.738281 115.714844 509.121094 116.585938 508.3125 117.589844 C 507.5 118.597656 506.636719 119.570312 505.722656 120.496094 C 504.804688 121.425781 503.910156 122.21875 503.03125 122.875 C 502.15625 123.527344 501.445312 123.867188 500.894531 123.894531 C 500.449219 123.921875 500.011719 123.847656 499.578125 123.675781 C 499.148438 123.507812 498.753906 123.273438 498.402344 122.96875 C 498.050781 122.671875 497.753906 122.316406 497.519531 121.910156 C 497.285156 121.507812 497.152344 121.078125 497.128906 120.636719 C 497.046875 119.980469 497.046875 119.082031 497.128906 117.945312 C 497.203125 116.804688 497.347656 115.640625 497.558594 114.449219 C 497.765625 113.257812 498.035156 112.125 498.363281 111.050781 C 498.691406 109.976562 499.0625 109.179688 499.480469 108.65625 " fill-opacity="1" fill-rule="nonzero"/><path fill="#f15a24" d="M 511.648438 115.84375 C 511.515625 116.289062 511.378906 116.804688 511.234375 117.394531 C 511.089844 117.984375 510.925781 118.6875 510.742188 119.496094 C 510.953125 119.339844 511.1875 119.222656 511.449219 119.140625 C 511.710938 119.066406 511.972656 119.023438 512.238281 119.023438 C 512.523438 119.023438 512.890625 119.175781 513.335938 119.476562 C 513.78125 119.777344 514.316406 120.097656 514.945312 120.4375 C 515.335938 119.96875 515.75 119.4375 516.179688 118.847656 C 516.609375 118.257812 517.003906 117.652344 517.355469 117.019531 C 517.710938 116.394531 518.011719 115.75 518.261719 115.097656 C 518.507812 114.441406 518.644531 113.816406 518.671875 113.210938 C 518.722656 112.425781 518.632812 111.8125 518.398438 111.367188 C 518.160156 110.921875 517.769531 110.699219 517.21875 110.699219 C 516.410156 110.699219 515.527344 111.175781 514.570312 112.132812 C 513.613281 113.085938 512.640625 114.324219 511.648438 115.84375 Z M 504.464844 140.191406 C 504.28125 140.113281 504.101562 139.996094 503.917969 139.839844 C 503.761719 139.707031 503.601562 139.546875 503.445312 139.347656 C 503.289062 139.152344 503.160156 138.910156 503.054688 138.621094 C 503.785156 135.820312 504.40625 133.386719 504.917969 131.316406 C 505.425781 129.25 505.867188 127.519531 506.230469 126.132812 C 506.625 124.511719 506.964844 123.148438 507.25 122.046875 C 507.515625 121 507.773438 119.953125 508.035156 118.90625 C 508.246094 117.992188 508.472656 117.007812 508.722656 115.960938 C 508.972656 114.914062 509.199219 113.933594 509.410156 113.015625 C 509.671875 111.996094 509.828125 111.175781 509.882812 110.558594 C 509.933594 109.945312 509.738281 109.414062 509.292969 108.96875 C 509.605469 108.710938 509.925781 108.503906 510.253906 108.363281 C 510.582031 108.21875 510.875 108.121094 511.136719 108.066406 C 511.425781 107.988281 511.710938 107.964844 512 107.988281 C 512.707031 108.042969 513.144531 108.265625 513.316406 108.65625 C 513.484375 109.046875 513.503906 109.675781 513.375 110.542969 C 513.347656 110.671875 513.328125 110.785156 513.316406 110.875 C 513.300781 110.96875 513.296875 111.066406 513.296875 111.167969 C 513.660156 110.75 514.066406 110.34375 514.511719 109.953125 C 514.957031 109.558594 515.40625 109.207031 515.863281 108.890625 C 516.324219 108.578125 516.792969 108.320312 517.277344 108.125 C 517.761719 107.929688 518.226562 107.832031 518.671875 107.832031 C 519.273438 107.832031 519.765625 107.980469 520.144531 108.285156 C 520.523438 108.585938 520.816406 108.984375 521.027344 109.480469 C 521.234375 109.976562 521.367188 110.535156 521.417969 111.148438 C 521.472656 111.765625 521.484375 112.375 521.457031 112.976562 C 521.429688 113.632812 521.320312 114.324219 521.125 115.058594 C 520.929688 115.792969 520.660156 116.539062 520.320312 117.296875 C 519.976562 118.054688 519.589844 118.800781 519.144531 119.535156 C 518.699219 120.269531 518.226562 120.949219 517.730469 121.578125 C 517.832031 121.605469 517.898438 121.621094 517.925781 121.636719 C 517.953125 121.648438 517.964844 121.664062 517.964844 121.675781 C 517.964844 121.691406 517.984375 121.699219 518.023438 121.714844 C 518.0625 121.726562 518.148438 121.734375 518.277344 121.734375 C 518.882812 121.734375 519.496094 121.578125 520.125 121.265625 C 520.753906 120.949219 521.367188 120.550781 521.96875 120.066406 C 522.570312 119.582031 523.148438 119.050781 523.714844 118.476562 C 524.277344 117.898438 524.785156 117.339844 525.242188 116.804688 C 525.703125 116.269531 526.089844 115.785156 526.402344 115.351562 C 526.714844 114.917969 526.953125 114.613281 527.109375 114.429688 C 527.316406 114.167969 527.511719 113.992188 527.695312 113.898438 C 527.882812 113.808594 528.027344 113.800781 528.128906 113.878906 C 528.234375 113.957031 528.289062 114.109375 528.289062 114.332031 C 528.289062 114.554688 528.207031 114.835938 528.050781 115.175781 C 527.945312 115.410156 527.722656 115.792969 527.382812 116.316406 C 527.042969 116.839844 526.625 117.429688 526.128906 118.082031 C 525.628906 118.738281 525.0625 119.417969 524.421875 120.125 C 523.777344 120.832031 523.105469 121.472656 522.398438 122.046875 C 521.691406 122.625 520.96875 123.101562 520.222656 123.480469 C 519.476562 123.859375 518.75 124.050781 518.042969 124.050781 C 517.703125 124.050781 517.429688 124.039062 517.21875 124.011719 C 517.007812 123.984375 516.835938 123.9375 516.691406 123.875 C 516.546875 123.808594 516.410156 123.742188 516.277344 123.679688 C 516.148438 123.613281 515.992188 123.539062 515.808594 123.460938 C 515.335938 123.828125 514.851562 124.109375 514.355469 124.304688 C 513.855469 124.503906 513.375 124.601562 512.902344 124.601562 C 512.457031 124.601562 512.074219 124.527344 511.746094 124.382812 C 511.417969 124.242188 511.148438 124.042969 510.941406 123.796875 C 510.730469 123.546875 510.5625 123.273438 510.429688 122.972656 C 510.300781 122.671875 510.195312 122.375 510.117188 122.089844 C 510.089844 122.195312 510.070312 122.285156 510.058594 122.363281 C 510.042969 122.441406 510.023438 122.546875 510 122.675781 C 509.683594 123.933594 509.359375 125.386719 509.019531 127.039062 C 508.730469 128.449219 508.382812 130.171875 507.976562 132.199219 C 507.570312 134.230469 507.148438 136.539062 506.703125 139.132812 C 506.546875 139.839844 506.265625 140.246094 505.859375 140.351562 C 505.453125 140.453125 504.988281 140.402344 504.464844 140.191406 " fill-opacity="1" fill-rule="nonzero"/><path fill="#f15a24" d="M 533.152344 109.207031 C 532.839844 109.207031 532.464844 109.363281 532.03125 109.679688 C 531.601562 109.992188 531.179688 110.445312 530.757812 111.03125 C 530.339844 111.621094 529.949219 112.339844 529.582031 113.191406 C 529.210938 114.042969 528.941406 115.019531 528.757812 116.117188 C 529.070312 115.882812 529.410156 115.640625 529.777344 115.394531 C 530.144531 115.144531 530.507812 114.875 530.878906 114.585938 C 532 113.722656 532.785156 112.964844 533.230469 112.308594 C 533.675781 111.65625 533.921875 111.089844 533.976562 110.621094 C 534.027344 110.121094 533.976562 109.761719 533.820312 109.542969 C 533.664062 109.320312 533.441406 109.207031 533.152344 109.207031 Z M 543.199219 115.253906 C 542.414062 116.40625 541.523438 117.527344 540.53125 118.613281 C 539.535156 119.699219 538.480469 120.667969 537.371094 121.519531 C 536.257812 122.371094 535.121094 123.058594 533.957031 123.582031 C 532.792969 124.101562 531.660156 124.367188 530.5625 124.367188 C 529.988281 124.367188 529.363281 124.230469 528.699219 123.953125 C 528.03125 123.679688 527.425781 123.253906 526.875 122.675781 C 526.324219 122.101562 525.886719 121.355469 525.558594 120.4375 C 525.230469 119.523438 525.132812 118.410156 525.261719 117.097656 C 525.367188 116.027344 525.703125 114.894531 526.265625 113.703125 C 526.828125 112.511719 527.519531 111.417969 528.34375 110.421875 C 529.171875 109.429688 530.097656 108.605469 531.132812 107.949219 C 532.164062 107.296875 533.203125 106.96875 534.253906 106.96875 C 535.242188 106.96875 535.964844 107.214844 536.410156 107.714844 C 536.855469 108.210938 537.050781 108.828125 537 109.558594 C 536.921875 110.371094 536.6875 111.117188 536.3125 111.796875 C 535.929688 112.480469 535.480469 113.09375 534.957031 113.644531 C 534.433594 114.195312 533.878906 114.691406 533.289062 115.136719 C 532.703125 115.582031 532.144531 115.988281 531.621094 116.355469 C 531.046875 116.746094 530.496094 117.121094 529.972656 117.472656 C 529.449219 117.828125 528.992188 118.148438 528.601562 118.433594 C 528.625 119.089844 528.742188 119.640625 528.953125 120.085938 C 529.160156 120.53125 529.421875 120.890625 529.738281 121.167969 C 530.050781 121.441406 530.410156 121.636719 530.816406 121.753906 C 531.222656 121.871094 531.636719 121.933594 532.054688 121.933594 C 532.945312 121.933594 533.871094 121.648438 534.839844 121.085938 C 535.808594 120.523438 536.757812 119.84375 537.683594 119.042969 C 538.613281 118.246094 539.476562 117.414062 540.277344 116.550781 C 541.074219 115.6875 541.734375 114.9375 542.257812 114.3125 C 542.441406 114.101562 542.628906 113.976562 542.824219 113.9375 C 543.019531 113.898438 543.179688 113.925781 543.296875 114.015625 C 543.417969 114.109375 543.472656 114.265625 543.472656 114.488281 C 543.472656 114.710938 543.382812 114.964844 543.199219 115.253906 " fill-opacity="1" fill-rule="nonzero"/><path fill="#ffb339" d="M 419.222656 378.546875 L 335.601562 378.546875 C 336.796875 373.1875 341.570312 369.1875 347.28125 369.1875 L 407.542969 369.1875 C 413.257812 369.1875 418.03125 373.1875 419.222656 378.546875 " fill-opacity="1" fill-rule="nonzero"/><path fill="#ffa81c" d="M 377.542969 369.1875 L 377.542969 378.546875 L 335.601562 378.546875 C 336.523438 374.417969 339.570312 371.09375 343.535156 369.785156 C 344.710938 369.394531 345.972656 369.1875 347.28125 369.1875 L 377.542969 369.1875 " fill-opacity="1" fill-rule="nonzero"/><path fill="#ffb339" d="M 335.308594 379.253906 L 335.308594 429.316406 C 335.308594 430.570312 336.324219 431.585938 337.574219 431.585938 L 417.25 431.585938 C 418.5 431.585938 419.515625 430.570312 419.515625 429.316406 L 419.515625 379.253906 L 335.308594 379.253906 " fill-opacity="1" fill-rule="nonzero"/><path fill="#ffa81c" d="M 377.539062 379.253906 L 335.308594 379.253906 L 335.308594 429.316406 C 335.308594 430.570312 336.3125 431.585938 337.546875 431.585938 L 377.539062 431.585938 L 377.539062 379.253906 " fill-opacity="1" fill-rule="nonzero"/><path fill="#ffbc52" d="M 377.539062 431.585938 L 343.535156 431.585938 L 343.535156 379.253906 L 377.539062 379.253906 L 377.539062 431.585938 " fill-opacity="1" fill-rule="nonzero"/><path fill="#ffb339" d="M 419.226562 378.546875 C 418.03125 373.191406 413.257812 369.1875 407.542969 369.1875 L 347.28125 369.1875 C 341.570312 369.1875 336.792969 373.191406 335.601562 378.546875 L 419.226562 378.546875 " fill-opacity="1" fill-rule="nonzero"/><path fill="#42210b" d="M 420.667969 379.898438 C 420.667969 380.644531 420.0625 381.25 419.316406 381.25 L 335.5625 381.25 C 334.816406 381.25 334.214844 380.644531 334.214844 379.898438 C 334.214844 379.152344 334.816406 378.546875 335.5625 378.546875 L 419.316406 378.546875 C 420.0625 378.546875 420.667969 379.152344 420.667969 379.898438 " fill-opacity="1" fill-rule="nonzero"/><path fill="#ed9c1a" d="M 419.515625 384.410156 L 335.5625 384.410156 L 335.5625 381.25 L 419.515625 381.25 L 419.515625 384.410156 " fill-opacity="1" fill-rule="nonzero"/><path fill="#2e1708" d="M 386.335938 369.1875 L 369.875 369.1875 L 369.875 366.757812 L 386.335938 366.757812 L 386.335938 369.1875 " fill-opacity="1" fill-rule="nonzero"/><path fill="#42210b" d="M 426.820312 390.136719 C 426.820312 391.273438 425.894531 392.199219 424.757812 392.199219 L 411.300781 392.199219 C 410.160156 392.199219 409.238281 391.273438 409.238281 390.136719 C 409.238281 388.996094 410.160156 388.070312 411.300781 388.070312 L 424.757812 388.070312 C 425.894531 388.070312 426.820312 388.996094 426.820312 390.136719 " fill-opacity="1" fill-rule="nonzero"/><path fill="#42210b" d="M 389.972656 363.972656 C 389.972656 365.511719 388.726562 366.757812 387.1875 366.757812 L 369.023438 366.757812 C 367.484375 366.757812 366.238281 365.511719 366.238281 363.972656 C 366.238281 362.433594 367.484375 361.1875 369.023438 361.1875 L 387.1875 361.1875 C 388.726562 361.1875 389.972656 362.433594 389.972656 363.972656 " fill-opacity="1" fill-rule="nonzero"/><path fill="#2e1708" d="M 335.300781 394.695312 L 343.535156 394.695312 L 343.535156 392.199219 L 332.011719 392.199219 L 335.300781 394.695312 " fill-opacity="1" fill-rule="nonzero"/><path fill="#2e1708" d="M 419.515625 394.695312 L 411.28125 394.695312 L 411.28125 392.199219 L 422.808594 392.199219 L 419.515625 394.695312 " fill-opacity="1" fill-rule="nonzero"/><path fill="#ed9c1a" d="M 335.300781 397.195312 L 343.535156 397.195312 L 343.535156 394.695312 L 335.300781 394.695312 L 335.300781 397.195312 " fill-opacity="1" fill-rule="nonzero"/><path fill="#ed9c1a" d="M 411.28125 397.195312 L 419.515625 397.195312 L 419.515625 394.695312 L 411.28125 394.695312 L 411.28125 397.195312 " fill-opacity="1" fill-rule="nonzero"/><path fill="#42210b" d="M 328 390.136719 C 328 391.273438 328.921875 392.199219 330.0625 392.199219 L 343.519531 392.199219 C 344.65625 392.199219 345.582031 391.273438 345.582031 390.136719 C 345.582031 388.996094 344.65625 388.070312 343.519531 388.070312 L 330.0625 388.070312 C 328.921875 388.070312 328 388.996094 328 390.136719 " fill-opacity="1" fill-rule="nonzero"/><path fill="#ffbc52" d="M 377.542969 369.1875 L 377.542969 378.546875 L 343.535156 378.546875 L 343.535156 369.785156 C 344.710938 369.394531 345.972656 369.1875 347.28125 369.1875 L 377.542969 369.1875 " fill-opacity="1" fill-rule="nonzero"/><path fill="#ed9c1a" d="M 386.335938 371.613281 L 369.875 371.613281 L 369.875 369.1875 L 386.335938 369.1875 L 386.335938 371.613281 " fill-opacity="1" fill-rule="nonzero"/><path fill="#cf8817" d="M 419.386719 382.828125 L 335.4375 382.828125 L 335.4375 381.25 L 419.386719 381.25 L 419.386719 382.828125 " fill-opacity="1" fill-rule="nonzero"/><path fill="#e0efff" d="M 625.050781 317.726562 L 641.558594 317.726562 C 642.257812 317.726562 642.820312 318.289062 642.820312 318.984375 C 642.820312 319.679688 642.257812 320.242188 641.558594 320.242188 L 625.050781 320.242188 C 624.355469 320.242188 623.789062 319.679688 623.789062 318.984375 C 623.789062 318.289062 624.355469 317.726562 625.050781 317.726562 " fill-opacity="1" fill-rule="nonzero"/><path fill="#badcff" d="M 632.316406 317.726562 L 641.558594 317.726562 C 642.257812 317.726562 642.820312 318.289062 642.820312 318.984375 C 642.820312 319.679688 642.257812 320.242188 641.558594 320.242188 L 632.316406 320.242188 L 632.316406 317.726562 " fill-opacity="1" fill-rule="nonzero"/><path fill="#f15a24" d="M 638.058594 325.082031 C 638.058594 326.070312 637.1875 326.875 636.117188 326.875 L 630.039062 326.875 C 628.96875 326.875 628.101562 326.070312 628.101562 325.082031 L 628.101562 309.304688 C 628.101562 308.316406 628.96875 307.511719 630.039062 307.511719 L 636.117188 307.511719 C 637.1875 307.511719 638.058594 308.316406 638.058594 309.304688 L 638.058594 325.082031 " fill-opacity="1" fill-rule="nonzero"/><path fill="#e0efff" d="M 626.625 315.488281 L 639.625 315.488281 C 640.472656 315.488281 641.152344 316.167969 641.152344 317.015625 L 641.152344 321.109375 C 641.152344 321.820312 640.667969 322.414062 640.007812 322.589844 L 640.007812 346.644531 L 647.945312 354.585938 L 647.9375 354.585938 C 649 355.628906 649.65625 357.082031 649.65625 358.683594 L 649.65625 425.832031 C 649.65625 429.011719 647.085938 431.585938 643.910156 431.585938 L 622.34375 431.585938 C 619.167969 431.585938 616.589844 429.011719 616.589844 425.832031 L 616.589844 358.683594 C 616.589844 357.882812 616.753906 357.121094 617.050781 356.425781 C 617.347656 355.734375 617.773438 355.109375 618.308594 354.585938 L 626.238281 346.644531 L 626.238281 322.589844 C 625.582031 322.414062 625.09375 321.820312 625.09375 321.109375 L 625.09375 317.015625 C 625.09375 316.167969 625.777344 315.488281 626.625 315.488281 " fill-opacity="1" fill-rule="nonzero"/><path fill="#badcff" d="M 633.308594 315.488281 L 639.625 315.488281 C 640.472656 315.488281 641.152344 316.167969 641.152344 317.015625 L 641.152344 321.109375 C 641.152344 321.820312 640.667969 322.414062 640.007812 322.589844 L 640.007812 346.644531 L 647.945312 354.585938 L 647.9375 354.585938 C 649 355.628906 649.65625 357.082031 649.65625 358.683594 L 649.65625 425.832031 C 649.65625 429.011719 647.085938 431.585938 643.910156 431.585938 L 633.308594 431.585938 L 633.308594 315.488281 " fill-opacity="1" fill-rule="nonzero"/><path fill="#ffbc52" d="M 649.660156 412.214844 L 616.59375 412.214844 L 616.59375 374.484375 L 649.660156 374.484375 L 649.660156 412.214844 " fill-opacity="1" fill-rule="nonzero"/><path fill="#ffd799" d="M 633.246094 412.214844 L 623.789062 412.214844 L 623.789062 374.484375 L 633.246094 374.484375 L 633.246094 412.214844 " fill-opacity="1" fill-rule="nonzero"/><path fill="#ffa921" d="M 649.640625 412.214844 L 645.054688 412.214844 L 645.054688 374.484375 L 649.640625 374.484375 L 649.640625 412.214844 " fill-opacity="1" fill-rule="nonzero"/><path fill="#ffb339" d="M 496.011719 369.894531 L 536.023438 369.894531 C 537.511719 369.894531 538.71875 370.949219 538.71875 372.246094 L 538.71875 429.230469 C 538.71875 430.527344 537.511719 431.585938 536.023438 431.585938 L 496.011719 431.585938 C 494.523438 431.585938 493.316406 430.527344 493.316406 429.230469 L 493.316406 372.246094 C 493.316406 370.949219 494.523438 369.894531 496.011719 369.894531 " fill-opacity="1" fill-rule="nonzero"/><path fill="#ffb845" d="M 516.824219 358.730469 C 515.117188 358.730469 513.734375 357.519531 513.734375 356.027344 C 513.734375 354.535156 515.117188 353.324219 516.824219 353.324219 C 518.53125 353.324219 519.914062 354.535156 519.914062 356.027344 C 519.914062 357.519531 518.53125 358.730469 516.824219 358.730469 Z M 524.578125 355.816406 C 524.578125 351.6875 520.746094 348.335938 516.019531 348.335938 C 515.917969 348.335938 515.816406 348.339844 515.722656 348.34375 C 514.597656 348.816406 513.726562 351.957031 513.726562 355.761719 C 513.726562 358.714844 514.25 361.269531 515.011719 362.484375 L 516.015625 362.484375 L 516.015625 366.070312 L 514.425781 366.070312 C 514.039062 366.855469 513.777344 368.257812 513.777344 369.859375 C 513.777344 372.320312 514.390625 374.320312 515.144531 374.320312 C 513.085938 374.320312 511.414062 372.320312 511.414062 369.859375 C 511.414062 368.210938 512.167969 366.769531 513.277344 366 L 513.277344 362.488281 C 511.195312 361.273438 509.761719 358.71875 509.761719 355.761719 C 509.761719 352.09375 511.972656 349.042969 514.882812 348.402344 C 510.691406 348.890625 507.453125 352.023438 507.453125 355.816406 C 507.453125 358.613281 509.210938 361.046875 511.808594 362.328125 L 511.808594 365.894531 C 510.582031 366.878906 509.808594 368.285156 509.808594 369.851562 C 509.808594 371.421875 510.582031 372.828125 511.808594 373.808594 L 511.808594 386.097656 C 511.808594 388.128906 513.691406 389.773438 516.019531 389.773438 C 518.34375 389.773438 520.226562 388.128906 520.226562 386.097656 L 520.226562 373.707031 C 521.378906 372.730469 522.097656 371.367188 522.097656 369.851562 C 522.097656 368.339844 521.378906 366.972656 520.226562 365.996094 L 520.226562 362.328125 C 522.824219 361.046875 524.578125 358.613281 524.578125 355.816406 " fill-opacity="1" fill-rule="nonzero"/><path fill="#ffcc7a" d="M 509.761719 355.761719 C 509.761719 358.71875 511.195312 361.273438 513.277344 362.488281 L 513.277344 362.484375 L 515.011719 362.484375 C 514.25 361.269531 513.726562 358.714844 513.726562 355.761719 C 513.726562 351.957031 514.597656 348.816406 515.722656 348.34375 C 515.816406 348.300781 515.914062 348.28125 516.015625 348.28125 C 515.625 348.28125 515.246094 348.324219 514.882812 348.402344 C 511.972656 349.042969 509.761719 352.09375 509.761719 355.761719 " fill-opacity="1" fill-rule="nonzero"/><path fill="#ffcc7a" d="M 513.277344 366 C 512.167969 366.769531 511.414062 368.210938 511.414062 369.859375 C 511.414062 372.320312 513.085938 374.320312 515.144531 374.320312 C 514.390625 374.320312 513.777344 372.320312 513.777344 369.859375 C 513.777344 368.257812 514.039062 366.855469 514.425781 366.070312 L 513.277344 366.070312 L 513.277344 366 " fill-opacity="1" fill-rule="nonzero"/><path fill="#ffcc7a" d="M 513.277344 362.488281 L 513.277344 366.070312 L 516.015625 366.070312 L 516.015625 362.484375 L 513.277344 362.484375 L 513.277344 362.488281 " fill-opacity="1" fill-rule="nonzero"/><path fill="#ffbc52" d="M 531.46875 375.609375 C 532.617188 375.609375 533.550781 376.46875 533.550781 377.527344 L 533.550781 423.949219 C 533.550781 425.007812 532.617188 425.867188 531.46875 425.867188 L 500.566406 425.867188 C 499.417969 425.867188 498.484375 425.007812 498.484375 423.949219 L 498.484375 377.527344 C 498.484375 376.46875 499.417969 375.609375 500.566406 375.609375 L 531.46875 375.609375 " fill-opacity="1" fill-rule="nonzero"/><path fill="#ffbc52" d="M 496.011719 369.894531 L 516.019531 369.894531 L 516.019531 431.585938 L 496.011719 431.585938 C 494.523438 431.585938 493.316406 430.527344 493.316406 429.230469 L 493.316406 372.246094 C 493.316406 370.949219 494.523438 369.894531 496.011719 369.894531 " fill-opacity="1" fill-rule="nonzero"/><path fill="#f0a836" d="M 516.019531 374.316406 L 532.261719 374.316406 C 533.472656 374.316406 534.449219 375.222656 534.449219 376.335938 L 534.449219 425.140625 C 534.449219 426.253906 533.472656 427.15625 532.261719 427.15625 L 516.019531 427.15625 L 516.019531 374.316406 " fill-opacity="1" fill-rule="nonzero"/><path fill="#f0a836" d="M 499.773438 374.316406 L 516.019531 374.316406 L 516.019531 427.15625 L 499.773438 427.15625 C 498.566406 427.15625 497.585938 426.253906 497.585938 425.140625 L 497.585938 376.335938 C 497.585938 375.222656 498.566406 374.316406 499.773438 374.316406 " fill-opacity="1" fill-rule="nonzero"/><path fill="#ffbc52" d="M 516.019531 375.496094 L 530.847656 375.496094 C 531.953125 375.496094 532.847656 376.363281 532.847656 377.425781 L 532.847656 424.050781 C 532.847656 425.113281 531.953125 425.980469 530.847656 425.980469 L 516.019531 425.980469 L 516.019531 375.496094 " fill-opacity="1" fill-rule="nonzero"/><path fill="#ffb339" d="M 501.1875 375.496094 L 516.019531 375.496094 L 516.019531 425.980469 L 501.1875 425.980469 C 500.082031 425.980469 499.1875 425.113281 499.1875 424.050781 L 499.1875 377.425781 C 499.1875 376.363281 500.082031 375.496094 501.1875 375.496094 " fill-opacity="1" fill-rule="nonzero"/><path fill="#8aa9c9" d="M 454.480469 401.160156 L 444.214844 401.160156 L 444.214844 393.894531 L 454.480469 393.894531 L 454.480469 401.160156 " fill-opacity="1" fill-rule="nonzero"/><path fill="#a3c8ef" d="M 457.484375 403.539062 L 457.484375 425.5 C 457.484375 425.640625 457.375 425.75 457.234375 425.75 L 441.460938 425.75 C 441.320312 425.75 441.210938 425.640625 441.210938 425.5 L 441.210938 403.539062 C 441.210938 400.222656 443.902344 397.527344 447.21875 397.527344 L 451.476562 397.527344 C 454.792969 397.527344 457.484375 400.222656 457.484375 403.539062 " fill-opacity="1" fill-rule="nonzero"/><path fill="#bad4ef" d="M 457.484375 403.539062 L 457.484375 425.5 C 457.484375 425.640625 457.375 425.75 457.234375 425.75 L 449.160156 425.75 L 449.160156 397.527344 L 451.476562 397.527344 C 454.792969 397.527344 457.484375 400.222656 457.484375 403.539062 " fill-opacity="1" fill-rule="nonzero"/><path fill="#ff5422" d="M 455.230469 398.816406 C 455.230469 398.910156 455.121094 398.988281 454.980469 398.988281 L 443.335938 398.988281 C 443.199219 398.988281 443.085938 398.910156 443.085938 398.816406 L 443.085938 396.90625 C 443.085938 396.8125 443.199219 396.734375 443.335938 396.734375 L 454.980469 396.734375 C 455.121094 396.734375 455.230469 396.8125 455.230469 396.90625 L 455.230469 398.816406 " fill-opacity="1" fill-rule="nonzero"/><path fill="#ff5422" d="M 454.777344 396.066406 C 455.109375 395.308594 455.292969 394.476562 455.292969 393.601562 C 455.292969 390.210938 452.546875 387.460938 449.160156 387.460938 C 445.773438 387.460938 443.023438 390.210938 443.023438 393.601562 C 443.023438 394.476562 443.210938 395.308594 443.542969 396.066406 L 454.777344 396.066406 " fill-opacity="1" fill-rule="nonzero"/><path fill="#ffffff" d="M 455.328125 423.335938 C 455.328125 423.4375 455.246094 423.523438 455.144531 423.523438 L 443.550781 423.523438 C 443.449219 423.523438 443.367188 423.4375 443.367188 423.335938 L 443.367188 411.355469 C 443.367188 411.253906 443.449219 411.171875 443.550781 411.171875 L 455.144531 411.171875 C 455.246094 411.171875 455.328125 411.253906 455.328125 411.355469 L 455.328125 423.335938 " fill-opacity="1" fill-rule="nonzero"/><path fill="#ffffff" d="M 447.835938 389.554688 C 447.835938 389.875 447.574219 390.136719 447.253906 390.136719 C 446.929688 390.136719 446.667969 389.875 446.667969 389.554688 C 446.667969 389.230469 446.929688 388.96875 447.253906 388.96875 C 447.574219 388.96875 447.835938 389.230469 447.835938 389.554688 " fill-opacity="1" fill-rule="nonzero"/><path fill="#ffffff" d="M 449.929688 389.554688 C 449.929688 389.875 449.667969 390.136719 449.347656 390.136719 C 449.027344 390.136719 448.765625 389.875 448.765625 389.554688 C 448.765625 389.230469 449.027344 388.96875 449.347656 388.96875 C 449.667969 388.96875 449.929688 389.230469 449.929688 389.554688 " fill-opacity="1" fill-rule="nonzero"/><path fill="#ffffff" d="M 452.027344 389.554688 C 452.027344 389.875 451.765625 390.136719 451.441406 390.136719 C 451.121094 390.136719 450.859375 389.875 450.859375 389.554688 C 450.859375 389.230469 451.121094 388.96875 451.441406 388.96875 C 451.765625 388.96875 452.027344 389.230469 452.027344 389.554688 " fill-opacity="1" fill-rule="nonzero"/><path fill="#ffffff" d="M 446.667969 391.304688 C 446.667969 391.628906 446.40625 391.890625 446.085938 391.890625 C 445.765625 391.890625 445.503906 391.628906 445.503906 391.304688 C 445.503906 390.984375 445.765625 390.722656 446.085938 390.722656 C 446.40625 390.722656 446.667969 390.984375 446.667969 391.304688 " fill-opacity="1" fill-rule="nonzero"/><path fill="#ffffff" d="M 448.765625 391.304688 C 448.765625 391.628906 448.503906 391.890625 448.179688 391.890625 C 447.859375 391.890625 447.597656 391.628906 447.597656 391.304688 C 447.597656 390.984375 447.859375 390.722656 448.179688 390.722656 C 448.503906 390.722656 448.765625 390.984375 448.765625 391.304688 " fill-opacity="1" fill-rule="nonzero"/><path fill="#ffffff" d="M 450.859375 391.304688 C 450.859375 391.628906 450.597656 391.890625 450.277344 391.890625 C 449.953125 391.890625 449.695312 391.628906 449.695312 391.304688 C 449.695312 390.984375 449.953125 390.722656 450.277344 390.722656 C 450.597656 390.722656 450.859375 390.984375 450.859375 391.304688 " fill-opacity="1" fill-rule="nonzero"/><path fill="#ffffff" d="M 452.957031 391.304688 C 452.957031 391.628906 452.695312 391.890625 452.371094 391.890625 C 452.050781 391.890625 451.789062 391.628906 451.789062 391.304688 C 451.789062 390.984375 452.050781 390.722656 452.371094 390.722656 C 452.695312 390.722656 452.957031 390.984375 452.957031 391.304688 " fill-opacity="1" fill-rule="nonzero"/><path fill="#8aa9c9" d="M 474.214844 401.160156 L 463.949219 401.160156 L 463.949219 393.894531 L 474.214844 393.894531 L 474.214844 401.160156 " fill-opacity="1" fill-rule="nonzero"/><path fill="#a3c8ef" d="M 477.21875 403.539062 L 477.21875 425.5 C 477.21875 425.640625 477.109375 425.75 476.96875 425.75 L 461.195312 425.75 C 461.054688 425.75 460.945312 425.640625 460.945312 425.5 L 460.945312 403.539062 C 460.945312 400.222656 463.636719 397.527344 466.953125 397.527344 L 471.210938 397.527344 C 474.527344 397.527344 477.21875 400.222656 477.21875 403.539062 " fill-opacity="1" fill-rule="nonzero"/><path fill="#bad4ef" d="M 477.21875 403.539062 L 477.21875 425.5 C 477.21875 425.640625 477.109375 425.75 476.96875 425.75 L 468.894531 425.75 L 468.894531 397.527344 L 471.210938 397.527344 C 474.527344 397.527344 477.21875 400.222656 477.21875 403.539062 " fill-opacity="1" fill-rule="nonzero"/><path fill="#ff5422" d="M 474.964844 398.816406 C 474.964844 398.910156 474.855469 398.988281 474.714844 398.988281 L 463.070312 398.988281 C 462.933594 398.988281 462.820312 398.910156 462.820312 398.816406 L 462.820312 396.90625 C 462.820312 396.8125 462.933594 396.734375 463.070312 396.734375 L 474.714844 396.734375 C 474.855469 396.734375 474.964844 396.8125 474.964844 396.90625 L 474.964844 398.816406 " fill-opacity="1" fill-rule="nonzero"/><path fill="#ff5422" d="M 474.511719 396.066406 C 474.84375 395.308594 475.027344 394.476562 475.027344 393.601562 C 475.027344 390.210938 472.28125 387.460938 468.894531 387.460938 C 465.503906 387.460938 462.757812 390.210938 462.757812 393.601562 C 462.757812 394.476562 462.945312 395.308594 463.273438 396.066406 L 474.511719 396.066406 " fill-opacity="1" fill-rule="nonzero"/><path fill="#42210b" d="M 475.0625 423.335938 C 475.0625 423.4375 474.980469 423.523438 474.878906 423.523438 L 463.285156 423.523438 C 463.183594 423.523438 463.101562 423.4375 463.101562 423.335938 L 463.101562 411.355469 C 463.101562 411.253906 463.183594 411.171875 463.285156 411.171875 L 474.878906 411.171875 C 474.980469 411.171875 475.0625 411.253906 475.0625 411.355469 L 475.0625 423.335938 " fill-opacity="1" fill-rule="nonzero"/><path fill="#ffffff" d="M 467.570312 389.554688 C 467.570312 389.875 467.308594 390.136719 466.988281 390.136719 C 466.664062 390.136719 466.402344 389.875 466.402344 389.554688 C 466.402344 389.230469 466.664062 388.96875 466.988281 388.96875 C 467.308594 388.96875 467.570312 389.230469 467.570312 389.554688 " fill-opacity="1" fill-rule="nonzero"/><path fill="#ffffff" d="M 469.664062 389.554688 C 469.664062 389.875 469.402344 390.136719 469.082031 390.136719 C 468.761719 390.136719 468.5 389.875 468.5 389.554688 C 468.5 389.230469 468.761719 388.96875 469.082031 388.96875 C 469.402344 388.96875 469.664062 389.230469 469.664062 389.554688 " fill-opacity="1" fill-rule="nonzero"/><path fill="#ffffff" d="M 471.761719 389.554688 C 471.761719 389.875 471.5 390.136719 471.175781 390.136719 C 470.855469 390.136719 470.59375 389.875 470.59375 389.554688 C 470.59375 389.230469 470.855469 388.96875 471.175781 388.96875 C 471.5 388.96875 471.761719 389.230469 471.761719 389.554688 " fill-opacity="1" fill-rule="nonzero"/><path fill="#ffffff" d="M 466.402344 391.304688 C 466.402344 391.628906 466.140625 391.890625 465.820312 391.890625 C 465.496094 391.890625 465.238281 391.628906 465.238281 391.304688 C 465.238281 390.984375 465.496094 390.722656 465.820312 390.722656 C 466.140625 390.722656 466.402344 390.984375 466.402344 391.304688 " fill-opacity="1" fill-rule="nonzero"/><path fill="#ffffff" d="M 468.5 391.304688 C 468.5 391.628906 468.238281 391.890625 467.914062 391.890625 C 467.59375 391.890625 467.332031 391.628906 467.332031 391.304688 C 467.332031 390.984375 467.59375 390.722656 467.914062 390.722656 C 468.238281 390.722656 468.5 390.984375 468.5 391.304688 " fill-opacity="1" fill-rule="nonzero"/><path fill="#ffffff" d="M 470.59375 391.304688 C 470.59375 391.628906 470.332031 391.890625 470.011719 391.890625 C 469.6875 391.890625 469.429688 391.628906 469.429688 391.304688 C 469.429688 390.984375 469.6875 390.722656 470.011719 390.722656 C 470.332031 390.722656 470.59375 390.984375 470.59375 391.304688 " fill-opacity="1" fill-rule="nonzero"/><path fill="#ffffff" d="M 472.691406 391.304688 C 472.691406 391.628906 472.429688 391.890625 472.105469 391.890625 C 471.785156 391.890625 471.523438 391.628906 471.523438 391.304688 C 471.523438 390.984375 471.785156 390.722656 472.105469 390.722656 C 472.429688 390.722656 472.691406 390.984375 472.691406 391.304688 " fill-opacity="1" fill-rule="nonzero"/><path fill="#ffdca3" d="M 429.515625 421.765625 L 420.589844 421.765625 C 419.875 420.984375 418.855469 420.492188 417.714844 420.492188 C 416.574219 420.492188 415.550781 420.984375 414.839844 421.765625 L 412.25 421.765625 C 411.3125 420.113281 409.546875 418.996094 407.515625 418.996094 C 404.515625 418.996094 402.078125 421.433594 402.078125 424.4375 C 402.078125 427.445312 404.515625 429.878906 407.515625 429.878906 C 409.546875 429.878906 411.3125 428.765625 412.25 427.117188 L 414.914062 427.117188 C 415.621094 427.847656 416.613281 428.304688 417.714844 428.304688 C 418.8125 428.304688 419.804688 427.847656 420.515625 427.117188 L 429.515625 427.117188 C 430.992188 427.117188 432.191406 425.917969 432.191406 424.4375 C 432.191406 422.964844 430.992188 421.765625 429.515625 421.765625 " fill-opacity="1" fill-rule="nonzero"/><path fill="#fff0d6" d="M 412.910156 424.4375 C 412.910156 423.636719 410.476562 422.984375 407.476562 422.984375 C 404.472656 422.984375 402.039062 423.636719 402.039062 424.4375 C 402.039062 422.246094 404.472656 420.464844 407.476562 420.464844 C 410.476562 420.464844 412.910156 422.246094 412.910156 424.4375 " fill-opacity="1" fill-rule="nonzero"/><path fill="#fff0d6" d="M 420.960938 423.882812 C 420.960938 423.40625 419.507812 423.015625 417.71875 423.015625 C 415.929688 423.015625 414.476562 423.40625 414.476562 423.882812 C 414.476562 422.578125 415.929688 421.511719 417.71875 421.511719 C 419.507812 421.511719 420.960938 422.578125 420.960938 423.882812 " fill-opacity="1" fill-rule="nonzero"/><path fill="#fff0d6" d="M 414.964844 424.4375 L 412.359375 424.4375 L 412.359375 422.699219 L 414.964844 422.699219 L 414.964844 424.4375 " fill-opacity="1" fill-rule="nonzero"/><path fill="#ffdca3" d="M 493.90625 421.765625 L 502.832031 421.765625 C 503.546875 420.984375 504.570312 420.492188 505.707031 420.492188 C 506.847656 420.492188 507.871094 420.984375 508.582031 421.765625 L 511.171875 421.765625 C 512.105469 420.113281 513.875 418.996094 515.90625 418.996094 C 518.90625 418.996094 521.34375 421.433594 521.34375 424.4375 C 521.34375 427.445312 518.90625 429.878906 515.90625 429.878906 C 513.875 429.878906 512.105469 428.765625 511.171875 427.117188 L 508.507812 427.117188 C 507.800781 427.847656 506.808594 428.304688 505.707031 428.304688 C 504.609375 428.304688 503.617188 427.847656 502.90625 427.117188 L 493.90625 427.117188 C 492.429688 427.117188 491.230469 425.917969 491.230469 424.4375 C 491.230469 422.964844 492.429688 421.765625 493.90625 421.765625 " fill-opacity="1" fill-rule="nonzero"/><path fill="#fff0d6" d="M 510.511719 424.4375 C 510.511719 423.636719 512.945312 422.984375 515.945312 422.984375 C 518.949219 422.984375 521.382812 423.636719 521.382812 424.4375 C 521.382812 422.246094 518.949219 420.464844 515.945312 420.464844 C 512.945312 420.464844 510.511719 422.246094 510.511719 424.4375 " fill-opacity="1" fill-rule="nonzero"/><path fill="#fff0d6" d="M 502.460938 423.882812 C 502.460938 423.40625 503.914062 423.015625 505.703125 423.015625 C 507.492188 423.015625 508.945312 423.40625 508.945312 423.882812 C 508.945312 422.578125 507.492188 421.511719 505.703125 421.511719 C 503.914062 421.511719 502.460938 422.578125 502.460938 423.882812 " fill-opacity="1" fill-rule="nonzero"/><path fill="#fff0d6" d="M 508.457031 424.4375 L 511.0625 424.4375 L 511.0625 422.699219 L 508.457031 422.699219 L 508.457031 424.4375 " fill-opacity="1" fill-rule="nonzero"/><path fill="#ffdca3" d="M 505.632812 421.332031 L 505.632812 427.550781 C 505.632812 429.773438 503.832031 431.585938 501.601562 431.585938 L 421.46875 431.585938 C 419.242188 431.585938 417.4375 429.773438 417.4375 427.550781 L 417.4375 421.332031 C 417.4375 419.097656 419.242188 417.292969 421.46875 417.292969 L 501.601562 417.292969 C 503.832031 417.292969 505.632812 419.097656 505.632812 421.332031 " fill-opacity="1" fill-rule="nonzero"/><path fill="#ffe9c4" d="M 505.632812 421.332031 L 505.632812 424.4375 L 417.4375 424.4375 L 417.4375 421.332031 C 417.4375 419.097656 419.242188 417.292969 421.46875 417.292969 L 501.601562 417.292969 C 503.832031 417.292969 505.632812 419.097656 505.632812 421.332031 " fill-opacity="1" fill-rule="nonzero"/><path fill="#ffcc7a" d="M 505.636719 424.4375 L 417.4375 424.4375 L 417.4375 421.328125 L 505.636719 421.328125 L 505.636719 424.4375 " fill-opacity="1" fill-rule="nonzero"/><path fill="#fff0d6" d="M 505.636719 424.4375 L 417.4375 424.4375 L 417.4375 421.328125 L 505.636719 421.328125 L 505.636719 424.4375 " fill-opacity="1" fill-rule="nonzero"/><path fill="#ffbc52" d="M 584.363281 395.15625 L 574.519531 395.15625 L 574.519531 392.851562 L 584.363281 392.851562 L 584.363281 395.15625 " fill-opacity="1" fill-rule="nonzero"/><path fill="#ffad2b" d="M 586.894531 391.539062 C 586.894531 392.507812 586.113281 393.292969 585.148438 393.292969 L 573.738281 393.292969 C 572.773438 393.292969 571.988281 392.507812 571.988281 391.539062 C 571.988281 390.574219 572.773438 389.792969 573.738281 389.792969 L 585.148438 389.792969 C 586.113281 389.792969 586.894531 390.574219 586.894531 391.539062 " fill-opacity="1" fill-rule="nonzero"/><path fill="#e09e32" d="M 593.308594 429.050781 L 564.664062 429.050781 L 564.664062 425.160156 L 593.308594 425.160156 L 593.308594 429.050781 " fill-opacity="1" fill-rule="nonzero"/><path fill="#e0efff" d="M 609.234375 399.628906 C 608.367188 395.746094 604.910156 394.65625 600.769531 394.65625 L 557.109375 394.65625 C 552.96875 394.65625 549.511719 395.746094 548.644531 399.628906 L 609.234375 399.628906 " fill-opacity="1" fill-rule="nonzero"/><path fill="#badcff" d="M 579.035156 394.65625 L 579.035156 399.625 L 554.394531 399.625 L 554.394531 394.847656 C 555.390625 394.71875 556.160156 394.65625 557.109375 394.65625 L 579.035156 394.65625 " fill-opacity="1" fill-rule="nonzero"/><path fill="#ffbc52" d="M 593.308594 426.394531 C 602.839844 421.277344 609.324219 411.210938 609.324219 399.628906 L 548.648438 399.628906 C 548.648438 411.210938 555.132812 421.277344 564.664062 426.394531 L 593.308594 426.394531 " fill-opacity="1" fill-rule="nonzero"/><path fill="#ffbc52" d="M 593.308594 427.8125 L 564.664062 427.8125 C 564.664062 427.8125 561.335938 429.230469 561.335938 431.585938 L 596.636719 431.585938 C 596.636719 429.230469 593.308594 427.8125 593.308594 427.8125 " fill-opacity="1" fill-rule="nonzero"/><path fill="#ffad2b" d="M 568.347656 399.628906 L 548.648438 399.628906 C 548.648438 411.210938 555.128906 421.277344 564.664062 426.398438 L 584.363281 426.398438 C 574.832031 421.277344 568.347656 411.210938 568.347656 399.628906 " fill-opacity="1" fill-rule="nonzero"/><path fill="#ffb339" d="M 610.65625 401.160156 C 610.65625 401.710938 610.210938 402.15625 609.660156 402.15625 L 548.308594 402.15625 C 547.757812 402.15625 547.3125 401.710938 547.3125 401.160156 L 547.3125 400.625 C 547.3125 400.074219 547.757812 399.628906 548.308594 399.628906 L 609.660156 399.628906 C 610.210938 399.628906 610.65625 400.074219 610.65625 400.625 L 610.65625 401.160156 " fill-opacity="1" fill-rule="nonzero"/><path fill="#e09e32" d="M 609.695312 403.113281 L 548.152344 403.113281 L 548.152344 402.15625 L 609.695312 402.15625 L 609.695312 403.113281 " fill-opacity="1" fill-rule="nonzero"/><path fill="#ffad2b" d="M 584.113281 427.8125 L 564.664062 427.8125 C 564.664062 427.8125 561.332031 429.230469 561.332031 431.585938 L 580.785156 431.585938 C 580.785156 429.230469 584.113281 427.8125 584.113281 427.8125 " fill-opacity="1" fill-rule="nonzero"/></svg>