<svg xmlns="http://www.w3.org/2000/svg" xmlns:xlink="http://www.w3.org/1999/xlink" width="1366" zoomAndPan="magnify" viewBox="0 0 1024.5 576" height="768" preserveAspectRatio="xMidYMid meet" version="1.0"><defs><clipPath id="903771be76"><path d="M 0 0.140625 L 1024 0.140625 L 1024 575.859375 L 0 575.859375 Z M 0 0.140625 " clip-rule="nonzero"/></clipPath><clipPath id="6c70bef319"><path d="M 362 91.347656 L 614 91.347656 L 614 412 L 362 412 Z M 362 91.347656 " clip-rule="nonzero"/></clipPath><clipPath id="e7d1dd2015"><path d="M 352.511719 376.890625 L 366.425781 376.890625 L 366.425781 424.617188 L 352.511719 424.617188 Z M 352.511719 376.890625 " clip-rule="nonzero"/></clipPath><clipPath id="9f2c697c2d"><path d="M 366.410156 424.507812 C 358.433594 422.128906 353.320312 418.457031 353.242188 414.246094 L 352.550781 376.992188 L 355.925781 376.933594 L 357.933594 379.039062 C 356.644531 386.992188 355.976562 395.136719 357.265625 403.089844 C 358.519531 410.832031 361.757812 418.191406 366.410156 424.507812 " clip-rule="nonzero"/></clipPath><clipPath id="d0fd60cd80"><path d="M 335.636719 384 L 360 384 L 360 397 L 335.636719 397 Z M 335.636719 384 " clip-rule="nonzero"/></clipPath></defs><g clip-path="url(#903771be76)"><path fill="#ffffff" d="M 0 0.140625 L 1024.5 0.140625 L 1024.5 576.140625 L 0 576.140625 Z M 0 0.140625 " fill-opacity="1" fill-rule="nonzero"/><path fill="#ffffff" d="M 0 0.140625 L 1024.5 0.140625 L 1024.5 576.140625 L 0 576.140625 Z M 0 0.140625 " fill-opacity="1" fill-rule="nonzero"/></g><path fill="#009688" d="M 348.742188 416.3125 C 348.742188 402.226562 411.03125 390.804688 487.871094 390.804688 C 564.710938 390.804688 627 402.226562 627 416.3125 C 627 430.402344 564.710938 441.824219 487.871094 441.824219 C 411.03125 441.824219 348.742188 430.402344 348.742188 416.3125 " fill-opacity="1" fill-rule="nonzero"/><g clip-path="url(#6c70bef319)"><path fill="#ffffff" d="M 574.59375 91.347656 L 401.148438 91.347656 C 379.832031 91.347656 362.550781 108.617188 362.550781 129.917969 L 362.550781 411.214844 L 613.191406 411.214844 L 613.191406 129.917969 C 613.191406 108.617188 595.910156 91.347656 574.59375 91.347656 " fill-opacity="1" fill-rule="nonzero"/></g><path fill="#ed335c" d="M 589.652344 186.207031 L 386.085938 186.207031 L 386.085938 185.730469 L 589.652344 185.730469 L 589.652344 186.207031 " fill-opacity="1" fill-rule="nonzero"/><path fill="#ed335c" d="M 589.652344 203.835938 L 386.085938 203.835938 L 386.085938 203.359375 L 589.652344 203.359375 L 589.652344 203.835938 " fill-opacity="1" fill-rule="nonzero"/><path fill="#ed335c" d="M 589.652344 221.460938 L 386.085938 221.460938 L 386.085938 220.988281 L 589.652344 220.988281 L 589.652344 221.460938 " fill-opacity="1" fill-rule="nonzero"/><path fill="#ed335c" d="M 589.652344 239.089844 L 386.085938 239.089844 L 386.085938 238.617188 L 589.652344 238.617188 L 589.652344 239.089844 " fill-opacity="1" fill-rule="nonzero"/><path fill="#ed335c" d="M 589.652344 256.71875 L 386.085938 256.71875 L 386.085938 256.246094 L 589.652344 256.246094 L 589.652344 256.71875 " fill-opacity="1" fill-rule="nonzero"/><path fill="#ed335c" d="M 589.652344 274.34375 L 386.085938 274.34375 L 386.085938 273.871094 L 589.652344 273.871094 L 589.652344 274.34375 " fill-opacity="1" fill-rule="nonzero"/><path fill="#ed335c" d="M 589.652344 291.972656 L 386.085938 291.972656 L 386.085938 291.5 L 589.652344 291.5 L 589.652344 291.972656 " fill-opacity="1" fill-rule="nonzero"/><path fill="#ed335c" d="M 589.652344 309.601562 L 386.085938 309.601562 L 386.085938 309.128906 L 589.652344 309.128906 L 589.652344 309.601562 " fill-opacity="1" fill-rule="nonzero"/><path fill="#ed335c" d="M 589.652344 327.230469 L 386.085938 327.230469 L 386.085938 326.757812 L 589.652344 326.757812 L 589.652344 327.230469 " fill-opacity="1" fill-rule="nonzero"/><path fill="#ed335c" d="M 455.589844 139.148438 C 456.375 138.765625 457.152344 138.296875 457.925781 137.738281 C 458.699219 137.175781 459.402344 136.503906 460.027344 135.722656 C 460.65625 134.933594 461.183594 134.046875 461.609375 133.046875 C 462.035156 132.050781 462.304688 130.925781 462.417969 129.671875 C 462.503906 128.550781 462.433594 127.617188 462.199219 126.867188 C 461.960938 126.113281 461.613281 125.515625 461.15625 125.066406 C 460.695312 124.621094 460.175781 124.300781 459.59375 124.109375 C 459.007812 123.921875 458.425781 123.824219 457.84375 123.824219 C 457.304688 123.824219 456.761719 123.902344 456.210938 124.058594 C 455.664062 124.214844 455.128906 124.417969 454.617188 124.664062 C 454.683594 124.6875 454.761719 124.742188 454.851562 124.832031 C 454.894531 124.898438 454.945312 124.984375 455.003906 125.082031 C 455.058594 125.183594 455.097656 125.292969 455.121094 125.402344 C 454.605469 127.574219 454.1875 129.390625 453.875 130.847656 C 453.5625 132.304688 453.304688 133.492188 453.101562 134.410156 C 452.855469 135.484375 452.675781 136.347656 452.566406 136.996094 C 452.542969 137.085938 452.523438 137.175781 452.515625 137.265625 C 452.503906 137.355469 452.484375 137.457031 452.464844 137.570312 C 452.957031 137.679688 453.472656 137.855469 454.011719 138.089844 C 454.546875 138.324219 455.074219 138.675781 455.589844 139.148438 Z M 451.992188 140.292969 C 452.261719 140.246094 452.53125 140.195312 452.800781 140.140625 C 453.070312 140.082031 453.359375 140.011719 453.675781 139.917969 C 453.292969 139.5625 452.789062 139.339844 452.160156 139.246094 C 452.09375 139.605469 452.035156 139.953125 451.992188 140.292969 Z M 465.746094 129.90625 C 465.65625 130.871094 465.402344 131.878906 464.988281 132.929688 C 464.574219 133.984375 463.996094 135.003906 463.257812 135.988281 C 462.515625 136.972656 461.621094 137.894531 460.566406 138.742188 C 459.511719 139.59375 458.3125 140.292969 456.96875 140.828125 C 457.171875 141.210938 457.359375 141.613281 457.539062 142.035156 C 457.71875 142.464844 457.875 142.945312 458.011719 143.484375 C 458.210938 144.199219 458.386719 144.9375 458.53125 145.699219 C 458.679688 146.464844 458.800781 147.203125 458.902344 147.917969 C 459.003906 148.636719 459.09375 149.300781 459.171875 149.917969 C 459.25 150.53125 459.3125 151.042969 459.355469 151.445312 C 459.445312 152.121094 459.664062 152.59375 460.011719 152.875 C 460.359375 153.152344 460.75 153.3125 461.1875 153.34375 C 461.625 153.378906 462.0625 153.328125 462.5 153.191406 C 462.9375 153.058594 463.277344 152.914062 463.527344 152.757812 C 463.503906 152.777344 463.378906 152.976562 463.15625 153.34375 C 462.929688 153.714844 462.628906 154.105469 462.25 154.523438 C 461.867188 154.9375 461.414062 155.292969 460.886719 155.597656 C 460.359375 155.898438 459.769531 155.996094 459.121094 155.882812 C 458.671875 155.8125 458.273438 155.664062 457.925781 155.425781 C 457.578125 155.195312 457.277344 154.847656 457.019531 154.386719 C 456.761719 153.925781 456.554688 153.339844 456.398438 152.621094 C 456.242188 151.90625 456.140625 151.03125 456.09375 150 C 456.050781 148.613281 456 147.285156 455.941406 146.019531 C 455.886719 144.753906 455.644531 143.585938 455.21875 142.507812 C 455.152344 142.328125 455.085938 142.15625 455.019531 141.988281 C 454.953125 141.820312 454.871094 141.667969 454.785156 141.535156 C 453.863281 141.757812 452.832031 141.902344 451.691406 141.96875 C 451.53125 142.820312 451.363281 143.695312 451.183594 144.589844 C 451.007812 145.488281 450.820312 146.363281 450.628906 147.210938 C 450.441406 148.0625 450.238281 148.863281 450.027344 149.613281 C 449.8125 150.367188 449.605469 151.007812 449.402344 151.546875 C 449.179688 152.105469 448.894531 152.558594 448.546875 152.90625 C 448.199219 153.253906 447.644531 153.429688 446.882812 153.429688 C 446.433594 153.429688 446.042969 153.328125 445.703125 153.125 C 445.367188 152.925781 445.042969 152.644531 444.730469 152.285156 C 444.820312 152.21875 444.960938 152.113281 445.148438 151.96875 C 445.339844 151.820312 445.566406 151.53125 445.824219 151.09375 C 446.078125 150.65625 446.359375 150.035156 446.664062 149.226562 C 446.964844 148.421875 447.273438 147.335938 447.585938 145.96875 C 447.699219 145.410156 447.851562 144.753906 448.042969 144.003906 C 448.230469 143.253906 448.4375 142.429688 448.664062 141.535156 C 447.765625 141.039062 447.351562 140.378906 447.417969 139.550781 C 447.464844 139.035156 447.699219 138.601562 448.125 138.242188 C 448.550781 137.882812 449.066406 137.636719 449.671875 137.5 C 449.964844 136.335938 450.261719 135.160156 450.5625 133.972656 C 450.867188 132.785156 451.152344 131.671875 451.421875 130.628906 C 451.691406 129.585938 451.9375 128.648438 452.160156 127.804688 C 452.386719 126.964844 452.566406 126.300781 452.699219 125.808594 C 452.296875 126.074219 451.890625 126.378906 451.488281 126.714844 C 451.128906 127.003906 450.742188 127.335938 450.328125 127.703125 C 449.914062 128.078125 449.527344 128.460938 449.167969 128.863281 C 448.988281 128.730469 448.84375 128.585938 448.730469 128.429688 C 448.617188 128.273438 448.527344 128.136719 448.460938 128.023438 C 448.371094 127.890625 448.304688 127.746094 448.261719 127.585938 C 448.105469 127.273438 448.023438 126.933594 448.023438 126.5625 C 448.023438 126.195312 448.292969 125.816406 448.832031 125.4375 C 449.121094 125.238281 449.566406 124.945312 450.160156 124.5625 C 450.753906 124.183594 451.488281 123.8125 452.363281 123.453125 C 453.238281 123.097656 454.25 122.78125 455.40625 122.515625 C 456.558594 122.246094 457.84375 122.109375 459.253906 122.109375 C 460.667969 122.109375 461.8125 122.390625 462.683594 122.949219 C 463.558594 123.511719 464.230469 124.191406 464.703125 125 C 465.171875 125.808594 465.480469 126.660156 465.628906 127.554688 C 465.773438 128.449219 465.8125 129.234375 465.746094 129.90625 " fill-opacity="1" fill-rule="nonzero"/><path fill="#ed335c" d="M 471.863281 135.382812 C 471.597656 135.382812 471.277344 135.519531 470.90625 135.785156 C 470.539062 136.054688 470.171875 136.441406 469.8125 136.945312 C 469.453125 137.449219 469.117188 138.066406 468.804688 138.792969 C 468.492188 139.523438 468.257812 140.355469 468.097656 141.296875 C 468.367188 141.097656 468.660156 140.890625 468.972656 140.675781 C 469.285156 140.464844 469.601562 140.234375 469.914062 139.988281 C 470.878906 139.246094 471.550781 138.597656 471.933594 138.039062 C 472.3125 137.480469 472.527344 136.996094 472.570312 136.59375 C 472.617188 136.167969 472.570312 135.859375 472.4375 135.667969 C 472.300781 135.476562 472.113281 135.382812 471.863281 135.382812 Z M 480.472656 140.558594 C 479.800781 141.546875 479.039062 142.503906 478.1875 143.429688 C 477.335938 144.363281 476.433594 145.191406 475.480469 145.917969 C 474.527344 146.644531 473.550781 147.234375 472.554688 147.683594 C 471.558594 148.128906 470.585938 148.355469 469.644531 148.355469 C 469.152344 148.355469 468.621094 148.238281 468.046875 148 C 467.476562 147.765625 466.957031 147.402344 466.484375 146.910156 C 466.015625 146.417969 465.640625 145.777344 465.359375 144.992188 C 465.078125 144.210938 464.996094 143.257812 465.105469 142.136719 C 465.195312 141.21875 465.480469 140.25 465.964844 139.230469 C 466.445312 138.210938 467.039062 137.277344 467.746094 136.425781 C 468.453125 135.574219 469.246094 134.867188 470.132812 134.308594 C 471.019531 133.75 471.910156 133.46875 472.804688 133.46875 C 473.660156 133.46875 474.273438 133.683594 474.65625 134.105469 C 475.035156 134.53125 475.203125 135.058594 475.160156 135.6875 C 475.09375 136.378906 474.898438 137.019531 474.570312 137.601562 C 474.246094 138.183594 473.859375 138.710938 473.410156 139.179688 C 472.964844 139.652344 472.488281 140.078125 471.984375 140.457031 C 471.476562 140.839844 471.003906 141.1875 470.554688 141.5 C 470.0625 141.835938 469.589844 142.152344 469.140625 142.457031 C 468.691406 142.757812 468.300781 143.035156 467.964844 143.28125 C 467.988281 143.839844 468.089844 144.308594 468.269531 144.691406 C 468.445312 145.074219 468.671875 145.378906 468.941406 145.617188 C 469.207031 145.851562 469.515625 146.019531 469.863281 146.121094 C 470.210938 146.222656 470.566406 146.269531 470.921875 146.269531 C 471.683594 146.269531 472.480469 146.03125 473.3125 145.546875 C 474.140625 145.066406 474.953125 144.484375 475.75 143.800781 C 476.542969 143.117188 477.285156 142.40625 477.96875 141.667969 C 478.652344 140.929688 479.21875 140.289062 479.667969 139.75 C 479.824219 139.570312 479.984375 139.464844 480.152344 139.433594 C 480.320312 139.398438 480.457031 139.421875 480.558594 139.5 C 480.65625 139.578125 480.707031 139.714844 480.707031 139.902344 C 480.707031 140.09375 480.628906 140.3125 480.472656 140.558594 " fill-opacity="1" fill-rule="nonzero"/><path fill="#ed335c" d="M 483.769531 146.40625 C 484.460938 146.40625 485.230469 146.132812 486.070312 145.582031 C 486.914062 145.035156 487.730469 144.390625 488.527344 143.648438 C 489.320312 142.910156 490.050781 142.152344 490.710938 141.378906 C 491.375 140.609375 491.871094 139.988281 492.207031 139.515625 C 492.410156 139.226562 492.601562 139.050781 492.777344 138.996094 C 492.957031 138.9375 493.09375 138.96875 493.183594 139.082031 C 493.273438 139.191406 493.304688 139.367188 493.285156 139.601562 C 493.261719 139.835938 493.160156 140.097656 492.980469 140.390625 C 492.824219 140.660156 492.5625 141.046875 492.191406 141.550781 C 491.820312 142.054688 491.382812 142.601562 490.878906 143.195312 C 490.375 143.789062 489.804688 144.394531 489.164062 145.011719 C 488.527344 145.628906 487.859375 146.1875 487.164062 146.691406 C 486.46875 147.195312 485.75 147.609375 485.011719 147.933594 C 484.273438 148.257812 483.542969 148.421875 482.828125 148.421875 C 481.839844 148.421875 481.015625 148.238281 480.355469 147.867188 C 479.695312 147.496094 479.167969 147.023438 478.773438 146.441406 C 478.382812 145.855469 478.109375 145.210938 477.949219 144.507812 C 477.792969 143.800781 477.714844 143.101562 477.714844 142.40625 C 477.714844 141.714844 477.875 140.847656 478.1875 139.820312 C 478.5 138.789062 478.964844 137.796875 479.582031 136.84375 C 480.199219 135.894531 480.976562 135.074219 481.917969 134.390625 C 482.859375 133.710938 483.96875 133.367188 485.246094 133.367188 C 485.964844 133.367188 486.574219 133.613281 487.082031 134.105469 C 487.585938 134.597656 487.824219 135.273438 487.800781 136.121094 C 487.800781 136.523438 487.734375 136.925781 487.601562 137.316406 C 487.46875 137.707031 487.289062 138.054688 487.0625 138.359375 C 486.839844 138.660156 486.574219 138.898438 486.273438 139.082031 C 485.972656 139.261719 485.640625 139.347656 485.28125 139.347656 C 484.988281 139.347656 484.769531 139.242188 484.625 139.027344 C 484.480469 138.816406 484.390625 138.570312 484.355469 138.289062 C 484.324219 138.011719 484.324219 137.738281 484.355469 137.464844 C 484.390625 137.199219 484.429688 137.019531 484.472656 136.929688 C 484.585938 136.773438 484.710938 136.660156 484.84375 136.59375 C 484.976562 136.523438 485.136719 136.449219 485.316406 136.355469 C 485.449219 136.289062 485.554688 136.191406 485.636719 136.054688 C 485.710938 135.921875 485.75 135.773438 485.75 135.621094 C 485.75 135.460938 485.707031 135.328125 485.617188 135.214844 C 485.527344 135.105469 485.382812 135.046875 485.179688 135.046875 C 484.976562 135.046875 484.613281 135.210938 484.089844 135.535156 C 483.5625 135.859375 483.023438 136.339844 482.472656 136.980469 C 481.925781 137.617188 481.4375 138.421875 481.011719 139.382812 C 480.585938 140.347656 480.359375 141.464844 480.339844 142.742188 C 480.316406 143.480469 480.414062 144.085938 480.640625 144.558594 C 480.863281 145.027344 481.144531 145.398438 481.480469 145.667969 C 481.816406 145.933594 482.1875 146.125 482.59375 146.238281 C 482.996094 146.351562 483.386719 146.40625 483.769531 146.40625 " fill-opacity="1" fill-rule="nonzero"/><path fill="#ed335c" d="M 497.957031 127.757812 C 497.890625 128.003906 497.761719 128.242188 497.570312 128.476562 C 497.378906 128.714844 497.167969 128.90625 496.933594 129.050781 C 496.699219 129.195312 496.457031 129.289062 496.207031 129.335938 C 495.960938 129.382812 495.761719 129.335938 495.605469 129.199219 C 495.132812 128.84375 494.886719 128.457031 494.863281 128.042969 C 494.84375 127.625 494.941406 127.234375 495.167969 126.867188 C 495.390625 126.496094 495.671875 126.183594 496.007812 125.921875 C 496.34375 125.667969 496.636719 125.515625 496.882812 125.46875 C 497.128906 125.425781 497.335938 125.476562 497.503906 125.621094 C 497.671875 125.769531 497.800781 125.957031 497.890625 126.191406 C 497.980469 126.425781 498.03125 126.691406 498.042969 126.980469 C 498.050781 127.273438 498.023438 127.53125 497.957031 127.757812 Z M 493.320312 134.914062 C 493.429688 134.777344 493.640625 134.667969 493.957031 134.578125 C 494.269531 134.488281 494.597656 134.414062 494.929688 134.359375 C 495.269531 134.304688 495.574219 134.269531 495.855469 134.257812 C 496.136719 134.246094 496.300781 134.253906 496.34375 134.273438 C 496.367188 134.296875 496.308594 134.53125 496.175781 134.980469 C 496.042969 135.429688 495.875 135.957031 495.671875 136.558594 C 495.46875 137.164062 495.257812 137.785156 495.03125 138.425781 C 494.808594 139.0625 494.640625 139.582031 494.527344 139.988281 C 494.414062 140.390625 494.28125 140.84375 494.125 141.347656 C 493.96875 141.851562 493.828125 142.34375 493.703125 142.824219 C 493.582031 143.308594 493.496094 143.761719 493.453125 144.1875 C 493.40625 144.613281 493.441406 144.9375 493.554688 145.164062 C 493.664062 145.429688 493.789062 145.617188 493.921875 145.714844 C 494.058594 145.816406 494.203125 145.867188 494.359375 145.867188 C 494.808594 145.867188 495.375 145.621094 496.058594 145.128906 C 496.742188 144.636719 497.4375 144.046875 498.144531 143.363281 C 498.851562 142.679688 499.503906 141.988281 500.109375 141.28125 C 500.714844 140.578125 501.164062 140.011719 501.457031 139.582031 C 501.632812 139.359375 501.820312 139.214844 502.011719 139.148438 C 502.199219 139.078125 502.355469 139.09375 502.480469 139.179688 C 502.605469 139.269531 502.667969 139.414062 502.683594 139.617188 C 502.695312 139.820312 502.621094 140.054688 502.464844 140.324219 C 502.105469 140.949219 501.578125 141.695312 500.882812 142.558594 C 500.1875 143.421875 499.449219 144.25 498.664062 145.042969 C 497.878906 145.839844 497.113281 146.515625 496.359375 147.078125 C 495.609375 147.636719 495 147.929688 494.527344 147.949219 C 494.148438 147.972656 493.773438 147.914062 493.402344 147.765625 C 493.03125 147.621094 492.695312 147.417969 492.394531 147.160156 C 492.089844 146.90625 491.835938 146.601562 491.636719 146.253906 C 491.433594 145.90625 491.324219 145.542969 491.300781 145.164062 C 491.234375 144.601562 491.234375 143.835938 491.300781 142.859375 C 491.367188 141.886719 491.488281 140.890625 491.671875 139.871094 C 491.847656 138.851562 492.078125 137.882812 492.359375 136.964844 C 492.640625 136.042969 492.960938 135.363281 493.320312 134.914062 " fill-opacity="1" fill-rule="nonzero"/><path fill="#ed335c" d="M 503.742188 141.0625 C 503.628906 141.445312 503.511719 141.886719 503.386719 142.390625 C 503.265625 142.894531 503.125 143.492188 502.96875 144.1875 C 503.148438 144.054688 503.347656 143.953125 503.574219 143.886719 C 503.796875 143.816406 504.023438 143.785156 504.246094 143.785156 C 504.492188 143.785156 504.804688 143.914062 505.1875 144.167969 C 505.570312 144.429688 506.027344 144.703125 506.566406 144.996094 C 506.902344 144.589844 507.257812 144.136719 507.625 143.632812 C 507.996094 143.128906 508.332031 142.605469 508.632812 142.070312 C 508.9375 141.535156 509.195312 140.984375 509.410156 140.425781 C 509.621094 139.863281 509.738281 139.328125 509.761719 138.808594 C 509.804688 138.140625 509.726562 137.613281 509.523438 137.230469 C 509.324219 136.851562 508.988281 136.660156 508.515625 136.660156 C 507.820312 136.660156 507.066406 137.070312 506.246094 137.886719 C 505.429688 138.703125 504.59375 139.761719 503.742188 141.0625 Z M 497.589844 161.894531 C 497.429688 161.828125 497.273438 161.726562 497.117188 161.59375 C 496.984375 161.480469 496.847656 161.34375 496.714844 161.175781 C 496.578125 161.007812 496.46875 160.800781 496.378906 160.550781 C 497.007812 158.15625 497.539062 156.070312 497.976562 154.300781 C 498.410156 152.53125 498.789062 151.054688 499.101562 149.867188 C 499.4375 148.476562 499.730469 147.3125 499.976562 146.371094 C 500.199219 145.476562 500.421875 144.578125 500.648438 143.683594 C 500.828125 142.898438 501.023438 142.058594 501.234375 141.164062 C 501.449219 140.265625 501.644531 139.425781 501.824219 138.640625 C 502.050781 137.769531 502.183594 137.070312 502.230469 136.542969 C 502.273438 136.015625 502.105469 135.5625 501.726562 135.179688 C 501.992188 134.957031 502.265625 134.78125 502.546875 134.660156 C 502.828125 134.539062 503.078125 134.453125 503.304688 134.410156 C 503.550781 134.339844 503.796875 134.320312 504.042969 134.339844 C 504.648438 134.386719 505.023438 134.578125 505.171875 134.914062 C 505.316406 135.25 505.332031 135.785156 505.222656 136.527344 C 505.199219 136.636719 505.179688 136.734375 505.171875 136.8125 C 505.160156 136.890625 505.152344 136.972656 505.152344 137.0625 C 505.46875 136.703125 505.816406 136.359375 506.195312 136.023438 C 506.578125 135.683594 506.964844 135.382812 507.355469 135.113281 C 507.746094 134.84375 508.152344 134.628906 508.566406 134.460938 C 508.980469 134.292969 509.378906 134.207031 509.761719 134.207031 C 510.277344 134.207031 510.695312 134.335938 511.019531 134.59375 C 511.347656 134.851562 511.597656 135.195312 511.777344 135.617188 C 511.957031 136.042969 512.070312 136.519531 512.113281 137.046875 C 512.160156 137.574219 512.171875 138.09375 512.148438 138.609375 C 512.125 139.167969 512.03125 139.761719 511.863281 140.390625 C 511.695312 141.015625 511.464844 141.65625 511.171875 142.304688 C 510.878906 142.953125 510.546875 143.59375 510.164062 144.222656 C 509.785156 144.847656 509.378906 145.429688 508.953125 145.96875 C 509.042969 145.992188 509.101562 146.007812 509.121094 146.019531 C 509.144531 146.03125 509.15625 146.039062 509.15625 146.050781 C 509.15625 146.0625 509.171875 146.074219 509.207031 146.085938 C 509.238281 146.097656 509.3125 146.101562 509.421875 146.101562 C 509.941406 146.101562 510.464844 145.96875 511.003906 145.699219 C 511.542969 145.429688 512.070312 145.089844 512.585938 144.675781 C 513.101562 144.261719 513.597656 143.808594 514.082031 143.3125 C 514.5625 142.820312 515 142.34375 515.390625 141.886719 C 515.785156 141.425781 516.117188 141.011719 516.386719 140.640625 C 516.652344 140.273438 516.855469 140.011719 516.992188 139.851562 C 517.167969 139.628906 517.335938 139.476562 517.492188 139.398438 C 517.652344 139.320312 517.773438 139.316406 517.863281 139.382812 C 517.953125 139.449219 518 139.578125 518 139.769531 C 518 139.957031 517.929688 140.199219 517.796875 140.492188 C 517.707031 140.691406 517.515625 141.015625 517.226562 141.464844 C 516.933594 141.914062 516.574219 142.417969 516.148438 142.976562 C 515.722656 143.539062 515.234375 144.121094 514.6875 144.726562 C 514.136719 145.332031 513.5625 145.878906 512.957031 146.371094 C 512.351562 146.863281 511.726562 147.273438 511.089844 147.597656 C 510.449219 147.921875 509.828125 148.085938 509.222656 148.085938 C 508.929688 148.085938 508.695312 148.074219 508.515625 148.050781 C 508.335938 148.027344 508.1875 147.988281 508.0625 147.933594 C 507.9375 147.878906 507.820312 147.820312 507.710938 147.765625 C 507.597656 147.710938 507.464844 147.648438 507.308594 147.582031 C 506.902344 147.894531 506.488281 148.136719 506.0625 148.304688 C 505.636719 148.472656 505.222656 148.554688 504.816406 148.554688 C 504.4375 148.554688 504.105469 148.492188 503.824219 148.371094 C 503.542969 148.25 503.316406 148.082031 503.136719 147.867188 C 502.957031 147.652344 502.8125 147.417969 502.699219 147.164062 C 502.585938 146.902344 502.5 146.652344 502.429688 146.40625 C 502.40625 146.496094 502.390625 146.574219 502.378906 146.640625 C 502.367188 146.707031 502.351562 146.796875 502.328125 146.910156 C 502.058594 147.984375 501.78125 149.230469 501.488281 150.640625 C 501.242188 151.847656 500.945312 153.320312 500.597656 155.058594 C 500.25 156.792969 499.886719 158.769531 499.503906 160.988281 C 499.371094 161.59375 499.128906 161.941406 498.78125 162.03125 C 498.433594 162.121094 498.035156 162.074219 497.589844 161.894531 " fill-opacity="1" fill-rule="nonzero"/><path fill="#ed335c" d="M 522.167969 135.382812 C 521.898438 135.382812 521.578125 135.519531 521.210938 135.785156 C 520.839844 136.054688 520.476562 136.441406 520.117188 136.945312 C 519.757812 137.449219 519.421875 138.066406 519.109375 138.792969 C 518.792969 139.523438 518.558594 140.355469 518.402344 141.296875 C 518.671875 141.097656 518.960938 140.890625 519.277344 140.675781 C 519.589844 140.464844 519.902344 140.234375 520.21875 139.988281 C 521.179688 139.246094 521.855469 138.597656 522.234375 138.039062 C 522.617188 137.480469 522.828125 136.996094 522.875 136.59375 C 522.917969 136.167969 522.875 135.859375 522.738281 135.667969 C 522.605469 135.476562 522.414062 135.382812 522.167969 135.382812 Z M 530.777344 140.558594 C 530.105469 141.546875 529.339844 142.503906 528.492188 143.429688 C 527.636719 144.363281 526.734375 145.191406 525.78125 145.917969 C 524.828125 146.644531 523.855469 147.234375 522.859375 147.683594 C 521.859375 148.128906 520.890625 148.355469 519.949219 148.355469 C 519.457031 148.355469 518.921875 148.238281 518.351562 148 C 517.78125 147.765625 517.257812 147.402344 516.789062 146.910156 C 516.316406 146.417969 515.941406 145.777344 515.660156 144.992188 C 515.382812 144.210938 515.296875 143.257812 515.410156 142.136719 C 515.5 141.21875 515.785156 140.25 516.265625 139.230469 C 516.75 138.210938 517.34375 137.277344 518.046875 136.425781 C 518.753906 135.574219 519.550781 134.867188 520.4375 134.308594 C 521.320312 133.75 522.210938 133.46875 523.109375 133.46875 C 523.960938 133.46875 524.578125 133.683594 524.957031 134.105469 C 525.339844 134.53125 525.507812 135.058594 525.464844 135.6875 C 525.398438 136.378906 525.199219 137.019531 524.875 137.601562 C 524.550781 138.183594 524.164062 138.710938 523.714844 139.179688 C 523.265625 139.652344 522.789062 140.078125 522.285156 140.457031 C 521.78125 140.839844 521.304688 141.1875 520.855469 141.5 C 520.363281 141.835938 519.890625 142.152344 519.445312 142.457031 C 518.996094 142.757812 518.601562 143.035156 518.269531 143.28125 C 518.289062 143.839844 518.390625 144.308594 518.570312 144.691406 C 518.75 145.074219 518.972656 145.378906 519.242188 145.617188 C 519.511719 145.851562 519.820312 146.019531 520.167969 146.121094 C 520.515625 146.222656 520.867188 146.269531 521.226562 146.269531 C 521.988281 146.269531 522.785156 146.03125 523.613281 145.546875 C 524.441406 145.066406 525.257812 144.484375 526.050781 143.800781 C 526.847656 143.117188 527.585938 142.40625 528.273438 141.667969 C 528.953125 140.929688 529.519531 140.289062 529.96875 139.75 C 530.125 139.570312 530.289062 139.464844 530.457031 139.433594 C 530.625 139.398438 530.761719 139.421875 530.859375 139.5 C 530.960938 139.578125 531.011719 139.714844 531.011719 139.902344 C 531.011719 140.09375 530.933594 140.3125 530.777344 140.558594 " fill-opacity="1" fill-rule="nonzero"/><path fill="#ed335c" d="M 413.042969 375.871094 C 406.597656 373.9375 398.273438 372.847656 389.191406 373.015625 C 380.105469 373.183594 371.828125 374.582031 365.460938 376.753906 L 352.550781 376.992188 L 353.242188 414.246094 C 353.382812 421.855469 369.929688 427.722656 390.199219 427.34375 C 410.464844 426.96875 426.78125 420.496094 426.640625 412.886719 L 425.949219 375.632812 L 413.042969 375.871094 " fill-opacity="1" fill-rule="nonzero"/><g clip-path="url(#e7d1dd2015)"><g clip-path="url(#9f2c697c2d)"><path fill="#f65175" d="M 352.550781 424.507812 L 366.410156 424.507812 L 366.410156 376.933594 L 352.550781 376.933594 Z M 352.550781 424.507812 " fill-opacity="1" fill-rule="nonzero"/></g></g><path fill="#ff6e8e" d="M 391 386.394531 C 392.703125 390.726562 393.84375 418.839844 393.503906 423.480469 C 394.625 422.6875 395.328125 398.496094 396.449219 397.707031 C 397.710938 396.820312 398.988281 395.917969 399.957031 394.71875 C 400.929688 393.523438 401.578125 391.980469 401.359375 390.453125 L 395.832031 384.113281 C 395.167969 383.921875 391.273438 385.757812 391 386.394531 " fill-opacity="1" fill-rule="nonzero"/><path fill="#bf294a" d="M 426.640625 412.886719 L 425.949219 375.632812 L 413.042969 375.871094 C 411.753906 375.484375 410.335938 375.160156 408.90625 374.84375 L 395.523438 382.628906 C 395.34375 388.710938 394.664062 421.53125 392.601562 427.253906 C 411.734375 426.433594 426.777344 420.191406 426.640625 412.886719 " fill-opacity="1" fill-rule="nonzero"/><path fill="#ff6e8e" d="M 425.964844 376.359375 C 426.105469 383.96875 409.789062 390.441406 389.519531 390.816406 C 369.25 391.191406 352.707031 385.328125 352.566406 377.71875 C 352.421875 370.113281 368.742188 363.636719 389.007812 363.261719 C 409.277344 362.886719 425.824219 368.75 425.964844 376.359375 " fill-opacity="1" fill-rule="nonzero"/><path fill="#8c1e36" d="M 421.027344 376.453125 C 421.148438 383.035156 407.027344 388.640625 389.484375 388.964844 C 371.941406 389.289062 357.621094 384.214844 357.5 377.628906 C 357.378906 371.042969 371.5 365.441406 389.042969 365.117188 C 406.585938 364.789062 420.90625 369.863281 421.027344 376.453125 " fill-opacity="1" fill-rule="nonzero"/><path fill="#ffffff" d="M 361.421875 383.445312 C 361.449219 384.925781 360.273438 386.148438 358.792969 386.171875 C 357.3125 386.199219 356.09375 385.023438 356.066406 383.546875 C 356.039062 382.066406 357.214844 380.847656 358.695312 380.820312 C 360.171875 380.792969 361.394531 381.96875 361.421875 383.445312 " fill-opacity="1" fill-rule="nonzero"/><path fill="#ffffff" d="M 395.679688 390.28125 C 395.691406 391.058594 395.074219 391.703125 394.292969 391.71875 C 393.515625 391.730469 392.871094 391.113281 392.859375 390.335938 C 392.84375 389.554688 393.464844 388.914062 394.242188 388.898438 C 395.019531 388.886719 395.664062 389.503906 395.679688 390.28125 " fill-opacity="1" fill-rule="nonzero"/><g clip-path="url(#d0fd60cd80)"><path fill="#ed335c" d="M 347.734375 394.671875 C 343.484375 394.75 340.003906 393.019531 339.964844 390.808594 C 339.921875 388.597656 343.335938 386.738281 347.585938 386.660156 C 351.835938 386.582031 355.316406 388.308594 355.359375 390.523438 C 355.398438 392.738281 351.984375 394.59375 347.734375 394.671875 Z M 347.546875 384.457031 C 340.957031 384.578125 335.667969 387.457031 335.730469 390.886719 C 335.796875 394.316406 341.1875 396.996094 347.777344 396.875 C 354.363281 396.753906 359.652344 393.875 359.589844 390.445312 C 359.527344 387.015625 354.132812 384.335938 347.546875 384.457031 " fill-opacity="1" fill-rule="nonzero"/></g><path fill="#bf294a" d="M 431.484375 393.121094 C 427.234375 393.199219 423.753906 391.46875 423.714844 389.257812 C 423.671875 387.042969 427.085938 385.1875 431.335938 385.109375 C 435.585938 385.03125 439.066406 386.757812 439.109375 388.972656 C 439.148438 391.183594 435.734375 393.042969 431.484375 393.121094 Z M 431.296875 382.90625 C 424.707031 383.027344 419.417969 385.90625 419.480469 389.335938 C 419.546875 392.765625 424.9375 395.445312 431.527344 395.324219 C 438.113281 395.203125 443.402344 392.320312 443.339844 388.894531 C 443.277344 385.464844 437.882812 382.785156 431.296875 382.90625 " fill-opacity="1" fill-rule="nonzero"/><path fill="#ff6e8e" d="M 427.601562 372.785156 C 427.738281 380.070312 411.925781 386.269531 392.289062 386.636719 C 372.648438 387 356.621094 381.390625 356.484375 374.105469 C 356.347656 366.820312 372.160156 360.621094 391.796875 360.257812 C 411.4375 359.894531 427.46875 365.503906 427.601562 372.785156 " fill-opacity="1" fill-rule="nonzero"/><path fill="#ed335c" d="M 421.714844 369.324219 C 421.816406 374.632812 408.578125 379.1875 392.15625 379.492188 C 375.730469 379.796875 362.335938 375.738281 362.238281 370.425781 C 362.136719 365.113281 375.242188 353.417969 391.664062 353.113281 C 408.089844 352.808594 421.617188 364.011719 421.714844 369.324219 " fill-opacity="1" fill-rule="nonzero"/><path fill="#bf294a" d="M 394.179688 353.277344 C 396.996094 356.339844 398.820312 360.132812 397.75 363.851562 C 396.277344 368.972656 390.066406 371.957031 384.261719 373.824219 C 379.960938 375.203125 375.519531 376.226562 371.027344 377.046875 C 376.445312 378.695312 383.917969 379.644531 392.15625 379.492188 C 408.578125 379.1875 421.816406 374.632812 421.71875 369.324219 C 421.625 364.289062 409.429688 354.082031 394.179688 353.277344 " fill-opacity="1" fill-rule="nonzero"/><path fill="#ffffff" d="M 382.070312 360.203125 C 382.09375 361.382812 380.984375 362.363281 379.59375 362.386719 C 378.203125 362.414062 377.058594 361.476562 377.035156 360.296875 C 377.015625 359.113281 378.125 358.132812 379.515625 358.109375 C 380.90625 358.082031 382.050781 359.019531 382.070312 360.203125 " fill-opacity="1" fill-rule="nonzero"/><path fill="#ed335c" d="M 395 348.621094 C 395.066406 352.222656 393.902344 355.160156 392.394531 355.1875 C 390.890625 355.21875 389.617188 352.320312 389.550781 348.722656 C 389.484375 345.121094 390.648438 342.183594 392.152344 342.15625 C 393.660156 342.128906 394.933594 345.023438 395 348.621094 " fill-opacity="1" fill-rule="nonzero"/><path fill="#ffffff" d="M 392.992188 345.351562 C 393.003906 345.941406 392.53125 346.429688 391.941406 346.441406 C 391.347656 346.449219 390.863281 345.980469 390.851562 345.390625 C 390.839844 344.796875 391.308594 344.3125 391.902344 344.300781 C 392.492188 344.289062 392.980469 344.757812 392.992188 345.351562 " fill-opacity="1" fill-rule="nonzero"/><path fill="#ffa1b5" d="M 425.742188 368.710938 C 425.742188 368.933594 425.789062 369.152344 425.765625 369.371094 C 425.480469 371.925781 423.898438 374.203125 421.910156 375.835938 C 419.925781 377.472656 417.546875 378.550781 415.179688 379.554688 C 412.796875 380.566406 410.390625 381.527344 407.910156 382.273438 C 396.378906 385.734375 384.011719 385.1875 372.140625 383.167969 C 368.609375 382.566406 364.910156 380.769531 362.460938 378.15625 C 360.53125 376.097656 359.628906 373.269531 360.3125 370.53125 C 360.707031 368.933594 361.640625 367.515625 362.847656 366.398438 C 358.804688 368.621094 356.429688 371.277344 356.484375 374.105469 C 356.621094 381.386719 372.648438 387 392.289062 386.636719 C 411.925781 386.269531 427.738281 380.070312 427.601562 372.785156 C 427.574219 371.351562 426.910156 369.984375 425.742188 368.710938 " fill-opacity="1" fill-rule="nonzero"/><path fill="#ff8b33" d="M 576.996094 406.71875 C 566.789062 422.667969 547.546875 427.507812 532.355469 417.796875 C 517.164062 408.089844 514.007812 386.128906 524.214844 370.179688 C 534.425781 354.226562 555.011719 349.164062 570.203125 358.875 C 585.394531 368.582031 587.203125 390.765625 576.996094 406.71875 " fill-opacity="1" fill-rule="nonzero"/><path fill="#ffeba1" d="M 575.957031 403.378906 C 565.945312 419.019531 546.390625 424.390625 532.277344 415.371094 C 518.167969 406.355469 514.84375 386.363281 524.855469 370.71875 C 534.863281 355.074219 554.417969 349.703125 568.53125 358.722656 C 582.644531 367.742188 585.964844 387.734375 575.957031 403.378906 " fill-opacity="1" fill-rule="nonzero"/><path fill="#ffb152" d="M 573.902344 401.671875 C 564.382812 416.542969 546.042969 421.808594 532.933594 413.429688 C 519.824219 405.054688 516.910156 386.203125 526.429688 371.332031 C 535.945312 356.457031 554.289062 351.191406 567.398438 359.570312 C 580.507812 367.949219 583.417969 386.796875 573.902344 401.671875 " fill-opacity="1" fill-rule="nonzero"/><path fill="#ff8b33" d="M 577.878906 341.578125 C 580.171875 343.042969 580.957031 345.917969 579.625 347.992188 C 578.296875 350.070312 575.359375 350.5625 573.0625 349.097656 C 570.769531 347.628906 569.984375 344.757812 571.316406 342.679688 C 572.640625 340.605469 575.578125 340.109375 577.878906 341.578125 Z M 565.867188 358.0625 C 566.320312 357.953125 566.824219 358.011719 567.296875 358.398438 C 567.726562 358.753906 568.125 359.105469 568.5 359.480469 C 568.9375 359.191406 569.5 359.121094 570.105469 359.515625 C 570.683594 359.894531 571.265625 360.269531 571.847656 360.648438 C 571.980469 360.730469 572.058594 360.839844 572.160156 360.941406 C 572.21875 360.988281 572.28125 361.027344 572.335938 361.074219 C 572.484375 361.1875 572.597656 361.3125 572.691406 361.445312 C 578.679688 356.371094 589.226562 347.125 588.699219 345.300781 C 587.964844 342.761719 577 334.101562 571.667969 333.585938 C 567.171875 333.15625 564.179688 351.316406 563.351562 357.039062 C 564.214844 357.328125 565.058594 357.65625 565.867188 358.0625 " fill-opacity="1" fill-rule="nonzero"/><path fill="#ffeba1" d="M 570.429688 343.058594 C 571.703125 341.070312 574.421875 340.535156 576.5 341.863281 C 578.582031 343.195312 579.238281 345.886719 577.964844 347.871094 C 576.691406 349.863281 573.972656 350.398438 571.890625 349.066406 C 569.8125 347.738281 569.15625 345.046875 570.429688 343.058594 Z M 564.039062 359.515625 C 563.78125 358.464844 565.207031 358.066406 565.621094 359.035156 C 565.710938 359.246094 565.855469 359.417969 565.976562 359.605469 C 566.285156 359.308594 566.703125 359.15625 567.1875 359.332031 C 567.761719 359.535156 568.289062 359.785156 568.792969 360.074219 C 568.871094 360.097656 568.949219 360.101562 569.027344 360.140625 C 569.636719 360.429688 570.019531 360.878906 570.527344 361.285156 L 570.558594 361.324219 C 576.027344 356.578125 586.851562 346.902344 586.386719 345.125 C 585.769531 342.75 575.867188 334.835938 570.96875 334.476562 C 566.066406 334.121094 562.503906 358.390625 562.503906 358.390625 L 564.421875 360.527344 C 564.265625 360.214844 564.128906 359.882812 564.039062 359.515625 " fill-opacity="1" fill-rule="nonzero"/><path fill="#ffb152" d="M 571.175781 348.746094 C 569.261719 347.523438 568.734375 344.929688 569.996094 342.957031 C 571.257812 340.984375 573.835938 340.375 575.75 341.597656 C 577.664062 342.824219 578.191406 345.414062 576.929688 347.386719 C 575.667969 349.363281 573.09375 349.96875 571.175781 348.746094 Z M 584.949219 344.441406 C 584.441406 342.15625 575.382812 334.792969 570.785156 334.605469 C 566.183594 334.417969 562.035156 358.109375 562.035156 358.109375 L 566.550781 363.355469 C 566.550781 363.355469 585.449219 346.730469 584.949219 344.441406 " fill-opacity="1" fill-rule="nonzero"/><path fill="#ffbb6a" d="M 525.097656 373.582031 C 524.898438 373.539062 524.707031 373.492188 524.519531 373.441406 C 524.804688 372.933594 525.113281 372.4375 525.417969 371.941406 C 525.597656 371.988281 525.78125 372.03125 525.972656 372.066406 C 525.667969 372.566406 525.375 373.074219 525.097656 373.582031 " fill-opacity="1" fill-rule="nonzero"/><path fill="#ff9e42" d="M 557.34375 382.714844 C 556.722656 382.714844 556.105469 382.613281 555.507812 382.386719 C 553.617188 381.675781 552.355469 381.445312 551.152344 379.621094 C 547.839844 374.582031 544.296875 372.367188 539.726562 372.367188 C 538.246094 372.367188 536.660156 372.597656 534.9375 373.042969 C 532.929688 373.554688 530.589844 373.902344 528.394531 373.902344 C 527.234375 373.902344 526.109375 373.804688 525.097656 373.582031 C 525.375 373.074219 525.667969 372.566406 525.972656 372.066406 C 526.554688 372.167969 527.183594 372.214844 527.851562 372.214844 C 529.996094 372.214844 532.503906 371.742188 534.96875 371.265625 C 537.4375 370.792969 539.859375 370.320312 541.839844 370.320312 C 542.707031 370.320312 543.488281 370.410156 544.148438 370.628906 C 546.832031 371.527344 548.1875 372.441406 549.96875 374.644531 C 552.152344 377.34375 555.191406 378.503906 558.367188 378.503906 C 560.910156 378.503906 563.542969 377.757812 565.890625 376.460938 C 565.941406 376.433594 565.996094 376.421875 566.050781 376.421875 C 566.308594 376.421875 566.5625 376.707031 566.378906 376.957031 C 564.605469 379.390625 560.898438 382.714844 557.34375 382.714844 " fill-opacity="1" fill-rule="nonzero"/><path fill="#ff9e42" d="M 533.265625 393.679688 C 532.964844 393.679688 532.683594 393.488281 532.703125 393.105469 C 533.011719 387.730469 537.492188 384.074219 542.558594 384.074219 C 543.496094 384.074219 544.449219 384.199219 545.402344 384.460938 C 550.152344 385.761719 554.777344 388.742188 559.816406 388.738281 C 560.148438 388.738281 560.480469 388.726562 560.8125 388.699219 C 566.933594 388.210938 572.328125 385.457031 576.328125 380.796875 C 576.332031 380.789062 576.34375 380.785156 576.351562 380.785156 C 576.378906 380.785156 576.40625 380.816406 576.390625 380.847656 C 573.027344 386.300781 567.46875 390.191406 560.816406 390.238281 C 560.789062 390.238281 560.761719 390.238281 560.730469 390.238281 C 557.871094 390.238281 554.691406 389.253906 551.519531 388.265625 C 548.351562 387.28125 545.191406 386.292969 542.367188 386.292969 C 538.746094 386.292969 535.6875 387.917969 533.882812 393.253906 C 533.789062 393.539062 533.519531 393.679688 533.265625 393.679688 " fill-opacity="1" fill-rule="nonzero"/><path fill="#ffbb6a" d="M 526.519531 409.410156 C 526.285156 408.878906 526.023438 408.371094 525.691406 407.839844 C 525.933594 407.703125 526.175781 407.5625 526.417969 407.414062 C 526.792969 407.90625 527.183594 408.382812 527.589844 408.847656 C 527.234375 409.042969 526.878906 409.230469 526.519531 409.410156 " fill-opacity="1" fill-rule="nonzero"/><path fill="#ff9e42" d="M 527.589844 408.847656 C 527.183594 408.382812 526.792969 407.90625 526.417969 407.414062 C 530.472656 404.9375 534.292969 400.898438 539.164062 400.8125 C 539.21875 400.8125 539.277344 400.808594 539.332031 400.808594 C 541.105469 400.808594 542.738281 401.3125 544.289062 402.039062 C 543.703125 402.339844 543.160156 402.65625 542.652344 402.976562 C 541.929688 402.679688 541.148438 402.503906 540.289062 402.503906 C 539.410156 402.503906 538.445312 402.6875 537.367188 403.121094 C 534.601562 404.230469 531.128906 406.90625 527.589844 408.847656 " fill-opacity="1" fill-rule="nonzero"/><path fill="#ff9e42" d="M 527.671875 401.269531 C 527.453125 401.269531 527.328125 400.972656 527.421875 400.777344 C 529.210938 397.050781 534.347656 394.59375 538.269531 394.042969 C 538.710938 393.980469 539.160156 393.953125 539.609375 393.953125 C 541.253906 393.953125 542.917969 394.3125 544.519531 394.574219 C 546.109375 394.835938 547.574219 394.960938 549.058594 394.960938 C 550.148438 394.960938 551.246094 394.894531 552.410156 394.765625 C 552.414062 394.765625 552.417969 394.765625 552.417969 394.765625 C 552.484375 394.765625 552.515625 394.863281 552.46875 394.90625 C 551.132812 396.058594 549.5625 396.410156 547.910156 396.410156 C 545.550781 396.410156 543.03125 395.691406 540.820312 395.601562 C 540.605469 395.589844 540.398438 395.585938 540.1875 395.585938 C 537.238281 395.585938 534.601562 396.46875 532.191406 398.25 C 530.695312 399.351562 529.515625 400.574219 527.777344 401.246094 C 527.742188 401.261719 527.707031 401.269531 527.671875 401.269531 " fill-opacity="1" fill-rule="nonzero"/><path fill="#ffbb6a" d="M 519.382812 386.539062 C 519.539062 385.832031 519.714844 385.132812 519.90625 384.433594 C 520.453125 384.109375 520.980469 383.761719 521.503906 383.398438 C 521.335938 384.21875 521.199219 385.046875 521.09375 385.867188 C 520.53125 386.125 519.960938 386.347656 519.382812 386.539062 " fill-opacity="1" fill-rule="nonzero"/><path fill="#ff9e42" d="M 521.09375 385.867188 C 521.199219 385.046875 521.335938 384.21875 521.503906 383.398438 C 522.855469 382.457031 524.183594 381.414062 525.707031 380.464844 C 527.042969 379.632812 528.542969 378.800781 530.066406 378.800781 C 530.65625 378.800781 531.25 378.925781 531.835938 379.222656 C 532.246094 379.429688 532.078125 379.964844 531.71875 380.101562 C 529.972656 380.753906 528.203125 380.976562 526.640625 382.101562 C 525.339844 383.035156 524.144531 384.160156 522.773438 384.984375 C 522.21875 385.316406 521.660156 385.609375 521.09375 385.867188 " fill-opacity="1" fill-rule="nonzero"/><path fill="#ffbb6a" d="M 533.851562 362.945312 C 533.453125 362.828125 533.070312 362.699219 532.695312 362.5625 C 532.902344 362.347656 533.101562 362.128906 533.3125 361.917969 C 533.796875 362.050781 534.300781 362.136719 534.816406 362.183594 C 534.492188 362.429688 534.167969 362.683594 533.851562 362.945312 " fill-opacity="1" fill-rule="nonzero"/><path fill="#ff9e42" d="M 562.5 364.578125 C 562.3125 364.578125 562.128906 364.46875 562.0625 364.230469 C 560.988281 360.578125 558.53125 359.394531 555.4375 359.394531 C 552.589844 359.394531 549.203125 360.398438 545.871094 361.402344 C 542.542969 362.402344 539.269531 363.40625 536.636719 363.40625 C 535.992188 363.40625 535.390625 363.347656 534.835938 363.214844 C 534.5 363.132812 534.167969 363.042969 533.851562 362.945312 C 534.167969 362.683594 534.492188 362.429688 534.816406 362.183594 C 535.121094 362.207031 535.425781 362.222656 535.738281 362.222656 C 538.792969 362.222656 542.222656 360.996094 545.566406 359.773438 C 548.910156 358.546875 552.167969 357.320312 554.882812 357.320312 C 555.007812 357.320312 555.128906 357.324219 555.25 357.328125 C 559.417969 357.507812 563.398438 359.4375 563.003906 364.105469 C 562.980469 364.402344 562.734375 364.578125 562.5 364.578125 " fill-opacity="1" fill-rule="nonzero"/><path fill="#ffbb6a" d="M 578.804688 374.066406 C 578.59375 374.039062 578.378906 374.007812 578.167969 373.972656 C 577.972656 373.351562 577.761719 372.738281 577.53125 372.132812 C 577.6875 372.164062 577.84375 372.195312 578.003906 372.222656 C 578.019531 372.289062 578.007812 372.347656 578.03125 372.414062 C 578.234375 373.023438 578.503906 373.566406 578.804688 374.066406 " fill-opacity="1" fill-rule="nonzero"/><path fill="#ff9e42" d="M 578.167969 373.972656 C 577.570312 373.878906 576.976562 373.757812 576.410156 373.601562 C 573.125 372.699219 569.898438 371.207031 566.535156 370.636719 C 565.625 370.480469 564.769531 370.421875 563.933594 370.421875 C 561.933594 370.421875 560.066406 370.769531 557.925781 370.988281 C 557.914062 370.988281 557.898438 370.992188 557.886719 370.992188 C 557.496094 370.992188 557.285156 370.417969 557.589844 370.164062 C 559.101562 368.898438 561.011719 368.4375 562.984375 368.4375 C 564.835938 368.4375 566.746094 368.847656 568.433594 369.382812 C 571.621094 370.390625 574.574219 371.546875 577.53125 372.132812 C 577.761719 372.738281 577.972656 373.351562 578.167969 373.972656 " fill-opacity="1" fill-rule="nonzero"/><path fill="#ff9e42" d="M 540.414062 380.804688 C 539.816406 380.804688 539.164062 380.617188 538.566406 380.230469 C 537.238281 379.382812 536.671875 377.898438 537.296875 376.917969 C 537.644531 376.378906 538.277344 376.101562 538.996094 376.101562 C 539.589844 376.101562 540.242188 376.289062 540.84375 376.671875 C 542.171875 377.519531 542.738281 379.003906 542.109375 379.988281 C 541.765625 380.527344 541.132812 380.804688 540.414062 380.804688 " fill-opacity="1" fill-rule="nonzero"/><path fill="#ff9e42" d="M 572.1875 379.164062 C 571.714844 379.164062 571.175781 379.003906 570.671875 378.683594 C 569.640625 378.023438 569.160156 376.929688 569.601562 376.242188 C 569.828125 375.890625 570.25 375.710938 570.75 375.710938 C 571.222656 375.710938 571.765625 375.871094 572.269531 376.191406 C 573.300781 376.851562 573.78125 377.945312 573.339844 378.632812 C 573.113281 378.988281 572.6875 379.164062 572.1875 379.164062 " fill-opacity="1" fill-rule="nonzero"/><path fill="#ff9e42" d="M 558.21875 398.035156 C 558.261719 397.910156 558.320312 397.789062 558.398438 397.671875 C 558.699219 397.199219 559.1875 396.933594 559.652344 396.933594 C 559.867188 396.933594 560.078125 396.988281 560.261719 397.109375 C 560.488281 397.253906 560.648438 397.472656 560.730469 397.726562 C 559.875 397.816406 559.039062 397.921875 558.21875 398.035156 " fill-opacity="1" fill-rule="nonzero"/><path fill="#ffffff" d="M 587.332031 346.507812 C 586.765625 347.390625 585.597656 347.648438 584.710938 347.085938 C 583.828125 346.523438 583.570312 345.347656 584.136719 344.46875 C 584.703125 343.585938 585.875 343.328125 586.757812 343.890625 C 587.636719 344.457031 587.898438 345.628906 587.332031 346.507812 " fill-opacity="1" fill-rule="nonzero"/><path fill="#ffffff" d="M 582.074219 388.152344 C 581.320312 389.328125 579.757812 389.671875 578.582031 388.917969 C 577.40625 388.164062 577.0625 386.601562 577.8125 385.425781 C 578.566406 384.25 580.128906 383.910156 581.308594 384.660156 C 582.484375 385.410156 582.828125 386.972656 582.074219 388.152344 " fill-opacity="1" fill-rule="nonzero"/><path fill="#c1c1c1" d="M 469.152344 430.574219 L 507.867188 424.074219 L 509.507812 430.382812 C 509.507812 430.382812 480.546875 450.59375 469.152344 430.574219 " fill-opacity="1" fill-rule="nonzero"/><path fill="#cecece" d="M 469.152344 430.574219 L 507.832031 423.921875 L 509.335938 429.566406 C 509.335938 429.566406 480.082031 448.363281 469.152344 430.574219 " fill-opacity="1" fill-rule="nonzero"/><path fill="#e2e2e2" d="M 469.152344 430.574219 L 507.785156 423.6875 L 509.082031 428.34375 C 509.082031 428.34375 479.386719 445.019531 469.152344 430.574219 " fill-opacity="1" fill-rule="nonzero"/><path fill="#362d29" d="M 506.832031 423.066406 C 506.832031 423.066406 508.445312 431.589844 508.855469 431.996094 C 509.269531 432.40625 529.722656 427.332031 530.15625 426.257812 C 530.589844 425.179688 529.816406 419.105469 528.519531 418.394531 C 527.222656 417.679688 506.832031 423.066406 506.832031 423.066406 " fill-opacity="1" fill-rule="nonzero"/><path fill="#4f423c" d="M 528.660156 427.007812 C 528.3125 425.882812 528.082031 424.691406 527.816406 423.558594 C 527.695312 423.058594 527.554688 422.539062 527.210938 422.160156 C 526.574219 421.460938 525.484375 421.46875 524.539062 421.53125 C 519.605469 421.855469 514.632812 422.183594 509.855469 423.453125 C 509.351562 423.589844 508.832031 423.742188 508.449219 424.097656 C 507.757812 424.753906 507.761719 425.84375 507.863281 426.796875 C 508.050781 428.5625 508.410156 430.308594 508.914062 432.011719 L 508.894531 432.007812 L 508.339844 430.320312 C 507.714844 427.726562 506.832031 423.066406 506.832031 423.066406 C 506.832031 423.066406 527.222656 417.679688 528.519531 418.394531 C 529.816406 419.105469 530.589844 425.179688 530.15625 426.257812 C 530.089844 426.425781 529.539062 426.6875 528.660156 427.007812 " fill-opacity="1" fill-rule="nonzero"/><path fill="#6b5951" d="M 512.054688 428.867188 C 513.570312 428.550781 514.542969 427.066406 514.226562 425.554688 C 513.910156 424.039062 512.429688 423.066406 510.910156 423.378906 C 509.398438 423.695312 508.425781 425.179688 508.738281 426.695312 C 509.054688 428.207031 510.539062 429.179688 512.054688 428.867188 " fill-opacity="1" fill-rule="nonzero"/><path fill="#362d29" d="M 511.890625 428.082031 C 512.972656 427.855469 513.667969 426.796875 513.441406 425.714844 C 513.21875 424.632812 512.15625 423.9375 511.074219 424.164062 C 509.992188 424.390625 509.296875 425.449219 509.523438 426.53125 C 509.746094 427.613281 510.808594 428.308594 511.890625 428.082031 " fill-opacity="1" fill-rule="nonzero"/><path fill="#6b5951" d="M 509.207031 426.339844 L 513.65625 425.570312 C 513.65625 425.570312 509.75 427.433594 509.207031 426.339844 " fill-opacity="1" fill-rule="nonzero"/><path fill="#ededed" d="M 483.121094 436.449219 C 481.277344 436.492188 479.480469 436.359375 477.777344 435.996094 C 479.367188 433.386719 480.96875 430.78125 482.574219 428.179688 L 489.171875 427.003906 C 486.882812 429.96875 484.859375 433.132812 483.121094 436.449219 " fill-opacity="1" fill-rule="nonzero"/><path fill="#ededed" d="M 496.996094 433.625 C 495.214844 434.234375 493.335938 434.804688 491.40625 435.269531 C 492.941406 432.109375 494.476562 428.949219 496.011719 425.785156 L 501.382812 424.828125 C 499.671875 427.628906 498.257812 430.589844 496.996094 433.625 " fill-opacity="1" fill-rule="nonzero"/><path fill="#ffffff" d="M 480.164062 438.507812 C 481.09375 438.316406 481.691406 437.40625 481.496094 436.476562 C 481.304688 435.546875 480.390625 434.949219 479.464844 435.144531 C 478.535156 435.339844 477.9375 436.25 478.132812 437.175781 C 478.324219 438.105469 479.234375 438.703125 480.164062 438.507812 " fill-opacity="1" fill-rule="nonzero"/><path fill="#cecece" d="M 600.273438 407.507812 C 600.273438 407.507812 639.667969 398.894531 644.015625 401.332031 C 648.363281 403.769531 647.234375 408.128906 642.851562 409.617188 C 638.472656 411.109375 600.671875 412.3125 600.671875 412.3125 L 600.273438 407.507812 " fill-opacity="1" fill-rule="nonzero"/><path fill="#e2e2e2" d="M 590.292969 408.648438 C 584.816406 406.84375 577.710938 405.710938 569.921875 405.644531 C 562.128906 405.578125 555.007812 406.589844 549.496094 408.300781 L 538.429688 408.207031 L 538.328125 420.066406 C 538.273438 426.589844 552.3125 432 569.695312 432.148438 C 587.070312 432.296875 601.203125 427.128906 601.261719 420.601562 L 601.363281 408.742188 L 590.292969 408.648438 " fill-opacity="1" fill-rule="nonzero"/><path fill="#ededed" d="M 541.769531 418.984375 C 540.847656 412.140625 541.707031 416.871094 542.992188 410.082031 L 541.324219 408.230469 L 538.429688 408.207031 L 538.328125 420.066406 C 538.296875 423.675781 542.59375 426.941406 549.375 429.164062 C 543.796875 425.371094 542.664062 425.652344 541.769531 418.984375 " fill-opacity="1" fill-rule="nonzero"/><path fill="#e2e2e2" d="M 571.160156 417.15625 C 572.519531 420.90625 573.015625 424.945312 572.617188 428.914062 C 573.597656 428.261719 574.589844 427.625 575.570312 426.972656 C 576.671875 426.242188 577.785156 425.5 578.644531 424.496094 C 579.507812 423.496094 580.09375 422.183594 579.945312 420.875 L 575.355469 415.3125 C 574.789062 415.132812 571.410156 416.617188 571.160156 417.15625 " fill-opacity="1" fill-rule="nonzero"/><path fill="#cecece" d="M 601.261719 420.601562 L 601.363281 408.742188 L 590.292969 408.648438 C 589.199219 408.289062 587.992188 407.976562 586.773438 407.671875 L 575.125 414.035156 C 574.828125 419.242188 573.652344 427.269531 571.757812 432.128906 C 588.171875 431.867188 601.207031 426.867188 601.261719 420.601562 " fill-opacity="1" fill-rule="nonzero"/><path fill="#ededed" d="M 601.355469 409.367188 C 601.300781 415.890625 587.167969 421.058594 569.789062 420.910156 C 552.410156 420.761719 538.367188 415.355469 538.425781 408.828125 C 538.480469 402.304688 552.613281 397.136719 569.992188 397.285156 C 587.367188 397.433594 601.410156 402.839844 601.355469 409.367188 " fill-opacity="1" fill-rule="nonzero"/><path fill="#e2e2e2" d="M 597.125 409.328125 C 597.078125 414.976562 584.84375 419.449219 569.800781 419.320312 C 554.761719 419.195312 542.605469 414.511719 542.65625 408.867188 C 542.703125 403.21875 554.9375 398.746094 569.976562 398.875 C 585.019531 399 597.171875 403.683594 597.125 409.328125 " fill-opacity="1" fill-rule="nonzero"/><path fill="#cecece" d="M 569.800781 419.320312 C 578.75 419.398438 586.636719 417.824219 591.621094 415.363281 C 590.300781 411.265625 581.148438 408.015625 569.898438 407.921875 C 558.652344 407.824219 549.445312 410.917969 548.054688 414.992188 C 553 417.535156 560.851562 419.246094 569.800781 419.320312 " fill-opacity="1" fill-rule="nonzero"/><path fill="#ffffff" d="M 545.882812 413.941406 C 545.871094 415.210938 544.832031 416.230469 543.566406 416.21875 C 542.296875 416.207031 541.277344 415.171875 541.289062 413.902344 C 541.300781 412.636719 542.335938 411.617188 543.605469 411.628906 C 544.875 411.636719 545.894531 412.675781 545.882812 413.941406 " fill-opacity="1" fill-rule="nonzero"/><path fill="#ffffff" d="M 575.078125 420.59375 C 575.074219 421.261719 574.527344 421.796875 573.859375 421.792969 C 573.191406 421.785156 572.65625 421.242188 572.660156 420.574219 C 572.667969 419.90625 573.214844 419.371094 573.882812 419.375 C 574.546875 419.382812 575.085938 419.925781 575.078125 420.59375 " fill-opacity="1" fill-rule="nonzero"/><path fill="#ededed" d="M 646.027344 407.007812 C 647.34375 405.09375 646.921875 402.625 644.023438 401 C 639.675781 398.5625 600.28125 407.175781 600.28125 407.175781 L 600.375 408.308594 C 600.46875 408.394531 600.578125 408.457031 600.707031 408.488281 C 600.707031 408.488281 641.84375 400.105469 644.652344 404.0625 C 645.410156 405.125 645.816406 406.117188 646.027344 407.007812 " fill-opacity="1" fill-rule="nonzero"/><path fill="#de8095" d="M 569.730469 418.550781 C 569.675781 418.550781 569.617188 418.550781 569.5625 418.550781 C 565.050781 418.511719 561.410156 416.972656 561.425781 415.113281 C 561.441406 413.28125 565.015625 411.820312 569.445312 411.820312 C 569.5 411.820312 569.558594 411.820312 569.617188 411.820312 C 574.125 411.859375 577.765625 413.394531 577.75 415.253906 C 577.734375 417.089844 574.160156 418.550781 569.730469 418.550781 " fill-opacity="1" fill-rule="nonzero"/><path fill="#bf294a" d="M 575.277344 415.230469 C 575.265625 416.527344 572.710938 417.554688 569.570312 417.53125 C 566.429688 417.503906 563.890625 416.433594 563.902344 415.136719 C 563.914062 413.839844 566.46875 412.8125 569.609375 412.839844 C 572.75 412.867188 575.289062 413.9375 575.277344 415.230469 " fill-opacity="1" fill-rule="nonzero"/><path fill="#ffffff" d="M 638.390625 403.171875 C 638.382812 403.78125 637.882812 404.273438 637.273438 404.269531 C 636.660156 404.261719 636.171875 403.765625 636.171875 403.152344 C 636.179688 402.542969 636.679688 402.050781 637.292969 402.054688 C 637.90625 402.058594 638.394531 402.558594 638.390625 403.171875 " fill-opacity="1" fill-rule="nonzero"/><path fill="#e2e2e2" d="M 470.523438 371.722656 L 503.316406 370.378906 L 507.429688 419.964844 L 469.042969 419.816406 L 470.523438 371.722656 " fill-opacity="1" fill-rule="nonzero"/><path fill="#cecece" d="M 509.820312 368.433594 L 503.335938 370.429688 L 507.453125 420.019531 L 516.972656 416.171875 L 509.820312 368.433594 " fill-opacity="1" fill-rule="nonzero"/><path fill="#e2e2e2" d="M 470.542969 371.777344 L 477.375 369.769531 L 509.820312 368.433594 L 503.335938 370.429688 L 470.542969 371.777344 " fill-opacity="1" fill-rule="nonzero"/><path fill="#cecece" d="M 478.433594 369.449219 C 478.433594 369.449219 480.101562 361.226562 480.945312 360.90625 C 481.789062 360.582031 499.523438 360.140625 499.523438 360.140625 L 498.007812 358.058594 C 498.007812 358.058594 479.351562 360.332031 478.90625 360.023438 C 478.464844 359.71875 478.433594 369.449219 478.433594 369.449219 " fill-opacity="1" fill-rule="nonzero"/><path fill="#e2e2e2" d="M 475.675781 370.527344 C 475.675781 370.527344 476.917969 358.730469 478.273438 357.984375 C 479.625 357.238281 500.695312 356.714844 500.695312 356.714844 C 500.695312 356.714844 503.382812 362.121094 503.699219 369.796875 C 503.699219 369.796875 501.738281 369.535156 500.9375 369.679688 C 500.140625 369.832031 498.789062 359.324219 498.207031 359.117188 C 497.625 358.914062 479.96875 359.753906 479.640625 360.109375 C 479.308594 360.46875 478.664062 369.910156 478.453125 370.378906 C 478.242188 370.84375 475.675781 370.527344 475.675781 370.527344 " fill-opacity="1" fill-rule="nonzero"/><path fill="#ededed" d="M 499.753906 357.679688 C 499.964844 357.832031 500.601562 358.054688 501.34375 358.238281 C 500.964844 357.257812 500.695312 356.714844 500.695312 356.714844 C 500.695312 356.714844 479.625 357.238281 478.273438 357.984375 C 476.917969 358.726562 475.675781 370.527344 475.675781 370.527344 C 475.675781 370.527344 478.242188 359.59375 478.910156 359.109375 C 479.578125 358.621094 499.164062 357.242188 499.753906 357.679688 " fill-opacity="1" fill-rule="nonzero"/><path fill="#ededed" d="M 470.542969 371.777344 L 503.335938 370.429688 L 509.820312 368.433594 L 504.238281 371.726562 L 507.453125 420.019531 L 502.109375 372.960938 L 470.542969 371.777344 " fill-opacity="1" fill-rule="nonzero"/><path fill="#ffffff" d="M 504.230469 371.933594 C 504.261719 372.726562 503.644531 373.394531 502.851562 373.425781 C 502.058594 373.460938 501.386719 372.84375 501.355469 372.050781 C 501.324219 371.257812 501.9375 370.585938 502.734375 370.554688 C 503.527344 370.523438 504.199219 371.140625 504.230469 371.933594 " fill-opacity="1" fill-rule="nonzero"/><path fill="#ffffff" d="M 479.710938 359.152344 C 479.730469 359.613281 479.371094 360.003906 478.90625 360.023438 C 478.445312 360.042969 478.054688 359.683594 478.035156 359.222656 C 478.015625 358.757812 478.375 358.367188 478.835938 358.347656 C 479.300781 358.332031 479.691406 358.691406 479.710938 359.152344 " fill-opacity="1" fill-rule="nonzero"/><path fill="#ededed" d="M 478.347656 379.332031 C 478.402344 381.726562 477.628906 383.6875 476.621094 383.707031 C 475.613281 383.730469 474.753906 381.808594 474.699219 379.410156 C 474.648438 377.015625 475.421875 375.054688 476.429688 375.035156 C 477.4375 375.011719 478.296875 376.9375 478.347656 379.332031 " fill-opacity="1" fill-rule="nonzero"/><path fill="#cecece" d="M 478.363281 380.035156 C 478.410156 382.039062 477.726562 383.683594 476.839844 383.703125 C 475.953125 383.722656 475.195312 382.113281 475.152344 380.105469 C 475.109375 378.097656 475.792969 376.453125 476.679688 376.4375 C 477.566406 376.417969 478.320312 378.027344 478.363281 380.035156 " fill-opacity="1" fill-rule="nonzero"/><path fill="#ededed" d="M 484.132812 379.488281 C 484.1875 381.882812 483.410156 383.84375 482.402344 383.867188 C 481.394531 383.886719 480.535156 381.964844 480.484375 379.566406 C 480.429688 377.171875 481.207031 375.210938 482.210938 375.191406 C 483.21875 375.167969 484.082031 377.09375 484.132812 379.488281 " fill-opacity="1" fill-rule="nonzero"/><path fill="#cecece" d="M 484.148438 380.191406 C 484.191406 382.199219 483.507812 383.839844 482.621094 383.863281 C 481.734375 383.878906 480.980469 382.269531 480.933594 380.261719 C 480.890625 378.253906 481.574219 376.613281 482.460938 376.59375 C 483.347656 376.574219 484.105469 378.183594 484.148438 380.191406 " fill-opacity="1" fill-rule="nonzero"/><path fill="#ededed" d="M 489.46875 379.746094 C 489.519531 382.140625 488.746094 384.101562 487.738281 384.121094 C 486.730469 384.144531 485.871094 382.222656 485.816406 379.824219 C 485.765625 377.429688 486.539062 375.46875 487.546875 375.449219 C 488.554688 375.425781 489.414062 377.351562 489.46875 379.746094 " fill-opacity="1" fill-rule="nonzero"/><path fill="#cecece" d="M 489.484375 380.449219 C 489.527344 382.457031 488.84375 384.097656 487.957031 384.117188 C 487.070312 384.136719 486.3125 382.527344 486.269531 380.519531 C 486.226562 378.511719 486.910156 376.867188 487.796875 376.847656 C 488.683594 376.832031 489.4375 378.441406 489.484375 380.449219 " fill-opacity="1" fill-rule="nonzero"/><path fill="#ededed" d="M 494.609375 379.929688 C 494.660156 382.324219 493.886719 384.285156 492.878906 384.304688 C 491.871094 384.328125 491.015625 382.40625 490.960938 380.007812 C 490.910156 377.613281 491.683594 375.652344 492.691406 375.632812 C 493.699219 375.609375 494.558594 377.535156 494.609375 379.929688 " fill-opacity="1" fill-rule="nonzero"/><path fill="#cecece" d="M 494.625 380.632812 C 494.671875 382.636719 493.988281 384.28125 493.101562 384.300781 C 492.210938 384.320312 491.457031 382.710938 491.414062 380.703125 C 491.367188 378.695312 492.054688 377.050781 492.941406 377.03125 C 493.828125 377.015625 494.582031 378.625 494.625 380.632812 " fill-opacity="1" fill-rule="nonzero"/><path fill="#ededed" d="M 500.421875 379.589844 C 500.476562 381.988281 499.699219 383.945312 498.691406 383.96875 C 497.6875 383.992188 496.824219 382.066406 496.773438 379.671875 C 496.71875 377.277344 497.492188 375.316406 498.5 375.292969 C 499.511719 375.269531 500.367188 377.195312 500.421875 379.589844 " fill-opacity="1" fill-rule="nonzero"/><path fill="#cecece" d="M 500.4375 380.292969 C 500.480469 382.300781 499.796875 383.945312 498.910156 383.960938 C 498.023438 383.984375 497.269531 382.371094 497.226562 380.363281 C 497.179688 378.359375 497.863281 376.714844 498.75 376.695312 C 499.640625 376.675781 500.394531 378.285156 500.4375 380.292969 " fill-opacity="1" fill-rule="nonzero"/><path fill="#ededed" d="M 478.820312 390.761719 C 478.871094 393.15625 478.097656 395.113281 477.089844 395.136719 C 476.082031 395.160156 475.222656 393.234375 475.171875 390.839844 C 475.117188 388.445312 475.890625 386.484375 476.902344 386.460938 C 477.90625 386.4375 478.769531 388.363281 478.820312 390.761719 " fill-opacity="1" fill-rule="nonzero"/><path fill="#cecece" d="M 478.835938 391.464844 C 478.878906 393.46875 478.195312 395.113281 477.308594 395.132812 C 476.421875 395.152344 475.667969 393.539062 475.621094 391.53125 C 475.578125 389.523438 476.261719 387.882812 477.148438 387.863281 C 478.035156 387.84375 478.792969 389.453125 478.835938 391.464844 " fill-opacity="1" fill-rule="nonzero"/><path fill="#ededed" d="M 484.601562 390.914062 C 484.65625 393.3125 483.878906 395.269531 482.875 395.292969 C 481.867188 395.316406 481.007812 393.394531 480.953125 390.996094 C 480.902344 388.601562 481.675781 386.640625 482.683594 386.617188 C 483.691406 386.597656 484.550781 388.519531 484.601562 390.914062 " fill-opacity="1" fill-rule="nonzero"/><path fill="#cecece" d="M 484.621094 391.617188 C 484.664062 393.625 483.980469 395.269531 483.09375 395.289062 C 482.203125 395.308594 481.449219 393.699219 481.40625 391.6875 C 481.363281 389.683594 482.042969 388.039062 482.933594 388.019531 C 483.820312 388 484.574219 389.613281 484.621094 391.617188 " fill-opacity="1" fill-rule="nonzero"/><path fill="#ededed" d="M 489.9375 391.171875 C 489.992188 393.566406 489.214844 395.527344 488.207031 395.550781 C 487.203125 395.570312 486.339844 393.648438 486.289062 391.253906 C 486.238281 388.859375 487.011719 386.898438 488.019531 386.875 C 489.027344 386.851562 489.886719 388.777344 489.9375 391.171875 " fill-opacity="1" fill-rule="nonzero"/><path fill="#cecece" d="M 489.953125 391.875 C 489.996094 393.882812 489.3125 395.527344 488.425781 395.542969 C 487.539062 395.566406 486.785156 393.953125 486.742188 391.945312 C 486.695312 389.9375 487.378906 388.296875 488.265625 388.277344 C 489.15625 388.257812 489.910156 389.867188 489.953125 391.875 " fill-opacity="1" fill-rule="nonzero"/><path fill="#ededed" d="M 495.082031 391.355469 C 495.132812 393.75 494.359375 395.710938 493.351562 395.734375 C 492.34375 395.757812 491.484375 393.832031 491.429688 391.4375 C 491.378906 389.039062 492.152344 387.082031 493.160156 387.058594 C 494.167969 387.035156 495.027344 388.960938 495.082031 391.355469 " fill-opacity="1" fill-rule="nonzero"/><path fill="#cecece" d="M 495.09375 392.058594 C 495.140625 394.066406 494.457031 395.707031 493.570312 395.730469 C 492.683594 395.75 491.929688 394.136719 491.882812 392.128906 C 491.839844 390.121094 492.523438 388.480469 493.410156 388.460938 C 494.296875 388.441406 495.054688 390.050781 495.09375 392.058594 " fill-opacity="1" fill-rule="nonzero"/><path fill="#ededed" d="M 500.894531 391.019531 C 500.945312 393.414062 500.171875 395.375 499.164062 395.394531 C 498.15625 395.417969 497.296875 393.492188 497.242188 391.097656 C 497.191406 388.703125 497.964844 386.746094 498.972656 386.722656 C 499.980469 386.699219 500.839844 388.621094 500.894531 391.019531 " fill-opacity="1" fill-rule="nonzero"/><path fill="#cecece" d="M 500.90625 391.722656 C 500.953125 393.730469 500.269531 395.371094 499.378906 395.390625 C 498.492188 395.410156 497.738281 393.800781 497.695312 391.792969 C 497.652344 389.785156 498.335938 388.140625 499.222656 388.125 C 500.109375 388.101562 500.863281 389.714844 500.90625 391.722656 " fill-opacity="1" fill-rule="nonzero"/><path fill="#ededed" d="M 479.285156 402.089844 C 479.339844 404.484375 478.5625 406.441406 477.558594 406.464844 C 476.550781 406.488281 475.691406 404.5625 475.636719 402.167969 C 475.585938 399.773438 476.359375 397.8125 477.367188 397.789062 C 478.375 397.769531 479.234375 399.691406 479.285156 402.089844 " fill-opacity="1" fill-rule="nonzero"/><path fill="#cecece" d="M 479.300781 402.789062 C 479.34375 404.800781 478.664062 406.441406 477.773438 406.460938 C 476.886719 406.480469 476.132812 404.867188 476.089844 402.863281 C 476.046875 400.855469 476.726562 399.210938 477.617188 399.191406 C 478.503906 399.171875 479.257812 400.785156 479.300781 402.789062 " fill-opacity="1" fill-rule="nonzero"/><path fill="#ededed" d="M 485.070312 402.246094 C 485.121094 404.640625 484.347656 406.601562 483.339844 406.621094 C 482.332031 406.644531 481.472656 404.71875 481.421875 402.324219 C 481.367188 399.929688 482.140625 397.96875 483.148438 397.949219 C 484.15625 397.925781 485.019531 399.851562 485.070312 402.246094 " fill-opacity="1" fill-rule="nonzero"/><path fill="#cecece" d="M 485.085938 402.949219 C 485.128906 404.957031 484.445312 406.597656 483.558594 406.617188 C 482.671875 406.636719 481.917969 405.027344 481.871094 403.019531 C 481.828125 401.011719 482.511719 399.367188 483.398438 399.347656 C 484.285156 399.328125 485.042969 400.941406 485.085938 402.949219 " fill-opacity="1" fill-rule="nonzero"/><path fill="#ededed" d="M 490.40625 402.503906 C 490.457031 404.898438 489.683594 406.859375 488.675781 406.878906 C 487.667969 406.902344 486.808594 404.976562 486.753906 402.582031 C 486.703125 400.1875 487.476562 398.226562 488.484375 398.203125 C 489.492188 398.183594 490.351562 400.105469 490.40625 402.503906 " fill-opacity="1" fill-rule="nonzero"/><path fill="#cecece" d="M 490.417969 403.203125 C 490.464844 405.210938 489.78125 406.855469 488.894531 406.875 C 488.007812 406.894531 487.253906 405.28125 487.207031 403.277344 C 487.164062 401.269531 487.847656 399.625 488.734375 399.605469 C 489.621094 399.585938 490.378906 401.195312 490.417969 403.203125 " fill-opacity="1" fill-rule="nonzero"/><path fill="#ededed" d="M 495.546875 402.6875 C 495.601562 405.078125 494.824219 407.042969 493.816406 407.0625 C 492.808594 407.082031 491.949219 405.160156 491.898438 402.765625 C 491.84375 400.371094 492.621094 398.410156 493.625 398.386719 C 494.636719 398.367188 495.492188 400.289062 495.546875 402.6875 " fill-opacity="1" fill-rule="nonzero"/><path fill="#cecece" d="M 495.5625 403.386719 C 495.605469 405.394531 494.921875 407.039062 494.035156 407.058594 C 493.148438 407.078125 492.394531 405.464844 492.351562 403.460938 C 492.304688 401.453125 492.988281 399.808594 493.875 399.789062 C 494.761719 399.769531 495.515625 401.378906 495.5625 403.386719 " fill-opacity="1" fill-rule="nonzero"/><path fill="#ededed" d="M 501.359375 402.347656 C 501.410156 404.742188 500.636719 406.703125 499.628906 406.726562 C 498.621094 406.746094 497.761719 404.824219 497.710938 402.429688 C 497.65625 400.03125 498.429688 398.074219 499.4375 398.050781 C 500.445312 398.027344 501.304688 399.953125 501.359375 402.347656 " fill-opacity="1" fill-rule="nonzero"/><path fill="#cecece" d="M 501.375 403.050781 C 501.417969 405.058594 500.734375 406.699219 499.847656 406.722656 C 498.960938 406.738281 498.207031 405.128906 498.160156 403.121094 C 498.117188 401.113281 498.800781 399.472656 499.6875 399.453125 C 500.574219 399.433594 501.332031 401.042969 501.375 403.050781 " fill-opacity="1" fill-rule="nonzero"/><path fill="#ededed" d="M 479.734375 412.925781 C 479.785156 415.320312 479.011719 417.28125 478.003906 417.300781 C 476.996094 417.324219 476.136719 415.398438 476.082031 413.003906 C 476.03125 410.609375 476.804688 408.648438 477.8125 408.628906 C 478.820312 408.605469 479.679688 410.527344 479.734375 412.925781 " fill-opacity="1" fill-rule="nonzero"/><path fill="#cecece" d="M 479.75 413.628906 C 479.792969 415.636719 479.109375 417.277344 478.222656 417.296875 C 477.335938 417.316406 476.578125 415.703125 476.535156 413.699219 C 476.492188 411.691406 477.175781 410.046875 478.0625 410.027344 C 478.949219 410.007812 479.703125 411.621094 479.75 413.628906 " fill-opacity="1" fill-rule="nonzero"/><path fill="#ededed" d="M 485.515625 413.082031 C 485.566406 415.476562 484.792969 417.4375 483.785156 417.457031 C 482.777344 417.480469 481.917969 415.558594 481.867188 413.160156 C 481.8125 410.765625 482.585938 408.808594 483.597656 408.785156 C 484.601562 408.761719 485.464844 410.6875 485.515625 413.082031 " fill-opacity="1" fill-rule="nonzero"/><path fill="#cecece" d="M 485.53125 413.785156 C 485.574219 415.792969 484.890625 417.433594 484.003906 417.453125 C 483.117188 417.472656 482.363281 415.863281 482.320312 413.855469 C 482.273438 411.847656 482.957031 410.203125 483.84375 410.1875 C 484.730469 410.164062 485.488281 411.777344 485.53125 413.785156 " fill-opacity="1" fill-rule="nonzero"/><path fill="#ededed" d="M 490.851562 413.339844 C 490.902344 415.734375 490.128906 417.695312 489.121094 417.714844 C 488.113281 417.738281 487.253906 415.8125 487.203125 413.417969 C 487.148438 411.023438 487.921875 409.0625 488.929688 409.042969 C 489.9375 409.019531 490.800781 410.941406 490.851562 413.339844 " fill-opacity="1" fill-rule="nonzero"/><path fill="#cecece" d="M 490.867188 414.042969 C 490.910156 416.050781 490.226562 417.691406 489.339844 417.710938 C 488.453125 417.730469 487.699219 416.117188 487.652344 414.113281 C 487.609375 412.105469 488.292969 410.464844 489.179688 410.441406 C 490.066406 410.421875 490.824219 412.035156 490.867188 414.042969 " fill-opacity="1" fill-rule="nonzero"/><path fill="#ededed" d="M 495.992188 413.523438 C 496.046875 415.917969 495.269531 417.878906 494.261719 417.898438 C 493.257812 417.921875 492.394531 415.996094 492.34375 413.601562 C 492.289062 411.207031 493.066406 409.246094 494.070312 409.226562 C 495.082031 409.203125 495.941406 411.125 495.992188 413.523438 " fill-opacity="1" fill-rule="nonzero"/><path fill="#cecece" d="M 496.007812 414.226562 C 496.050781 416.230469 495.371094 417.875 494.480469 417.894531 C 493.59375 417.914062 492.839844 416.300781 492.796875 414.296875 C 492.753906 412.289062 493.433594 410.644531 494.320312 410.625 C 495.210938 410.605469 495.964844 412.21875 496.007812 414.226562 " fill-opacity="1" fill-rule="nonzero"/><path fill="#ededed" d="M 501.816406 413.480469 C 501.871094 415.875 501.09375 417.835938 500.085938 417.855469 C 499.082031 417.878906 498.21875 415.957031 498.167969 413.558594 C 498.117188 411.164062 498.890625 409.203125 499.898438 409.183594 C 500.90625 409.160156 501.765625 411.082031 501.816406 413.480469 " fill-opacity="1" fill-rule="nonzero"/><path fill="#cecece" d="M 501.832031 414.183594 C 501.875 416.191406 501.191406 417.832031 500.304688 417.851562 C 499.417969 417.871094 498.664062 416.261719 498.621094 414.253906 C 498.574219 412.246094 499.257812 410.601562 500.144531 410.585938 C 501.03125 410.5625 501.789062 412.175781 501.832031 414.183594 " fill-opacity="1" fill-rule="nonzero"/><path fill="#c1c1c1" d="M 506.152344 394.0625 L 512.683594 392.015625 L 512.289062 394.402344 L 507.613281 395.976562 L 506.152344 394.0625 " fill-opacity="1" fill-rule="nonzero"/><path fill="#c1c1c1" d="M 507.382812 400.039062 L 513.914062 397.992188 L 513.519531 400.378906 L 508.84375 401.949219 L 507.382812 400.039062 " fill-opacity="1" fill-rule="nonzero"/><path fill="#bababa" d="M 506.152344 394.0625 L 507.988281 395.816406 L 512.289062 394.402344 L 512.683594 392.015625 L 512.878906 395.371094 L 507.660156 396.8125 L 506.152344 394.0625 " fill-opacity="1" fill-rule="nonzero"/><path fill="#bababa" d="M 507.382812 400.039062 L 508.84375 401.949219 L 513.519531 400.378906 L 513.914062 397.992188 C 513.914062 397.992188 514.097656 400.976562 513.738281 401.238281 C 513.382812 401.496094 508.65625 403.042969 508.65625 403.042969 L 507.382812 400.039062 " fill-opacity="1" fill-rule="nonzero"/><path fill="#cecece" d="M 501.910156 369.644531 C 502.753906 369.671875 503.699219 369.796875 503.699219 369.796875 C 503.496094 364.796875 502.285156 360.773438 501.464844 358.566406 C 501.175781 359.167969 500.742188 359.703125 500.1875 360.078125 C 501.261719 363.148438 501.828125 366.390625 501.910156 369.644531 " fill-opacity="1" fill-rule="nonzero"/><path fill="#e2e2e2" d="M 440.921875 429.976562 C 440.835938 433.5625 437.824219 436.429688 434.230469 436.339844 L 429.75 436.230469 C 426.15625 436.144531 423.292969 433.132812 423.378906 429.546875 L 423.714844 415.867188 C 423.804688 412.277344 426.8125 409.410156 430.40625 409.5 L 434.886719 409.609375 C 438.480469 409.699219 441.347656 412.707031 441.257812 416.296875 L 440.921875 429.976562 " fill-opacity="1" fill-rule="nonzero"/><path fill="#ededed" d="M 440.082031 429.285156 C 440.003906 432.523438 437.285156 435.109375 434.042969 435.03125 L 430 434.929688 C 426.757812 434.851562 424.171875 432.136719 424.253906 428.898438 L 424.554688 416.554688 C 424.632812 413.316406 427.351562 410.730469 430.59375 410.808594 L 434.636719 410.910156 C 437.878906 410.988281 440.464844 413.703125 440.386719 416.945312 L 440.082031 429.285156 " fill-opacity="1" fill-rule="nonzero"/><path fill="#faf1cd" d="M 424.476562 419.75 L 424.253906 428.898438 C 424.171875 432.136719 426.757812 434.851562 430 434.929688 L 434.042969 435.03125 C 437.285156 435.109375 440.003906 432.523438 440.082031 429.285156 L 440.308594 420.140625 L 424.476562 419.75 " fill-opacity="1" fill-rule="nonzero"/><path fill="#cbc9c0" d="M 440.175781 415.242188 C 440.113281 415.015625 440.035156 414.789062 439.949219 414.574219 C 440.222656 414.460938 440.472656 414.34375 440.703125 414.214844 C 440.640625 414.578125 440.460938 414.921875 440.175781 415.242188 M 424.851562 414.859375 C 424.585938 414.527344 424.421875 414.175781 424.378906 413.8125 C 424.601562 413.953125 424.847656 414.082031 425.109375 414.207031 C 425.011719 414.417969 424.921875 414.632812 424.851562 414.859375 " fill-opacity="1" fill-rule="nonzero"/><path fill="#d3d1c8" d="M 432.917969 417.417969 C 432.765625 417.417969 432.613281 417.414062 432.460938 417.410156 C 428.945312 417.324219 425.972656 416.265625 424.851562 414.859375 C 424.921875 414.632812 425.011719 414.417969 425.109375 414.207031 C 426.871094 415.042969 429.523438 415.609375 432.5 415.683594 C 432.714844 415.6875 432.929688 415.691406 433.144531 415.691406 C 435.859375 415.691406 438.277344 415.265625 439.949219 414.574219 C 440.035156 414.789062 440.113281 415.015625 440.175781 415.242188 C 439.03125 416.53125 436.226562 417.417969 432.917969 417.417969 " fill-opacity="1" fill-rule="nonzero"/><path fill="#ffd333" d="M 439.128906 402.332031 C 437.445312 401.746094 435.257812 401.363281 432.855469 401.304688 C 430.449219 401.246094 428.246094 401.523438 426.535156 402.023438 L 423.121094 401.941406 L 422.878906 411.800781 C 422.828125 413.8125 427.136719 415.550781 432.5 415.683594 C 437.863281 415.816406 442.253906 414.289062 442.304688 412.273438 L 442.542969 402.417969 L 439.128906 402.332031 " fill-opacity="1" fill-rule="nonzero"/><path fill="#df9277" d="M 422.878906 411.878906 C 422.878906 411.878906 422.878906 411.875 422.878906 411.875 C 422.878906 411.875 422.878906 411.878906 422.878906 411.878906 M 422.878906 411.867188 C 422.878906 411.867188 422.878906 411.863281 422.878906 411.859375 C 422.878906 411.863281 422.878906 411.867188 422.878906 411.867188 M 422.878906 411.855469 C 422.878906 411.855469 422.878906 411.851562 422.878906 411.847656 C 422.878906 411.851562 422.878906 411.855469 422.878906 411.855469 M 422.878906 411.847656 C 422.878906 411.84375 422.878906 411.839844 422.878906 411.835938 C 422.878906 411.839844 422.878906 411.84375 422.878906 411.847656 M 422.878906 411.835938 C 422.878906 411.832031 422.878906 411.828125 422.878906 411.824219 C 422.878906 411.828125 422.878906 411.832031 422.878906 411.835938 M 422.878906 411.820312 C 422.878906 411.820312 422.878906 411.816406 422.878906 411.8125 C 422.878906 411.816406 422.878906 411.820312 422.878906 411.820312 M 422.878906 411.8125 C 422.878906 411.808594 422.878906 411.804688 422.878906 411.800781 C 422.878906 411.804688 422.878906 411.808594 422.878906 411.8125 M 423.171875 401.941406 L 423.121094 401.941406 L 423.171875 401.941406 " fill-opacity="1" fill-rule="nonzero"/><path fill="#ffe76b" d="M 426.242188 414.664062 C 424.210938 413.960938 422.914062 412.964844 422.878906 411.878906 C 422.878906 411.878906 422.878906 411.875 422.878906 411.875 C 422.878906 411.871094 422.878906 411.871094 422.878906 411.867188 C 422.878906 411.867188 422.878906 411.863281 422.878906 411.859375 C 422.878906 411.859375 422.878906 411.859375 422.878906 411.855469 C 422.878906 411.855469 422.878906 411.851562 422.878906 411.847656 C 422.878906 411.84375 422.878906 411.839844 422.878906 411.835938 C 422.878906 411.832031 422.878906 411.828125 422.878906 411.824219 C 422.878906 411.824219 422.878906 411.824219 422.878906 411.820312 C 422.878906 411.820312 422.878906 411.816406 422.878906 411.8125 C 422.878906 411.808594 422.878906 411.804688 422.878906 411.800781 L 423.121094 401.941406 L 423.171875 401.941406 L 424.011719 401.960938 L 424.519531 402.542969 C 424.089844 404.632812 423.816406 406.777344 424.070312 408.894531 C 424.3125 410.957031 425.085938 412.9375 426.242188 414.664062 " fill-opacity="1" fill-rule="nonzero"/><path fill="#fffaa3" d="M 433.179688 404.867188 C 433.582031 406.027344 433.5625 413.476562 433.417969 414.699219 C 433.726562 414.503906 434.1875 408.113281 434.492188 407.917969 C 434.835938 407.699219 435.183594 407.472656 435.453125 407.167969 C 435.726562 406.863281 435.914062 406.460938 435.875 406.054688 L 434.484375 404.316406 C 434.308594 404.257812 433.261719 404.699219 433.179688 404.867188 " fill-opacity="1" fill-rule="nonzero"/><path fill="#ffb219" d="M 442.304688 412.277344 L 442.542969 402.417969 L 439.128906 402.332031 C 438.792969 402.21875 438.421875 402.113281 438.046875 402.015625 L 434.417969 403.921875 C 434.300781 405.527344 433.75 414.195312 433.136719 415.6875 C 438.207031 415.6875 442.253906 414.210938 442.304688 412.277344 " fill-opacity="1" fill-rule="nonzero"/><path fill="#fffaa3" d="M 442.539062 402.609375 C 442.492188 404.621094 438.101562 406.148438 432.738281 406.015625 C 427.375 405.886719 423.066406 404.144531 423.113281 402.132812 C 423.164062 400.121094 427.554688 398.59375 432.917969 398.722656 C 438.28125 398.855469 442.589844 400.59375 442.539062 402.609375 " fill-opacity="1" fill-rule="nonzero"/><path fill="#ffe355" d="M 441.234375 402.578125 C 441.191406 404.320312 437.394531 405.640625 432.75 405.527344 C 428.105469 405.414062 424.378906 403.90625 424.421875 402.164062 C 424.464844 400.421875 428.261719 399.101562 432.90625 399.214844 C 437.546875 399.328125 441.277344 400.835938 441.234375 402.578125 " fill-opacity="1" fill-rule="nonzero"/><path fill="#ffffff" d="M 425.390625 403.746094 C 425.382812 404.140625 425.058594 404.449219 424.667969 404.4375 C 424.273438 404.429688 423.964844 404.105469 423.972656 403.714844 C 423.984375 403.320312 424.308594 403.011719 424.699219 403.023438 C 425.09375 403.03125 425.402344 403.355469 425.390625 403.746094 " fill-opacity="1" fill-rule="nonzero"/><path fill="#ffffff" d="M 434.371094 405.945312 C 434.367188 406.152344 434.195312 406.316406 433.992188 406.308594 C 433.785156 406.304688 433.621094 406.132812 433.625 405.925781 C 433.632812 405.722656 433.804688 405.558594 434.007812 405.5625 C 434.214844 405.570312 434.378906 405.738281 434.371094 405.945312 " fill-opacity="1" fill-rule="nonzero"/><path fill="#e7e1c8" d="M 434.191406 435.03125 C 434.191406 435.03125 434.191406 435.03125 434.195312 435.03125 C 434.191406 435.03125 434.191406 435.03125 434.191406 435.03125 M 436.867188 420.054688 L 434.773438 420.003906 C 434.78125 419.894531 434.789062 419.789062 434.800781 419.679688 L 436.867188 420.054688 " fill-opacity="1" fill-rule="nonzero"/><path fill="#eee3b8" d="M 434.191406 435.03125 C 434.140625 435.03125 434.09375 435.03125 434.042969 435.03125 L 430.730469 434.949219 C 431.722656 433.359375 432.425781 431.527344 432.953125 429.730469 C 433.886719 426.558594 434.5 423.292969 434.773438 420.003906 L 436.867188 420.054688 L 440.292969 420.675781 L 440.082031 429.285156 C 440.003906 432.476562 437.371094 435.03125 434.195312 435.03125 C 434.191406 435.03125 434.191406 435.03125 434.191406 435.03125 " fill-opacity="1" fill-rule="nonzero"/><path fill="#ffffff" d="M 440.289062 420.460938 C 440.261719 421.65625 436.671875 422.539062 432.277344 422.433594 C 427.878906 422.324219 424.339844 421.265625 424.371094 420.074219 C 424.398438 418.878906 427.988281 417.996094 432.382812 418.101562 C 436.777344 418.210938 440.320312 419.265625 440.289062 420.460938 " fill-opacity="1" fill-rule="nonzero"/><path fill="#ffffff" d="M 427.257812 417.164062 C 427.246094 417.671875 426.824219 418.074219 426.316406 418.0625 C 425.808594 418.050781 425.40625 417.628906 425.417969 417.121094 C 425.429688 416.613281 425.851562 416.210938 426.359375 416.222656 C 426.871094 416.234375 427.269531 416.65625 427.257812 417.164062 " fill-opacity="1" fill-rule="nonzero"/><path fill="#ffffff" d="M 438.058594 431.832031 C 438.050781 432.21875 437.726562 432.527344 437.339844 432.519531 C 436.949219 432.507812 436.640625 432.1875 436.652344 431.796875 C 436.660156 431.410156 436.984375 431.101562 437.371094 431.109375 C 437.761719 431.121094 438.070312 431.445312 438.058594 431.832031 " fill-opacity="1" fill-rule="nonzero"/><path fill="#e2e2e2" d="M 461.519531 429.855469 C 461.484375 433.445312 458.515625 436.355469 454.921875 436.320312 L 450.441406 436.277344 C 446.847656 436.242188 443.9375 433.273438 443.972656 429.683594 L 444.105469 416.003906 C 444.140625 412.414062 447.105469 409.503906 450.699219 409.539062 L 455.183594 409.582031 C 458.777344 409.617188 461.6875 412.582031 461.652344 416.171875 L 461.519531 429.855469 " fill-opacity="1" fill-rule="nonzero"/><path fill="#ededed" d="M 460.667969 429.179688 C 460.636719 432.417969 457.960938 435.042969 454.71875 435.011719 L 450.671875 434.972656 C 447.429688 434.941406 444.804688 432.265625 444.835938 429.023438 L 444.953125 416.679688 C 444.984375 413.441406 447.664062 410.816406 450.90625 410.84375 L 454.953125 410.882812 C 458.195312 410.917969 460.820312 413.59375 460.789062 416.832031 L 460.667969 429.179688 " fill-opacity="1" fill-rule="nonzero"/><path fill="#593736" d="M 444.921875 419.875 L 444.835938 429.023438 C 444.804688 432.265625 447.429688 434.941406 450.671875 434.972656 L 454.71875 435.011719 C 457.960938 435.042969 460.636719 432.417969 460.667969 429.179688 L 460.757812 420.027344 L 444.921875 419.875 " fill-opacity="1" fill-rule="nonzero"/><path fill="#cbc9c0" d="M 460.554688 415.136719 C 460.488281 414.90625 460.410156 414.6875 460.316406 414.472656 C 460.585938 414.355469 460.839844 414.230469 461.066406 414.101562 C 461.011719 414.464844 460.835938 414.8125 460.554688 415.136719 M 445.222656 414.976562 C 444.957031 414.652344 444.789062 414.300781 444.738281 413.941406 C 444.964844 414.074219 445.207031 414.203125 445.472656 414.324219 C 445.378906 414.535156 445.292969 414.753906 445.222656 414.976562 " fill-opacity="1" fill-rule="nonzero"/><path fill="#d3d1c8" d="M 453.050781 417.417969 C 452.992188 417.417969 452.929688 417.417969 452.871094 417.417969 C 449.355469 417.382812 446.367188 416.371094 445.222656 414.976562 C 445.292969 414.753906 445.378906 414.535156 445.472656 414.324219 C 447.25 415.132812 449.910156 415.660156 452.886719 415.691406 C 452.972656 415.691406 453.058594 415.691406 453.140625 415.691406 C 456.011719 415.691406 458.578125 415.222656 460.316406 414.472656 C 460.410156 414.6875 460.488281 414.90625 460.554688 415.136719 C 459.398438 416.476562 456.480469 417.417969 453.050781 417.417969 " fill-opacity="1" fill-rule="nonzero"/><path fill="#ed335c" d="M 459.316406 402.242188 C 457.625 401.683594 455.429688 401.332031 453.027344 401.308594 C 450.621094 401.285156 448.421875 401.59375 446.71875 402.121094 L 443.304688 402.085938 L 443.207031 411.949219 C 443.1875 413.964844 447.523438 415.636719 452.886719 415.691406 C 458.253906 415.742188 462.617188 414.152344 462.636719 412.136719 L 462.734375 402.273438 L 459.316406 402.242188 " fill-opacity="1" fill-rule="nonzero"/><path fill="#80828b" d="M 443.210938 412.085938 L 443.210938 412.085938 M 443.210938 412.074219 C 443.210938 412.074219 443.210938 412.070312 443.210938 412.070312 C 443.210938 412.070312 443.210938 412.074219 443.210938 412.074219 M 443.210938 412.0625 C 443.210938 412.0625 443.210938 412.0625 443.210938 412.058594 C 443.210938 412.0625 443.210938 412.0625 443.210938 412.0625 M 443.210938 412.054688 C 443.210938 412.050781 443.210938 412.046875 443.210938 412.042969 C 443.210938 412.046875 443.210938 412.050781 443.210938 412.054688 M 443.210938 412.042969 C 443.210938 412.039062 443.207031 412.035156 443.207031 412.035156 C 443.207031 412.035156 443.210938 412.039062 443.210938 412.042969 M 443.207031 412.03125 C 443.207031 412.027344 443.207031 412.023438 443.207031 412.019531 C 443.207031 412.023438 443.207031 412.027344 443.207031 412.03125 M 443.207031 412.019531 C 443.207031 412.011719 443.207031 412.003906 443.207031 411.996094 C 443.207031 412.003906 443.207031 412.011719 443.207031 412.019531 M 443.207031 411.996094 C 443.207031 411.992188 443.207031 411.988281 443.207031 411.984375 C 443.207031 411.988281 443.207031 411.992188 443.207031 411.996094 M 443.207031 411.984375 C 443.207031 411.980469 443.207031 411.976562 443.207031 411.972656 C 443.207031 411.976562 443.207031 411.980469 443.207031 411.984375 M 443.207031 411.972656 C 443.207031 411.96875 443.207031 411.964844 443.207031 411.960938 C 443.207031 411.964844 443.207031 411.96875 443.207031 411.972656 M 443.207031 411.960938 C 443.207031 411.957031 443.207031 411.953125 443.207031 411.949219 C 443.207031 411.953125 443.207031 411.957031 443.207031 411.960938 " fill-opacity="1" fill-rule="nonzero"/><path fill="#f65175" d="M 446.613281 414.761719 C 444.609375 414.101562 443.308594 413.144531 443.210938 412.085938 C 443.210938 412.082031 443.210938 412.078125 443.210938 412.074219 C 443.210938 412.074219 443.210938 412.070312 443.210938 412.070312 C 443.210938 412.070312 443.210938 412.066406 443.210938 412.0625 C 443.210938 412.0625 443.210938 412.0625 443.210938 412.058594 C 443.210938 412.058594 443.210938 412.054688 443.210938 412.054688 C 443.210938 412.050781 443.210938 412.046875 443.210938 412.042969 C 443.210938 412.039062 443.207031 412.035156 443.207031 412.035156 C 443.207031 412.03125 443.207031 412.03125 443.207031 412.03125 C 443.207031 412.027344 443.207031 412.023438 443.207031 412.019531 C 443.207031 412.011719 443.207031 412.003906 443.207031 411.996094 C 443.207031 411.992188 443.207031 411.988281 443.207031 411.984375 C 443.207031 411.980469 443.207031 411.976562 443.207031 411.972656 C 443.207031 411.96875 443.207031 411.964844 443.207031 411.960938 C 443.207031 411.957031 443.207031 411.953125 443.207031 411.949219 L 443.304688 402.085938 L 444.195312 402.097656 L 444.710938 402.667969 C 444.3125 404.765625 444.074219 406.914062 444.355469 409.027344 C 444.628906 411.085938 445.429688 413.054688 446.613281 414.761719 " fill-opacity="1" fill-rule="nonzero"/><path fill="#ff6e8e" d="M 453.40625 404.863281 C 453.824219 406.019531 453.914062 413.46875 453.789062 414.691406 C 454.09375 414.492188 454.460938 408.09375 454.761719 407.894531 C 455.101562 407.671875 455.449219 407.441406 455.714844 407.132812 C 455.980469 406.824219 456.160156 406.417969 456.117188 406.015625 L 454.699219 404.292969 C 454.527344 404.238281 453.484375 404.695312 453.40625 404.863281 " fill-opacity="1" fill-rule="nonzero"/><path fill="#bf294a" d="M 462.636719 412.136719 L 462.734375 402.273438 L 459.316406 402.242188 C 458.976562 402.132812 458.605469 402.035156 458.230469 401.941406 L 454.628906 403.898438 C 454.535156 405.507812 454.113281 414.1875 453.523438 415.683594 C 458.59375 415.609375 462.617188 414.074219 462.636719 412.136719 " fill-opacity="1" fill-rule="nonzero"/><path fill="#ff6e8e" d="M 462.730469 402.46875 C 462.710938 404.484375 458.347656 406.074219 452.980469 406.019531 C 447.613281 405.96875 443.28125 404.292969 443.300781 402.28125 C 443.320312 400.265625 447.6875 398.675781 453.050781 398.726562 C 458.417969 398.777344 462.75 400.453125 462.730469 402.46875 " fill-opacity="1" fill-rule="nonzero"/><path fill="#e13057" d="M 461.425781 402.457031 C 461.40625 404.199219 457.628906 405.578125 452.984375 405.53125 C 448.339844 405.484375 444.589844 404.035156 444.605469 402.292969 C 444.625 400.550781 448.402344 399.171875 453.046875 399.21875 C 457.691406 399.261719 461.441406 400.710938 461.425781 402.457031 " fill-opacity="1" fill-rule="nonzero"/><path fill="#ffffff" d="M 445.601562 403.863281 C 445.597656 404.253906 445.277344 404.566406 444.886719 404.5625 C 444.496094 404.558594 444.179688 404.238281 444.183594 403.847656 C 444.1875 403.457031 444.507812 403.144531 444.898438 403.144531 C 445.292969 403.148438 445.605469 403.46875 445.601562 403.863281 " fill-opacity="1" fill-rule="nonzero"/><path fill="#ffffff" d="M 454.613281 405.925781 C 454.613281 406.132812 454.441406 406.296875 454.238281 406.296875 C 454.03125 406.292969 453.867188 406.125 453.867188 405.917969 C 453.871094 405.710938 454.039062 405.546875 454.246094 405.550781 C 454.449219 405.550781 454.617188 405.71875 454.613281 405.925781 " fill-opacity="1" fill-rule="nonzero"/><path fill="#4a2523" d="M 453.546875 429.726562 C 453.046875 431.53125 452.371094 433.378906 451.402344 434.980469 L 454.71875 435.011719 C 457.960938 435.042969 460.636719 432.417969 460.667969 429.179688 L 460.753906 420.5625 L 455.242188 419.652344 C 455.03125 423.058594 454.464844 426.441406 453.546875 429.726562 " fill-opacity="1" fill-rule="nonzero"/><path fill="#7d4d4c" d="M 460.746094 420.355469 C 460.734375 421.546875 457.160156 422.484375 452.761719 422.441406 C 448.367188 422.398438 444.8125 421.394531 444.824219 420.199219 C 444.832031 419.003906 448.40625 418.070312 452.804688 418.113281 C 457.203125 418.152344 460.757812 419.15625 460.746094 420.355469 " fill-opacity="1" fill-rule="nonzero"/><path fill="#ffffff" d="M 447.667969 417.25 C 447.664062 417.757812 447.246094 418.164062 446.738281 418.160156 C 446.230469 418.15625 445.820312 417.738281 445.824219 417.230469 C 445.832031 416.722656 446.246094 416.316406 446.753906 416.320312 C 447.265625 416.324219 447.671875 416.742188 447.667969 417.25 " fill-opacity="1" fill-rule="nonzero"/><path fill="#a68080" d="M 458.683594 431.753906 C 458.679688 432.144531 458.363281 432.457031 457.972656 432.449219 C 457.585938 432.449219 457.273438 432.128906 457.277344 431.742188 C 457.28125 431.351562 457.597656 431.042969 457.988281 431.042969 C 458.375 431.046875 458.6875 431.367188 458.683594 431.753906 " fill-opacity="1" fill-rule="nonzero"/></svg>